%TF.GenerationSoftware,KiCad,Pcbnew,(7.0.0)*%
%TF.CreationDate,2023-11-09T23:31:29+01:00*%
%TF.ProjectId,xlr-inteface,786c722d-696e-4746-9566-6163652e6b69,rev?*%
%TF.SameCoordinates,Original*%
%TF.FileFunction,Drillmap*%
%TF.FilePolarity,Positive*%
%FSLAX45Y45*%
G04 Gerber Fmt 4.5, Leading zero omitted, Abs format (unit mm)*
G04 Created by KiCad (PCBNEW (7.0.0)) date 2023-11-09 23:31:29*
%MOMM*%
%LPD*%
G01*
G04 APERTURE LIST*
%ADD10C,0.100000*%
%ADD11C,0.200000*%
G04 APERTURE END LIST*
D10*
X2485000Y-3341000D02*
X13725000Y-3341000D01*
X13725000Y-3341000D02*
X13725000Y-5616000D01*
X13725000Y-5616000D02*
X2485000Y-5616000D01*
X2485000Y-5616000D02*
X2485000Y-3341000D01*
D11*
X2727619Y-5914476D02*
X2727619Y-5714476D01*
X2727619Y-5714476D02*
X2775238Y-5714476D01*
X2775238Y-5714476D02*
X2803809Y-5724000D01*
X2803809Y-5724000D02*
X2822857Y-5743048D01*
X2822857Y-5743048D02*
X2832381Y-5762095D01*
X2832381Y-5762095D02*
X2841905Y-5800190D01*
X2841905Y-5800190D02*
X2841905Y-5828762D01*
X2841905Y-5828762D02*
X2832381Y-5866857D01*
X2832381Y-5866857D02*
X2822857Y-5885905D01*
X2822857Y-5885905D02*
X2803809Y-5904952D01*
X2803809Y-5904952D02*
X2775238Y-5914476D01*
X2775238Y-5914476D02*
X2727619Y-5914476D01*
X2927619Y-5914476D02*
X2927619Y-5781143D01*
X2927619Y-5819238D02*
X2937143Y-5800190D01*
X2937143Y-5800190D02*
X2946667Y-5790667D01*
X2946667Y-5790667D02*
X2965714Y-5781143D01*
X2965714Y-5781143D02*
X2984762Y-5781143D01*
X3051428Y-5914476D02*
X3051428Y-5781143D01*
X3051428Y-5714476D02*
X3041905Y-5724000D01*
X3041905Y-5724000D02*
X3051428Y-5733524D01*
X3051428Y-5733524D02*
X3060952Y-5724000D01*
X3060952Y-5724000D02*
X3051428Y-5714476D01*
X3051428Y-5714476D02*
X3051428Y-5733524D01*
X3175238Y-5914476D02*
X3156190Y-5904952D01*
X3156190Y-5904952D02*
X3146667Y-5885905D01*
X3146667Y-5885905D02*
X3146667Y-5714476D01*
X3280000Y-5914476D02*
X3260952Y-5904952D01*
X3260952Y-5904952D02*
X3251428Y-5885905D01*
X3251428Y-5885905D02*
X3251428Y-5714476D01*
X3476190Y-5914476D02*
X3476190Y-5714476D01*
X3476190Y-5714476D02*
X3542857Y-5857333D01*
X3542857Y-5857333D02*
X3609524Y-5714476D01*
X3609524Y-5714476D02*
X3609524Y-5914476D01*
X3790476Y-5914476D02*
X3790476Y-5809714D01*
X3790476Y-5809714D02*
X3780952Y-5790667D01*
X3780952Y-5790667D02*
X3761905Y-5781143D01*
X3761905Y-5781143D02*
X3723809Y-5781143D01*
X3723809Y-5781143D02*
X3704762Y-5790667D01*
X3790476Y-5904952D02*
X3771428Y-5914476D01*
X3771428Y-5914476D02*
X3723809Y-5914476D01*
X3723809Y-5914476D02*
X3704762Y-5904952D01*
X3704762Y-5904952D02*
X3695238Y-5885905D01*
X3695238Y-5885905D02*
X3695238Y-5866857D01*
X3695238Y-5866857D02*
X3704762Y-5847809D01*
X3704762Y-5847809D02*
X3723809Y-5838286D01*
X3723809Y-5838286D02*
X3771428Y-5838286D01*
X3771428Y-5838286D02*
X3790476Y-5828762D01*
X3885714Y-5781143D02*
X3885714Y-5981143D01*
X3885714Y-5790667D02*
X3904762Y-5781143D01*
X3904762Y-5781143D02*
X3942857Y-5781143D01*
X3942857Y-5781143D02*
X3961905Y-5790667D01*
X3961905Y-5790667D02*
X3971428Y-5800190D01*
X3971428Y-5800190D02*
X3980952Y-5819238D01*
X3980952Y-5819238D02*
X3980952Y-5876381D01*
X3980952Y-5876381D02*
X3971428Y-5895428D01*
X3971428Y-5895428D02*
X3961905Y-5904952D01*
X3961905Y-5904952D02*
X3942857Y-5914476D01*
X3942857Y-5914476D02*
X3904762Y-5914476D01*
X3904762Y-5914476D02*
X3885714Y-5904952D01*
X4066667Y-5895428D02*
X4076190Y-5904952D01*
X4076190Y-5904952D02*
X4066667Y-5914476D01*
X4066667Y-5914476D02*
X4057143Y-5904952D01*
X4057143Y-5904952D02*
X4066667Y-5895428D01*
X4066667Y-5895428D02*
X4066667Y-5914476D01*
X4066667Y-5790667D02*
X4076190Y-5800190D01*
X4076190Y-5800190D02*
X4066667Y-5809714D01*
X4066667Y-5809714D02*
X4057143Y-5800190D01*
X4057143Y-5800190D02*
X4066667Y-5790667D01*
X4066667Y-5790667D02*
X4066667Y-5809714D01*
M02*
