%TF.GenerationSoftware,KiCad,Pcbnew,(7.0.0)*%
%TF.CreationDate,2023-11-09T23:31:26+01:00*%
%TF.ProjectId,xlr-inteface,786c722d-696e-4746-9566-6163652e6b69,rev?*%
%TF.SameCoordinates,Original*%
%TF.FileFunction,Copper,L1,Top*%
%TF.FilePolarity,Positive*%
%FSLAX46Y46*%
G04 Gerber Fmt 4.6, Leading zero omitted, Abs format (unit mm)*
G04 Created by KiCad (PCBNEW (7.0.0)) date 2023-11-09 23:31:26*
%MOMM*%
%LPD*%
G01*
G04 APERTURE LIST*
%TA.AperFunction,ComponentPad*%
%ADD10C,3.400000*%
%TD*%
%TA.AperFunction,ComponentPad*%
%ADD11C,2.900000*%
%TD*%
%TA.AperFunction,ComponentPad*%
%ADD12R,1.700000X1.700000*%
%TD*%
%TA.AperFunction,ComponentPad*%
%ADD13O,1.700000X1.700000*%
%TD*%
%TA.AperFunction,ViaPad*%
%ADD14C,0.800000*%
%TD*%
%TA.AperFunction,ViaPad*%
%ADD15C,1.000000*%
%TD*%
%TA.AperFunction,Conductor*%
%ADD16C,0.400000*%
%TD*%
%TA.AperFunction,Conductor*%
%ADD17C,1.000000*%
%TD*%
G04 APERTURE END LIST*
D10*
%TO.P,J1,1*%
%TO.N,GND*%
X100820000Y-36070000D03*
%TO.P,J1,2*%
%TO.N,Net-(U2-IN+)*%
X93200000Y-36070000D03*
D11*
%TO.P,J1,3*%
%TO.N,Net-(U2-IN-)*%
X97010000Y-40520000D03*
%TD*%
D10*
%TO.P,J4,1*%
%TO.N,GND*%
X61737500Y-36120000D03*
%TO.P,J4,2*%
%TO.N,Net-(U1-SENSE+)*%
X69357500Y-36120000D03*
%TO.P,J4,3*%
%TO.N,Net-(U1-SENSE-)*%
X65547500Y-39930000D03*
D11*
%TO.P,J4,G*%
%TO.N,GND*%
X65547500Y-44375000D03*
%TD*%
D10*
%TO.P,J2,1*%
%TO.N,GND*%
X127870000Y-36070000D03*
%TO.P,J2,2*%
%TO.N,Net-(U3-IN+)*%
X120250000Y-36070000D03*
D11*
%TO.P,J2,3*%
%TO.N,Net-(U3-IN-)*%
X124060000Y-40520000D03*
%TD*%
D10*
%TO.P,J3,1*%
%TO.N,GND*%
X34387500Y-36120000D03*
%TO.P,J3,2*%
%TO.N,Net-(U4-SENSE+)*%
X42007500Y-36120000D03*
%TO.P,J3,3*%
%TO.N,Net-(U4-SENSE-)*%
X38197500Y-39930000D03*
D11*
%TO.P,J3,G*%
%TO.N,GND*%
X38197500Y-44375000D03*
%TD*%
D12*
%TO.P,J5,1,Pin_1*%
%TO.N,VIN+*%
X81429999Y-43129999D03*
D13*
%TO.P,J5,2,Pin_2*%
%TO.N,GND*%
X81429999Y-45669999D03*
%TO.P,J5,3,Pin_3*%
%TO.N,VIN-*%
X81429999Y-48209999D03*
%TD*%
D12*
%TO.P,J8,1,Pin_1*%
%TO.N,GND*%
X38939999Y-52819999D03*
D13*
%TO.P,J8,2,Pin_2*%
%TO.N,Net-(J8-Pin_2)*%
X41479999Y-52819999D03*
%TD*%
D12*
%TO.P,J6,1,Pin_1*%
%TO.N,GND*%
X128944999Y-53029999D03*
D13*
%TO.P,J6,2,Pin_2*%
%TO.N,Net-(J6-Pin_2)*%
X131484999Y-53029999D03*
%TD*%
D12*
%TO.P,J9,1,Pin_1*%
%TO.N,GND*%
X29339999Y-52639999D03*
D13*
%TO.P,J9,2,Pin_2*%
%TO.N,Net-(J9-Pin_2)*%
X31879999Y-52639999D03*
%TD*%
D12*
%TO.P,J7,1,Pin_1*%
%TO.N,GND*%
X109214999Y-52999999D03*
D13*
%TO.P,J7,2,Pin_2*%
%TO.N,Net-(J7-Pin_2)*%
X111754999Y-52999999D03*
%TD*%
D14*
%TO.N,GND*%
X42240000Y-45760000D03*
X26530000Y-54260000D03*
X31060000Y-43860000D03*
X49080000Y-35890000D03*
X51790000Y-42680000D03*
X51570000Y-53050000D03*
X59850000Y-54910000D03*
%TO.N,Net-(J8-Pin_2)*%
X43650000Y-39000000D03*
%TO.N,Net-(U1-SENSE-)*%
X52710000Y-34400000D03*
%TO.N,V+*%
X59930000Y-51470000D03*
X60381825Y-39719500D03*
D15*
X124980000Y-45450000D03*
X96310000Y-45500000D03*
%TO.N,GND*%
X104500000Y-51900000D03*
X135500000Y-37200000D03*
X82900000Y-52100000D03*
X110500000Y-37900000D03*
X84700000Y-46100000D03*
X120300000Y-50600000D03*
X81800000Y-36900000D03*
X96100000Y-52400000D03*
%TD*%
D16*
%TO.N,Net-(J8-Pin_2)*%
X43650000Y-50650000D02*
X43650000Y-39000000D01*
X41480000Y-52820000D02*
X43650000Y-50650000D01*
%TO.N,Net-(U1-SENSE-)*%
X65547500Y-36432500D02*
X65547500Y-39930000D01*
X65550000Y-36430000D02*
X65547500Y-36432500D01*
X53090000Y-34020000D02*
X63140000Y-34020000D01*
X52710000Y-34400000D02*
X53090000Y-34020000D01*
X63140000Y-34020000D02*
X65550000Y-36430000D01*
%TO.N,V+*%
X60210000Y-51470000D02*
X60770000Y-50910000D01*
D17*
X64520000Y-54660000D02*
X60770000Y-50910000D01*
D16*
X59930000Y-51470000D02*
X60210000Y-51470000D01*
D17*
X60770000Y-50910000D02*
X60381825Y-50521825D01*
X60381825Y-50521825D02*
X60381825Y-39719500D01*
X87150000Y-54660000D02*
X64520000Y-54660000D01*
X96310000Y-45500000D02*
X87150000Y-54660000D01*
X124930000Y-45500000D02*
X124980000Y-45450000D01*
X96310000Y-45500000D02*
X124930000Y-45500000D01*
%TD*%
%TA.AperFunction,Conductor*%
%TO.N,GND*%
G36*
X136958282Y-33596576D02*
G01*
X137003672Y-33641784D01*
X137020441Y-33703613D01*
X137059342Y-44605472D01*
X137098759Y-55652349D01*
X137099556Y-55875558D01*
X137083091Y-55937744D01*
X137037685Y-55983313D01*
X136975557Y-56000000D01*
X25124444Y-56000000D01*
X25062316Y-55983313D01*
X25016909Y-55937744D01*
X25000445Y-55875557D01*
X25008817Y-53534518D01*
X27990000Y-53534518D01*
X27990353Y-53541114D01*
X27995573Y-53589667D01*
X27999111Y-53604641D01*
X28043547Y-53723777D01*
X28051962Y-53739189D01*
X28127498Y-53840092D01*
X28139907Y-53852501D01*
X28240810Y-53928037D01*
X28256222Y-53936452D01*
X28375358Y-53980888D01*
X28390332Y-53984426D01*
X28438885Y-53989646D01*
X28445482Y-53990000D01*
X29073674Y-53990000D01*
X29086549Y-53986549D01*
X29090000Y-53973674D01*
X29590000Y-53973674D01*
X29593450Y-53986549D01*
X29606326Y-53990000D01*
X30234518Y-53990000D01*
X30241114Y-53989646D01*
X30289667Y-53984426D01*
X30304641Y-53980888D01*
X30423777Y-53936452D01*
X30439189Y-53928037D01*
X30540092Y-53852501D01*
X30552501Y-53840092D01*
X30628037Y-53739189D01*
X30636452Y-53723777D01*
X30682422Y-53600529D01*
X30717401Y-53550149D01*
X30772246Y-53522696D01*
X30833539Y-53524885D01*
X30886285Y-53556181D01*
X31008599Y-53678495D01*
X31013031Y-53681598D01*
X31013033Y-53681600D01*
X31056819Y-53712259D01*
X31202170Y-53814035D01*
X31416337Y-53913903D01*
X31421567Y-53915304D01*
X31421569Y-53915305D01*
X31436065Y-53919189D01*
X31644592Y-53975063D01*
X31880000Y-53995659D01*
X32115408Y-53975063D01*
X32343663Y-53913903D01*
X32557830Y-53814035D01*
X32699955Y-53714518D01*
X37590000Y-53714518D01*
X37590353Y-53721114D01*
X37595573Y-53769667D01*
X37599111Y-53784641D01*
X37643547Y-53903777D01*
X37651962Y-53919189D01*
X37727498Y-54020092D01*
X37739907Y-54032501D01*
X37840810Y-54108037D01*
X37856222Y-54116452D01*
X37975358Y-54160888D01*
X37990332Y-54164426D01*
X38038885Y-54169646D01*
X38045482Y-54170000D01*
X38673674Y-54170000D01*
X38686549Y-54166549D01*
X38690000Y-54153674D01*
X39190000Y-54153674D01*
X39193450Y-54166549D01*
X39206326Y-54170000D01*
X39834518Y-54170000D01*
X39841114Y-54169646D01*
X39889667Y-54164426D01*
X39904641Y-54160888D01*
X40023777Y-54116452D01*
X40039189Y-54108037D01*
X40140092Y-54032501D01*
X40152501Y-54020092D01*
X40228037Y-53919189D01*
X40236452Y-53903777D01*
X40282422Y-53780529D01*
X40317401Y-53730149D01*
X40372246Y-53702696D01*
X40433539Y-53704885D01*
X40486285Y-53736181D01*
X40608599Y-53858495D01*
X40613031Y-53861598D01*
X40613033Y-53861600D01*
X40719933Y-53936452D01*
X40802170Y-53994035D01*
X41016337Y-54093903D01*
X41244592Y-54155063D01*
X41480000Y-54175659D01*
X41715408Y-54155063D01*
X41943663Y-54093903D01*
X42157830Y-53994035D01*
X42351401Y-53858495D01*
X42518495Y-53691401D01*
X42654035Y-53497830D01*
X42753903Y-53283663D01*
X42815063Y-53055408D01*
X42835659Y-52820000D01*
X42815063Y-52584592D01*
X42810557Y-52567778D01*
X42810557Y-52503594D01*
X42842649Y-52448006D01*
X43820655Y-51470000D01*
X59024540Y-51470000D01*
X59025219Y-51476460D01*
X59043646Y-51651795D01*
X59043647Y-51651803D01*
X59044326Y-51658256D01*
X59046331Y-51664428D01*
X59046333Y-51664435D01*
X59090351Y-51799907D01*
X59102821Y-51838284D01*
X59106068Y-51843908D01*
X59106069Y-51843910D01*
X59173962Y-51961505D01*
X59197467Y-52002216D01*
X59201811Y-52007041D01*
X59201813Y-52007043D01*
X59319779Y-52138057D01*
X59324129Y-52142888D01*
X59477270Y-52254151D01*
X59650197Y-52331144D01*
X59835354Y-52370500D01*
X60018143Y-52370500D01*
X60024646Y-52370500D01*
X60209803Y-52331144D01*
X60382730Y-52254151D01*
X60480365Y-52183214D01*
X60533852Y-52161060D01*
X60591568Y-52165602D01*
X60640931Y-52195852D01*
X63802431Y-55357351D01*
X63804624Y-55359600D01*
X63864941Y-55423053D01*
X63870100Y-55426644D01*
X63870104Y-55426647D01*
X63913362Y-55456755D01*
X63920871Y-55462416D01*
X63966593Y-55499698D01*
X63972171Y-55502611D01*
X63972170Y-55502611D01*
X63993556Y-55513782D01*
X64006980Y-55521915D01*
X64031951Y-55539295D01*
X64086163Y-55562559D01*
X64094675Y-55566602D01*
X64131886Y-55586040D01*
X64146951Y-55593909D01*
X64176199Y-55602277D01*
X64190975Y-55607538D01*
X64218942Y-55619540D01*
X64276718Y-55631413D01*
X64285866Y-55633658D01*
X64342582Y-55649887D01*
X64372916Y-55652196D01*
X64388463Y-55654377D01*
X64412095Y-55659234D01*
X64412102Y-55659234D01*
X64418259Y-55660500D01*
X64477241Y-55660500D01*
X64486656Y-55660858D01*
X64545476Y-55665337D01*
X64575651Y-55661493D01*
X64591317Y-55660500D01*
X87135722Y-55660500D01*
X87138862Y-55660539D01*
X87226363Y-55662757D01*
X87284458Y-55652344D01*
X87293739Y-55651042D01*
X87352438Y-55645074D01*
X87381464Y-55635966D01*
X87396713Y-55632224D01*
X87426653Y-55626858D01*
X87481423Y-55604980D01*
X87490303Y-55601818D01*
X87546588Y-55584159D01*
X87573194Y-55569390D01*
X87587362Y-55562662D01*
X87615617Y-55551377D01*
X87664891Y-55518902D01*
X87672910Y-55514043D01*
X87724502Y-55485409D01*
X87735961Y-55475570D01*
X87747583Y-55465594D01*
X87760125Y-55456137D01*
X87785519Y-55439402D01*
X87827238Y-55397681D01*
X87834122Y-55391301D01*
X87878895Y-55352866D01*
X87897524Y-55328798D01*
X87907884Y-55317035D01*
X89330401Y-53894518D01*
X107865000Y-53894518D01*
X107865353Y-53901114D01*
X107870573Y-53949667D01*
X107874111Y-53964641D01*
X107918547Y-54083777D01*
X107926962Y-54099189D01*
X108002498Y-54200092D01*
X108014907Y-54212501D01*
X108115810Y-54288037D01*
X108131222Y-54296452D01*
X108250358Y-54340888D01*
X108265332Y-54344426D01*
X108313885Y-54349646D01*
X108320482Y-54350000D01*
X108948674Y-54350000D01*
X108961549Y-54346549D01*
X108965000Y-54333674D01*
X109465000Y-54333674D01*
X109468450Y-54346549D01*
X109481326Y-54350000D01*
X110109518Y-54350000D01*
X110116114Y-54349646D01*
X110164667Y-54344426D01*
X110179641Y-54340888D01*
X110298777Y-54296452D01*
X110314189Y-54288037D01*
X110415092Y-54212501D01*
X110427501Y-54200092D01*
X110503037Y-54099189D01*
X110511452Y-54083777D01*
X110557422Y-53960529D01*
X110592401Y-53910149D01*
X110647246Y-53882696D01*
X110708539Y-53884885D01*
X110761285Y-53916180D01*
X110883599Y-54038495D01*
X110888031Y-54041598D01*
X110888033Y-54041600D01*
X110926443Y-54068495D01*
X111077170Y-54174035D01*
X111291337Y-54273903D01*
X111519592Y-54335063D01*
X111755000Y-54355659D01*
X111990408Y-54335063D01*
X112218663Y-54273903D01*
X112432830Y-54174035D01*
X112626401Y-54038495D01*
X112740378Y-53924518D01*
X127595000Y-53924518D01*
X127595353Y-53931114D01*
X127600573Y-53979667D01*
X127604111Y-53994641D01*
X127648547Y-54113777D01*
X127656962Y-54129189D01*
X127732498Y-54230092D01*
X127744907Y-54242501D01*
X127845810Y-54318037D01*
X127861222Y-54326452D01*
X127980358Y-54370888D01*
X127995332Y-54374426D01*
X128043885Y-54379646D01*
X128050482Y-54380000D01*
X128678674Y-54380000D01*
X128691549Y-54376549D01*
X128695000Y-54363674D01*
X129195000Y-54363674D01*
X129198450Y-54376549D01*
X129211326Y-54380000D01*
X129839518Y-54380000D01*
X129846114Y-54379646D01*
X129894667Y-54374426D01*
X129909641Y-54370888D01*
X130028777Y-54326452D01*
X130044189Y-54318037D01*
X130145092Y-54242501D01*
X130157501Y-54230092D01*
X130233037Y-54129189D01*
X130241452Y-54113777D01*
X130287422Y-53990529D01*
X130322401Y-53940149D01*
X130377246Y-53912696D01*
X130438539Y-53914885D01*
X130491285Y-53946181D01*
X130613599Y-54068495D01*
X130618031Y-54071598D01*
X130618033Y-54071600D01*
X130700279Y-54129189D01*
X130807170Y-54204035D01*
X131021337Y-54303903D01*
X131249592Y-54365063D01*
X131485000Y-54385659D01*
X131720408Y-54365063D01*
X131948663Y-54303903D01*
X132162830Y-54204035D01*
X132356401Y-54068495D01*
X132523495Y-53901401D01*
X132659035Y-53707830D01*
X132758903Y-53493663D01*
X132820063Y-53265408D01*
X132840659Y-53030000D01*
X132820063Y-52794592D01*
X132758903Y-52566337D01*
X132659035Y-52352171D01*
X132523495Y-52158599D01*
X132356401Y-51991505D01*
X132351970Y-51988402D01*
X132351966Y-51988399D01*
X132167259Y-51859066D01*
X132167257Y-51859064D01*
X132162830Y-51855965D01*
X132157933Y-51853681D01*
X132157927Y-51853678D01*
X131953572Y-51758386D01*
X131953570Y-51758385D01*
X131948663Y-51756097D01*
X131943438Y-51754697D01*
X131943430Y-51754694D01*
X131725634Y-51696337D01*
X131725630Y-51696336D01*
X131720408Y-51694937D01*
X131715020Y-51694465D01*
X131715017Y-51694465D01*
X131490395Y-51674813D01*
X131485000Y-51674341D01*
X131479605Y-51674813D01*
X131254982Y-51694465D01*
X131254977Y-51694465D01*
X131249592Y-51694937D01*
X131244371Y-51696335D01*
X131244365Y-51696337D01*
X131026569Y-51754694D01*
X131026557Y-51754698D01*
X131021337Y-51756097D01*
X131016432Y-51758383D01*
X131016427Y-51758386D01*
X130812081Y-51853675D01*
X130812077Y-51853677D01*
X130807171Y-51855965D01*
X130802738Y-51859068D01*
X130802731Y-51859073D01*
X130618034Y-51988399D01*
X130618029Y-51988402D01*
X130613599Y-51991505D01*
X130609775Y-51995328D01*
X130609775Y-51995329D01*
X130491285Y-52113819D01*
X130438538Y-52145114D01*
X130377246Y-52147303D01*
X130322401Y-52119850D01*
X130287422Y-52069471D01*
X130241451Y-51946220D01*
X130233037Y-51930810D01*
X130157501Y-51829907D01*
X130145092Y-51817498D01*
X130044189Y-51741962D01*
X130028777Y-51733547D01*
X129909641Y-51689111D01*
X129894667Y-51685573D01*
X129846114Y-51680353D01*
X129839518Y-51680000D01*
X129211326Y-51680000D01*
X129198450Y-51683450D01*
X129195000Y-51696326D01*
X129195000Y-54363674D01*
X128695000Y-54363674D01*
X128695000Y-53296326D01*
X128691549Y-53283450D01*
X128678674Y-53280000D01*
X127611326Y-53280000D01*
X127598450Y-53283450D01*
X127595000Y-53296326D01*
X127595000Y-53924518D01*
X112740378Y-53924518D01*
X112793495Y-53871401D01*
X112929035Y-53677830D01*
X113028903Y-53463663D01*
X113090063Y-53235408D01*
X113110659Y-53000000D01*
X113090063Y-52764592D01*
X113089817Y-52763674D01*
X127595000Y-52763674D01*
X127598450Y-52776549D01*
X127611326Y-52780000D01*
X128678674Y-52780000D01*
X128691549Y-52776549D01*
X128695000Y-52763674D01*
X128695000Y-51696326D01*
X128691549Y-51683450D01*
X128678674Y-51680000D01*
X128050482Y-51680000D01*
X128043885Y-51680353D01*
X127995332Y-51685573D01*
X127980358Y-51689111D01*
X127861222Y-51733547D01*
X127845810Y-51741962D01*
X127744907Y-51817498D01*
X127732498Y-51829907D01*
X127656962Y-51930810D01*
X127648547Y-51946222D01*
X127604111Y-52065358D01*
X127600573Y-52080332D01*
X127595353Y-52128885D01*
X127595000Y-52135482D01*
X127595000Y-52763674D01*
X113089817Y-52763674D01*
X113028903Y-52536337D01*
X112929035Y-52322171D01*
X112793495Y-52128599D01*
X112626401Y-51961505D01*
X112621970Y-51958402D01*
X112621966Y-51958399D01*
X112437259Y-51829066D01*
X112437257Y-51829064D01*
X112432830Y-51825965D01*
X112427933Y-51823681D01*
X112427927Y-51823678D01*
X112223572Y-51728386D01*
X112223570Y-51728385D01*
X112218663Y-51726097D01*
X112213438Y-51724697D01*
X112213430Y-51724694D01*
X111995634Y-51666337D01*
X111995630Y-51666336D01*
X111990408Y-51664937D01*
X111985020Y-51664465D01*
X111985017Y-51664465D01*
X111760395Y-51644813D01*
X111755000Y-51644341D01*
X111749605Y-51644813D01*
X111524982Y-51664465D01*
X111524977Y-51664465D01*
X111519592Y-51664937D01*
X111514371Y-51666335D01*
X111514365Y-51666337D01*
X111296569Y-51724694D01*
X111296557Y-51724698D01*
X111291337Y-51726097D01*
X111286432Y-51728383D01*
X111286427Y-51728386D01*
X111082081Y-51823675D01*
X111082077Y-51823677D01*
X111077171Y-51825965D01*
X111072738Y-51829068D01*
X111072731Y-51829073D01*
X110888034Y-51958399D01*
X110888029Y-51958402D01*
X110883599Y-51961505D01*
X110879774Y-51965329D01*
X110879775Y-51965329D01*
X110761285Y-52083819D01*
X110708538Y-52115114D01*
X110647246Y-52117303D01*
X110592401Y-52089850D01*
X110557422Y-52039471D01*
X110511451Y-51916220D01*
X110503037Y-51900810D01*
X110427501Y-51799907D01*
X110415092Y-51787498D01*
X110314189Y-51711962D01*
X110298777Y-51703547D01*
X110179641Y-51659111D01*
X110164667Y-51655573D01*
X110116114Y-51650353D01*
X110109518Y-51650000D01*
X109481326Y-51650000D01*
X109468450Y-51653450D01*
X109465000Y-51666326D01*
X109465000Y-54333674D01*
X108965000Y-54333674D01*
X108965000Y-53266326D01*
X108961549Y-53253450D01*
X108948674Y-53250000D01*
X107881326Y-53250000D01*
X107868450Y-53253450D01*
X107865000Y-53266326D01*
X107865000Y-53894518D01*
X89330401Y-53894518D01*
X90491245Y-52733674D01*
X107865000Y-52733674D01*
X107868450Y-52746549D01*
X107881326Y-52750000D01*
X108948674Y-52750000D01*
X108961549Y-52746549D01*
X108965000Y-52733674D01*
X108965000Y-51666326D01*
X108961549Y-51653450D01*
X108948674Y-51650000D01*
X108320482Y-51650000D01*
X108313885Y-51650353D01*
X108265332Y-51655573D01*
X108250358Y-51659111D01*
X108131222Y-51703547D01*
X108115810Y-51711962D01*
X108014907Y-51787498D01*
X108002498Y-51799907D01*
X107926962Y-51900810D01*
X107918547Y-51916222D01*
X107874111Y-52035358D01*
X107870573Y-52050332D01*
X107865353Y-52098885D01*
X107865000Y-52105482D01*
X107865000Y-52733674D01*
X90491245Y-52733674D01*
X96688101Y-46536819D01*
X96728329Y-46509939D01*
X96775782Y-46500500D01*
X124915722Y-46500500D01*
X124918862Y-46500539D01*
X125006363Y-46502757D01*
X125064458Y-46492344D01*
X125073739Y-46491042D01*
X125132438Y-46485074D01*
X125161464Y-46475966D01*
X125176713Y-46472224D01*
X125206653Y-46466858D01*
X125261423Y-46444980D01*
X125270303Y-46441818D01*
X125326588Y-46424159D01*
X125353194Y-46409390D01*
X125367362Y-46402662D01*
X125395617Y-46391377D01*
X125444891Y-46358902D01*
X125452910Y-46354043D01*
X125504502Y-46325409D01*
X125521987Y-46310398D01*
X125527583Y-46305594D01*
X125540125Y-46296137D01*
X125565519Y-46279402D01*
X125607238Y-46237681D01*
X125614122Y-46231301D01*
X125658895Y-46192866D01*
X125662743Y-46187893D01*
X125667080Y-46183332D01*
X125667165Y-46183413D01*
X125681885Y-46168266D01*
X125690883Y-46160883D01*
X125721393Y-46123705D01*
X125722501Y-46122419D01*
X125723341Y-46121580D01*
X125754558Y-46083294D01*
X125815910Y-46008538D01*
X125816663Y-46007128D01*
X125819698Y-46003407D01*
X125864458Y-45917716D01*
X125864832Y-45917010D01*
X125908814Y-45834727D01*
X125909839Y-45831346D01*
X125910312Y-45830334D01*
X125910991Y-45828634D01*
X125913909Y-45823049D01*
X125939462Y-45733741D01*
X125940012Y-45731877D01*
X125966024Y-45646132D01*
X125966593Y-45640353D01*
X125967859Y-45635124D01*
X125968155Y-45633467D01*
X125969887Y-45627418D01*
X125976667Y-45538374D01*
X125976905Y-45535647D01*
X125985341Y-45450000D01*
X125984743Y-45443932D01*
X125984743Y-45437844D01*
X125985185Y-45437843D01*
X125985176Y-45437083D01*
X125985019Y-45437087D01*
X125984859Y-45430792D01*
X125985337Y-45424523D01*
X125974505Y-45339476D01*
X125974112Y-45335993D01*
X125966024Y-45253868D01*
X125964256Y-45248041D01*
X125963068Y-45242065D01*
X125963159Y-45242046D01*
X125960532Y-45229756D01*
X125959630Y-45222672D01*
X125933036Y-45144870D01*
X125931727Y-45140808D01*
X125908814Y-45065273D01*
X125905265Y-45058633D01*
X125897286Y-45040279D01*
X125895852Y-45036083D01*
X125895850Y-45036078D01*
X125893816Y-45030128D01*
X125874510Y-44997332D01*
X125853942Y-44962391D01*
X125851444Y-44957940D01*
X125818781Y-44896832D01*
X125818777Y-44896827D01*
X125815910Y-44891462D01*
X125812048Y-44886757D01*
X125812046Y-44886753D01*
X125808861Y-44882872D01*
X125797858Y-44867117D01*
X125793784Y-44860197D01*
X125793783Y-44860195D01*
X125790591Y-44854773D01*
X125774902Y-44837408D01*
X125740280Y-44799086D01*
X125736437Y-44794624D01*
X125724238Y-44779760D01*
X125690883Y-44739117D01*
X125679523Y-44729794D01*
X125666182Y-44717072D01*
X125654179Y-44703786D01*
X125649114Y-44700066D01*
X125649111Y-44700064D01*
X125596568Y-44661482D01*
X125591295Y-44657387D01*
X125543244Y-44617952D01*
X125543242Y-44617951D01*
X125538538Y-44614090D01*
X125522413Y-44605471D01*
X125507476Y-44596061D01*
X125495240Y-44587076D01*
X125495239Y-44587075D01*
X125490167Y-44583351D01*
X125480465Y-44578893D01*
X125428461Y-44554998D01*
X125421782Y-44551682D01*
X125370099Y-44524057D01*
X125370095Y-44524055D01*
X125364727Y-44521186D01*
X125358897Y-44519417D01*
X125358896Y-44519417D01*
X125343814Y-44514842D01*
X125328041Y-44508858D01*
X125310986Y-44501022D01*
X125310987Y-44501022D01*
X125305269Y-44498395D01*
X125299143Y-44496973D01*
X125299142Y-44496973D01*
X125242595Y-44483850D01*
X125234635Y-44481721D01*
X125181964Y-44465744D01*
X125181953Y-44465741D01*
X125176132Y-44463976D01*
X125170076Y-44463379D01*
X125170074Y-44463379D01*
X125150826Y-44461483D01*
X125134954Y-44458871D01*
X125113180Y-44453818D01*
X125113175Y-44453817D01*
X125107054Y-44452397D01*
X125100769Y-44452237D01*
X125100764Y-44452237D01*
X125046286Y-44450856D01*
X125037279Y-44450299D01*
X124986064Y-44445256D01*
X124986062Y-44445256D01*
X124980000Y-44444659D01*
X124973938Y-44445256D01*
X124973932Y-44445256D01*
X124951129Y-44447501D01*
X124935843Y-44448058D01*
X124909927Y-44447402D01*
X124909923Y-44447402D01*
X124903637Y-44447243D01*
X124867469Y-44453725D01*
X124847332Y-44457334D01*
X124837616Y-44458681D01*
X124789926Y-44463379D01*
X124789923Y-44463379D01*
X124783868Y-44463976D01*
X124778049Y-44465740D01*
X124778039Y-44465743D01*
X124752682Y-44473435D01*
X124738571Y-44476827D01*
X124709544Y-44482030D01*
X124709531Y-44482033D01*
X124703348Y-44483142D01*
X124697514Y-44485472D01*
X124697501Y-44485476D01*
X124684543Y-44490653D01*
X124638547Y-44499500D01*
X96365244Y-44499500D01*
X96353090Y-44498903D01*
X96310000Y-44494659D01*
X96303937Y-44495256D01*
X96303936Y-44495256D01*
X96281124Y-44497502D01*
X96265836Y-44498059D01*
X96239925Y-44497403D01*
X96239923Y-44497403D01*
X96233637Y-44497244D01*
X96227453Y-44498352D01*
X96227444Y-44498353D01*
X96177338Y-44507334D01*
X96167618Y-44508682D01*
X96117282Y-44513639D01*
X96117267Y-44513641D01*
X96113868Y-44513976D01*
X96112336Y-44514440D01*
X96107562Y-44514926D01*
X96101573Y-44516804D01*
X96101568Y-44516806D01*
X96078526Y-44524035D01*
X96063289Y-44527774D01*
X96039538Y-44532031D01*
X96039525Y-44532034D01*
X96033347Y-44533142D01*
X96027521Y-44535468D01*
X96027507Y-44535473D01*
X95983531Y-44553039D01*
X95973535Y-44556545D01*
X95956996Y-44561562D01*
X95925273Y-44571186D01*
X95922162Y-44572848D01*
X95921092Y-44573237D01*
X95919409Y-44573958D01*
X95913412Y-44575841D01*
X95907923Y-44578887D01*
X95907910Y-44578893D01*
X95886809Y-44590605D01*
X95872640Y-44597334D01*
X95850224Y-44606288D01*
X95850209Y-44606295D01*
X95844383Y-44608623D01*
X95839141Y-44612077D01*
X95839129Y-44612084D01*
X95802571Y-44636178D01*
X95792791Y-44641998D01*
X95756831Y-44661219D01*
X95756822Y-44661224D01*
X95751462Y-44664090D01*
X95746978Y-44667769D01*
X95742374Y-44670579D01*
X95740990Y-44671542D01*
X95735498Y-44674591D01*
X95730731Y-44678683D01*
X95730727Y-44678686D01*
X95712414Y-44694407D01*
X95699887Y-44703852D01*
X95679731Y-44717136D01*
X95679719Y-44717145D01*
X95674481Y-44720598D01*
X95670039Y-44725039D01*
X95670040Y-44725039D01*
X95641595Y-44753483D01*
X95632584Y-44761650D01*
X95603818Y-44785258D01*
X95603813Y-44785262D01*
X95599117Y-44789117D01*
X95595260Y-44793815D01*
X95590945Y-44798131D01*
X95590650Y-44797836D01*
X95590105Y-44798393D01*
X95590203Y-44798486D01*
X95585873Y-44803039D01*
X95581105Y-44807134D01*
X95577264Y-44812094D01*
X95577259Y-44812101D01*
X95562480Y-44831194D01*
X95552108Y-44842969D01*
X86771899Y-53623181D01*
X86731671Y-53650061D01*
X86684218Y-53659500D01*
X64985782Y-53659500D01*
X64938329Y-53650061D01*
X64898101Y-53623181D01*
X61549403Y-50274483D01*
X61549402Y-50274481D01*
X61418644Y-50143723D01*
X61391764Y-50103495D01*
X61382325Y-50056042D01*
X61382325Y-48210000D01*
X80074341Y-48210000D01*
X80094937Y-48445408D01*
X80096336Y-48450630D01*
X80096337Y-48450634D01*
X80154694Y-48668430D01*
X80154697Y-48668438D01*
X80156097Y-48673663D01*
X80158385Y-48678570D01*
X80158386Y-48678572D01*
X80253678Y-48882927D01*
X80253681Y-48882933D01*
X80255965Y-48887830D01*
X80259064Y-48892257D01*
X80259066Y-48892259D01*
X80388399Y-49076966D01*
X80388402Y-49076970D01*
X80391505Y-49081401D01*
X80558599Y-49248495D01*
X80752170Y-49384035D01*
X80966337Y-49483903D01*
X81194592Y-49545063D01*
X81430000Y-49565659D01*
X81665408Y-49545063D01*
X81893663Y-49483903D01*
X82107830Y-49384035D01*
X82301401Y-49248495D01*
X82468495Y-49081401D01*
X82604035Y-48887830D01*
X82703903Y-48673663D01*
X82765063Y-48445408D01*
X82785659Y-48210000D01*
X82765063Y-47974592D01*
X82703903Y-47746337D01*
X82604035Y-47532171D01*
X82468495Y-47338599D01*
X82301401Y-47171505D01*
X82296970Y-47168402D01*
X82296966Y-47168399D01*
X82115405Y-47041269D01*
X82076540Y-46996951D01*
X82062529Y-46939694D01*
X82076540Y-46882437D01*
X82115406Y-46838119D01*
X82296638Y-46711219D01*
X82304909Y-46704278D01*
X82464278Y-46544909D01*
X82471215Y-46536643D01*
X82600498Y-46352008D01*
X82605886Y-46342676D01*
X82701143Y-46138397D01*
X82704831Y-46128263D01*
X82756943Y-45933780D01*
X82757311Y-45922551D01*
X82746369Y-45920000D01*
X80113631Y-45920000D01*
X80102688Y-45922551D01*
X80103056Y-45933780D01*
X80155168Y-46128263D01*
X80158856Y-46138397D01*
X80254113Y-46342676D01*
X80259501Y-46352008D01*
X80388784Y-46536643D01*
X80395721Y-46544909D01*
X80555090Y-46704278D01*
X80563356Y-46711215D01*
X80744595Y-46838120D01*
X80783460Y-46882438D01*
X80797471Y-46939695D01*
X80783460Y-46996952D01*
X80744594Y-47041270D01*
X80563034Y-47168399D01*
X80563029Y-47168402D01*
X80558599Y-47171505D01*
X80554775Y-47175328D01*
X80554769Y-47175334D01*
X80395334Y-47334769D01*
X80395328Y-47334775D01*
X80391505Y-47338599D01*
X80388402Y-47343029D01*
X80388399Y-47343034D01*
X80259073Y-47527731D01*
X80259068Y-47527738D01*
X80255965Y-47532171D01*
X80253677Y-47537077D01*
X80253675Y-47537081D01*
X80158386Y-47741427D01*
X80158383Y-47741432D01*
X80156097Y-47746337D01*
X80154698Y-47751557D01*
X80154694Y-47751569D01*
X80096337Y-47969365D01*
X80096335Y-47969371D01*
X80094937Y-47974592D01*
X80074341Y-48210000D01*
X61382325Y-48210000D01*
X61382325Y-45918970D01*
X64362610Y-45918970D01*
X64370928Y-45930081D01*
X64487011Y-46016980D01*
X64494449Y-46021760D01*
X64731479Y-46151187D01*
X64739521Y-46154860D01*
X64992574Y-46249245D01*
X65001043Y-46251731D01*
X65264943Y-46309139D01*
X65273699Y-46310398D01*
X65543082Y-46329665D01*
X65551918Y-46329665D01*
X65821300Y-46310398D01*
X65830056Y-46309139D01*
X66093956Y-46251731D01*
X66102425Y-46249245D01*
X66355478Y-46154860D01*
X66363520Y-46151187D01*
X66600550Y-46021760D01*
X66607988Y-46016980D01*
X66724070Y-45930081D01*
X66732388Y-45918970D01*
X66725736Y-45906789D01*
X65559042Y-44740095D01*
X65547500Y-44733431D01*
X65535957Y-44740095D01*
X64369262Y-45906789D01*
X64362610Y-45918970D01*
X61382325Y-45918970D01*
X61382325Y-44379418D01*
X63592835Y-44379418D01*
X63612101Y-44648800D01*
X63613360Y-44657556D01*
X63670768Y-44921456D01*
X63673254Y-44929925D01*
X63767639Y-45182978D01*
X63771312Y-45191020D01*
X63900735Y-45428042D01*
X63905526Y-45435498D01*
X63992417Y-45551570D01*
X64003527Y-45559888D01*
X64015709Y-45553236D01*
X65182404Y-44386542D01*
X65189068Y-44375000D01*
X65905931Y-44375000D01*
X65912595Y-44386542D01*
X67079289Y-45553236D01*
X67091470Y-45559888D01*
X67102581Y-45551570D01*
X67189480Y-45435488D01*
X67194260Y-45428050D01*
X67323687Y-45191020D01*
X67327360Y-45182978D01*
X67421745Y-44929925D01*
X67424231Y-44921456D01*
X67481639Y-44657556D01*
X67482898Y-44648800D01*
X67502165Y-44379418D01*
X67502165Y-44370582D01*
X67482898Y-44101199D01*
X67481639Y-44092443D01*
X67466876Y-44024578D01*
X80079500Y-44024578D01*
X80079501Y-44027872D01*
X80079853Y-44031150D01*
X80079854Y-44031161D01*
X80085079Y-44079768D01*
X80085080Y-44079773D01*
X80085909Y-44087483D01*
X80088619Y-44094749D01*
X80088620Y-44094753D01*
X80122217Y-44184831D01*
X80136204Y-44222331D01*
X80222454Y-44337546D01*
X80337669Y-44423796D01*
X80469598Y-44473002D01*
X80519977Y-44507981D01*
X80547431Y-44562825D01*
X80545242Y-44624118D01*
X80513947Y-44676865D01*
X80395714Y-44795098D01*
X80388784Y-44803357D01*
X80259508Y-44987982D01*
X80254110Y-44997332D01*
X80158856Y-45201602D01*
X80155168Y-45211736D01*
X80103056Y-45406219D01*
X80102688Y-45417448D01*
X80113631Y-45420000D01*
X82746369Y-45420000D01*
X82757311Y-45417448D01*
X82756943Y-45406219D01*
X82704831Y-45211736D01*
X82701143Y-45201602D01*
X82605889Y-44997332D01*
X82600491Y-44987982D01*
X82471215Y-44803357D01*
X82464280Y-44795092D01*
X82346053Y-44676865D01*
X82314757Y-44624119D01*
X82312568Y-44562825D01*
X82340022Y-44507981D01*
X82390398Y-44473003D01*
X82522331Y-44423796D01*
X82637546Y-44337546D01*
X82723796Y-44222331D01*
X82774091Y-44087483D01*
X82780500Y-44027873D01*
X82780499Y-42232128D01*
X82774091Y-42172517D01*
X82723796Y-42037669D01*
X82637546Y-41922454D01*
X82522331Y-41836204D01*
X82426786Y-41800568D01*
X82394752Y-41788620D01*
X82394750Y-41788619D01*
X82387483Y-41785909D01*
X82379770Y-41785079D01*
X82379767Y-41785079D01*
X82331180Y-41779855D01*
X82331169Y-41779854D01*
X82327873Y-41779500D01*
X82324550Y-41779500D01*
X80535439Y-41779500D01*
X80535420Y-41779500D01*
X80532128Y-41779501D01*
X80528850Y-41779853D01*
X80528838Y-41779854D01*
X80480231Y-41785079D01*
X80480225Y-41785080D01*
X80472517Y-41785909D01*
X80465252Y-41788618D01*
X80465246Y-41788620D01*
X80345980Y-41833104D01*
X80345978Y-41833104D01*
X80337669Y-41836204D01*
X80330572Y-41841516D01*
X80330568Y-41841519D01*
X80229550Y-41917141D01*
X80229546Y-41917144D01*
X80222454Y-41922454D01*
X80217144Y-41929546D01*
X80217141Y-41929550D01*
X80141519Y-42030568D01*
X80141516Y-42030572D01*
X80136204Y-42037669D01*
X80133104Y-42045978D01*
X80133104Y-42045980D01*
X80088620Y-42165247D01*
X80088619Y-42165250D01*
X80085909Y-42172517D01*
X80085079Y-42180227D01*
X80085079Y-42180232D01*
X80079855Y-42228819D01*
X80079854Y-42228831D01*
X80079500Y-42232127D01*
X80079500Y-42235448D01*
X80079500Y-42235449D01*
X80079500Y-44024560D01*
X80079500Y-44024578D01*
X67466876Y-44024578D01*
X67424231Y-43828543D01*
X67421745Y-43820074D01*
X67327360Y-43567021D01*
X67323687Y-43558979D01*
X67194260Y-43321949D01*
X67189480Y-43314511D01*
X67102581Y-43198428D01*
X67091470Y-43190110D01*
X67079289Y-43196762D01*
X65912595Y-44363457D01*
X65905931Y-44375000D01*
X65189068Y-44375000D01*
X65182404Y-44363457D01*
X64012529Y-43193582D01*
X64003354Y-43187685D01*
X63995113Y-43194826D01*
X63905526Y-43314501D01*
X63900735Y-43321957D01*
X63771312Y-43558979D01*
X63767639Y-43567021D01*
X63673254Y-43820074D01*
X63670768Y-43828543D01*
X63613360Y-44092443D01*
X63612101Y-44101199D01*
X63592835Y-44370582D01*
X63592835Y-44379418D01*
X61382325Y-44379418D01*
X61382325Y-42830854D01*
X64360185Y-42830854D01*
X64366082Y-42840029D01*
X65535957Y-44009904D01*
X65547500Y-44016568D01*
X65559042Y-44009904D01*
X66725736Y-42843209D01*
X66732388Y-42831027D01*
X66724070Y-42819917D01*
X66607998Y-42733026D01*
X66600542Y-42728235D01*
X66363520Y-42598812D01*
X66355478Y-42595139D01*
X66102425Y-42500754D01*
X66093956Y-42498268D01*
X65830056Y-42440860D01*
X65821300Y-42439601D01*
X65551918Y-42420335D01*
X65543082Y-42420335D01*
X65273699Y-42439601D01*
X65264943Y-42440860D01*
X65001043Y-42498268D01*
X64992574Y-42500754D01*
X64739521Y-42595139D01*
X64731479Y-42598812D01*
X64494457Y-42728235D01*
X64487001Y-42733026D01*
X64367326Y-42822613D01*
X64360185Y-42830854D01*
X61382325Y-42830854D01*
X61382325Y-39671900D01*
X61382325Y-39668758D01*
X61366899Y-39517062D01*
X61305984Y-39322912D01*
X61207234Y-39144998D01*
X61074691Y-38990605D01*
X61069721Y-38986758D01*
X61069718Y-38986755D01*
X60984667Y-38920921D01*
X60913783Y-38866052D01*
X60908137Y-38863282D01*
X60908133Y-38863280D01*
X60736740Y-38779208D01*
X60736735Y-38779206D01*
X60731096Y-38776440D01*
X60725012Y-38774864D01*
X60725010Y-38774864D01*
X60540190Y-38727011D01*
X60540187Y-38727010D01*
X60534110Y-38725437D01*
X60527841Y-38725119D01*
X60527834Y-38725118D01*
X60337170Y-38715449D01*
X60337164Y-38715449D01*
X60330889Y-38715131D01*
X60324677Y-38716082D01*
X60324670Y-38716083D01*
X60135968Y-38744991D01*
X60135958Y-38744993D01*
X60129754Y-38745944D01*
X60123865Y-38748124D01*
X60123857Y-38748127D01*
X59944838Y-38814428D01*
X59944830Y-38814431D01*
X59938938Y-38816614D01*
X59933604Y-38819938D01*
X59933597Y-38819942D01*
X59771590Y-38920921D01*
X59771582Y-38920926D01*
X59766254Y-38924248D01*
X59761700Y-38928576D01*
X59761696Y-38928580D01*
X59623328Y-39060109D01*
X59623322Y-39060115D01*
X59618772Y-39064441D01*
X59615182Y-39069598D01*
X59615181Y-39069600D01*
X59506120Y-39226292D01*
X59506117Y-39226297D01*
X59502530Y-39231451D01*
X59500054Y-39237219D01*
X59500052Y-39237224D01*
X59424764Y-39412663D01*
X59424761Y-39412671D01*
X59422285Y-39418442D01*
X59421019Y-39424600D01*
X59421019Y-39424602D01*
X59382590Y-39611600D01*
X59382589Y-39611606D01*
X59381325Y-39617759D01*
X59381325Y-39624047D01*
X59381325Y-50507547D01*
X59381285Y-50510687D01*
X59379068Y-50598188D01*
X59380176Y-50604373D01*
X59380177Y-50604379D01*
X59389473Y-50656245D01*
X59390783Y-50665583D01*
X59391438Y-50672028D01*
X59381267Y-50735192D01*
X59340963Y-50784879D01*
X59329391Y-50793287D01*
X59329380Y-50793296D01*
X59324129Y-50797112D01*
X59319785Y-50801935D01*
X59319782Y-50801939D01*
X59201813Y-50932956D01*
X59201808Y-50932962D01*
X59197467Y-50937784D01*
X59194222Y-50943404D01*
X59194218Y-50943410D01*
X59106069Y-51096089D01*
X59106066Y-51096094D01*
X59102821Y-51101716D01*
X59100815Y-51107888D01*
X59100813Y-51107894D01*
X59046333Y-51275564D01*
X59046331Y-51275573D01*
X59044326Y-51281744D01*
X59043648Y-51288194D01*
X59043646Y-51288204D01*
X59029007Y-51427498D01*
X59024540Y-51470000D01*
X43820655Y-51470000D01*
X44127731Y-51162924D01*
X44133151Y-51157822D01*
X44178183Y-51117929D01*
X44212362Y-51068410D01*
X44216779Y-51062407D01*
X44253877Y-51015057D01*
X44258030Y-51005826D01*
X44269058Y-50986272D01*
X44274818Y-50977930D01*
X44296149Y-50921680D01*
X44299014Y-50914766D01*
X44320614Y-50866776D01*
X44320614Y-50866773D01*
X44323694Y-50859932D01*
X44325518Y-50849974D01*
X44331548Y-50828340D01*
X44335140Y-50818872D01*
X44342389Y-50759165D01*
X44343516Y-50751762D01*
X44345558Y-50740620D01*
X44354357Y-50692606D01*
X44350726Y-50632578D01*
X44350500Y-50625091D01*
X44350500Y-39615392D01*
X44358749Y-39570920D01*
X44375703Y-39543279D01*
X44374363Y-39542306D01*
X44378184Y-39537045D01*
X44382533Y-39532216D01*
X44477179Y-39368284D01*
X44535674Y-39188256D01*
X44555460Y-39000000D01*
X44535674Y-38811744D01*
X44477179Y-38631716D01*
X44382533Y-38467784D01*
X44255871Y-38327112D01*
X44250613Y-38323292D01*
X44250611Y-38323290D01*
X44107988Y-38219669D01*
X44107987Y-38219668D01*
X44102730Y-38215849D01*
X44096792Y-38213205D01*
X43935745Y-38141501D01*
X43935740Y-38141499D01*
X43929803Y-38138856D01*
X43923444Y-38137504D01*
X43923440Y-38137503D01*
X43751008Y-38100852D01*
X43751005Y-38100851D01*
X43744646Y-38099500D01*
X43555354Y-38099500D01*
X43548996Y-38100851D01*
X43548990Y-38100852D01*
X43380705Y-38136622D01*
X43313226Y-38132111D01*
X43258150Y-38092862D01*
X43231861Y-38030550D01*
X43242179Y-37963712D01*
X43286032Y-37912231D01*
X43349954Y-37869520D01*
X43379069Y-37843987D01*
X60372248Y-37843987D01*
X60379681Y-37855379D01*
X60392300Y-37866445D01*
X60398731Y-37871379D01*
X60631765Y-38027089D01*
X60638780Y-38031139D01*
X60890148Y-38155100D01*
X60897637Y-38158201D01*
X61163021Y-38248287D01*
X61170868Y-38250390D01*
X61445743Y-38305065D01*
X61453779Y-38306123D01*
X61733442Y-38324454D01*
X61741558Y-38324454D01*
X62021220Y-38306123D01*
X62029256Y-38305065D01*
X62304131Y-38250390D01*
X62311978Y-38248287D01*
X62577362Y-38158201D01*
X62584851Y-38155100D01*
X62836219Y-38031139D01*
X62843234Y-38027089D01*
X63076269Y-37871379D01*
X63082703Y-37866442D01*
X63095317Y-37855379D01*
X63102750Y-37843987D01*
X63096075Y-37832129D01*
X61749042Y-36485095D01*
X61737500Y-36478431D01*
X61725957Y-36485095D01*
X60378922Y-37832130D01*
X60372248Y-37843987D01*
X43379069Y-37843987D01*
X43566827Y-37679327D01*
X43757020Y-37462454D01*
X43917278Y-37222611D01*
X44044859Y-36963902D01*
X44137581Y-36690753D01*
X44193856Y-36407839D01*
X44212722Y-36120000D01*
X44193856Y-35832161D01*
X44137581Y-35549247D01*
X44044859Y-35276098D01*
X43917278Y-35017389D01*
X43757020Y-34777546D01*
X43754342Y-34774493D01*
X43754338Y-34774487D01*
X43569500Y-34563721D01*
X43566827Y-34560673D01*
X43392587Y-34407868D01*
X43353012Y-34373161D01*
X43353004Y-34373155D01*
X43349954Y-34370480D01*
X43296286Y-34334620D01*
X43113485Y-34212476D01*
X43113480Y-34212473D01*
X43110111Y-34210222D01*
X43106475Y-34208429D01*
X43106470Y-34208426D01*
X42855044Y-34084437D01*
X42855043Y-34084436D01*
X42851402Y-34082641D01*
X42847555Y-34081335D01*
X42582097Y-33991223D01*
X42582084Y-33991219D01*
X42578253Y-33989919D01*
X42574276Y-33989128D01*
X42574269Y-33989126D01*
X42299318Y-33934435D01*
X42299310Y-33934434D01*
X42295339Y-33933644D01*
X42007500Y-33914778D01*
X42003457Y-33915043D01*
X41723703Y-33933379D01*
X41723701Y-33933379D01*
X41719661Y-33933644D01*
X41715690Y-33934433D01*
X41715681Y-33934435D01*
X41440730Y-33989126D01*
X41440719Y-33989128D01*
X41436747Y-33989919D01*
X41432918Y-33991218D01*
X41432902Y-33991223D01*
X41167444Y-34081335D01*
X41167437Y-34081337D01*
X41163598Y-34082641D01*
X41159961Y-34084434D01*
X41159955Y-34084437D01*
X40908529Y-34208426D01*
X40908517Y-34208432D01*
X40904889Y-34210222D01*
X40901526Y-34212468D01*
X40901514Y-34212476D01*
X40668427Y-34368220D01*
X40668418Y-34368226D01*
X40665046Y-34370480D01*
X40662002Y-34373149D01*
X40661987Y-34373161D01*
X40451221Y-34557999D01*
X40451213Y-34558006D01*
X40448173Y-34560673D01*
X40445506Y-34563713D01*
X40445499Y-34563721D01*
X40260661Y-34774487D01*
X40260649Y-34774502D01*
X40257980Y-34777546D01*
X40255726Y-34780918D01*
X40255720Y-34780927D01*
X40099976Y-35014014D01*
X40099968Y-35014026D01*
X40097722Y-35017389D01*
X40095932Y-35021017D01*
X40095926Y-35021029D01*
X39971937Y-35272455D01*
X39971934Y-35272461D01*
X39970141Y-35276098D01*
X39968837Y-35279937D01*
X39968835Y-35279944D01*
X39878723Y-35545402D01*
X39878718Y-35545418D01*
X39877419Y-35549247D01*
X39876628Y-35553219D01*
X39876626Y-35553230D01*
X39821935Y-35828181D01*
X39821933Y-35828190D01*
X39821144Y-35832161D01*
X39802278Y-36120000D01*
X39821144Y-36407839D01*
X39821934Y-36411810D01*
X39821935Y-36411818D01*
X39876626Y-36686769D01*
X39876628Y-36686776D01*
X39877419Y-36690753D01*
X39878719Y-36694584D01*
X39878723Y-36694597D01*
X39968835Y-36960055D01*
X39970141Y-36963902D01*
X39971936Y-36967543D01*
X39971937Y-36967544D01*
X40095802Y-37218719D01*
X40097722Y-37222611D01*
X40257980Y-37462454D01*
X40260655Y-37465504D01*
X40260661Y-37465512D01*
X40401650Y-37626278D01*
X40448173Y-37679327D01*
X40451221Y-37682000D01*
X40661987Y-37866838D01*
X40661993Y-37866842D01*
X40665046Y-37869520D01*
X40699649Y-37892641D01*
X40900864Y-38027089D01*
X40904889Y-38029778D01*
X41163598Y-38157359D01*
X41335903Y-38215849D01*
X41432902Y-38248776D01*
X41432904Y-38248776D01*
X41436747Y-38250081D01*
X41719661Y-38306356D01*
X42007500Y-38325222D01*
X42295339Y-38306356D01*
X42578253Y-38250081D01*
X42851402Y-38157359D01*
X42894094Y-38136305D01*
X42960604Y-38124067D01*
X43023647Y-38148550D01*
X43064466Y-38202473D01*
X43070920Y-38269794D01*
X43041087Y-38330489D01*
X42921814Y-38462955D01*
X42921809Y-38462961D01*
X42917467Y-38467784D01*
X42914222Y-38473404D01*
X42914218Y-38473410D01*
X42826069Y-38626089D01*
X42826066Y-38626094D01*
X42822821Y-38631716D01*
X42820815Y-38637888D01*
X42820813Y-38637894D01*
X42766333Y-38805564D01*
X42766331Y-38805573D01*
X42764326Y-38811744D01*
X42763648Y-38818194D01*
X42763646Y-38818204D01*
X42752046Y-38928580D01*
X42744540Y-39000000D01*
X42745219Y-39006460D01*
X42763646Y-39181795D01*
X42763647Y-39181803D01*
X42764326Y-39188256D01*
X42766331Y-39194428D01*
X42766333Y-39194435D01*
X42820813Y-39362105D01*
X42822821Y-39368284D01*
X42917467Y-39532216D01*
X42921813Y-39537043D01*
X42925637Y-39542306D01*
X42924296Y-39543279D01*
X42941251Y-39570920D01*
X42949500Y-39615392D01*
X42949500Y-50308481D01*
X42940061Y-50355934D01*
X42913181Y-50396162D01*
X41851994Y-51457347D01*
X41796410Y-51489440D01*
X41732226Y-51489443D01*
X41720633Y-51486337D01*
X41715408Y-51484937D01*
X41710014Y-51484465D01*
X41485395Y-51464813D01*
X41480000Y-51464341D01*
X41474605Y-51464813D01*
X41249982Y-51484465D01*
X41249977Y-51484465D01*
X41244592Y-51484937D01*
X41239371Y-51486335D01*
X41239365Y-51486337D01*
X41021569Y-51544694D01*
X41021557Y-51544698D01*
X41016337Y-51546097D01*
X41011432Y-51548383D01*
X41011427Y-51548386D01*
X40807081Y-51643675D01*
X40807077Y-51643677D01*
X40802171Y-51645965D01*
X40797738Y-51649068D01*
X40797731Y-51649073D01*
X40613034Y-51778399D01*
X40613029Y-51778402D01*
X40608599Y-51781505D01*
X40604775Y-51785328D01*
X40604775Y-51785329D01*
X40486285Y-51903819D01*
X40433538Y-51935114D01*
X40372246Y-51937303D01*
X40317401Y-51909850D01*
X40282422Y-51859471D01*
X40236451Y-51736220D01*
X40228037Y-51720810D01*
X40152501Y-51619907D01*
X40140092Y-51607498D01*
X40039189Y-51531962D01*
X40023777Y-51523547D01*
X39904641Y-51479111D01*
X39889667Y-51475573D01*
X39841114Y-51470353D01*
X39834518Y-51470000D01*
X39206326Y-51470000D01*
X39193450Y-51473450D01*
X39190000Y-51486326D01*
X39190000Y-54153674D01*
X38690000Y-54153674D01*
X38690000Y-53086326D01*
X38686549Y-53073450D01*
X38673674Y-53070000D01*
X37606326Y-53070000D01*
X37593450Y-53073450D01*
X37590000Y-53086326D01*
X37590000Y-53714518D01*
X32699955Y-53714518D01*
X32751401Y-53678495D01*
X32918495Y-53511401D01*
X33054035Y-53317830D01*
X33153903Y-53103663D01*
X33215063Y-52875408D01*
X33235659Y-52640000D01*
X33228106Y-52553674D01*
X37590000Y-52553674D01*
X37593450Y-52566549D01*
X37606326Y-52570000D01*
X38673674Y-52570000D01*
X38686549Y-52566549D01*
X38690000Y-52553674D01*
X38690000Y-51486326D01*
X38686549Y-51473450D01*
X38673674Y-51470000D01*
X38045482Y-51470000D01*
X38038885Y-51470353D01*
X37990332Y-51475573D01*
X37975358Y-51479111D01*
X37856222Y-51523547D01*
X37840810Y-51531962D01*
X37739907Y-51607498D01*
X37727498Y-51619907D01*
X37651962Y-51720810D01*
X37643547Y-51736222D01*
X37599111Y-51855358D01*
X37595573Y-51870332D01*
X37590353Y-51918885D01*
X37590000Y-51925482D01*
X37590000Y-52553674D01*
X33228106Y-52553674D01*
X33215063Y-52404592D01*
X33153903Y-52176337D01*
X33054035Y-51962171D01*
X32918495Y-51768599D01*
X32751401Y-51601505D01*
X32746970Y-51598402D01*
X32746966Y-51598399D01*
X32562259Y-51469066D01*
X32562257Y-51469064D01*
X32557830Y-51465965D01*
X32552933Y-51463681D01*
X32552927Y-51463678D01*
X32348572Y-51368386D01*
X32348570Y-51368385D01*
X32343663Y-51366097D01*
X32338438Y-51364697D01*
X32338430Y-51364694D01*
X32120634Y-51306337D01*
X32120630Y-51306336D01*
X32115408Y-51304937D01*
X32110020Y-51304465D01*
X32110017Y-51304465D01*
X31885395Y-51284813D01*
X31880000Y-51284341D01*
X31874605Y-51284813D01*
X31649982Y-51304465D01*
X31649977Y-51304465D01*
X31644592Y-51304937D01*
X31639371Y-51306335D01*
X31639365Y-51306337D01*
X31421569Y-51364694D01*
X31421557Y-51364698D01*
X31416337Y-51366097D01*
X31411432Y-51368383D01*
X31411427Y-51368386D01*
X31207081Y-51463675D01*
X31207077Y-51463677D01*
X31202171Y-51465965D01*
X31197738Y-51469068D01*
X31197731Y-51469073D01*
X31013034Y-51598399D01*
X31013029Y-51598402D01*
X31008599Y-51601505D01*
X31004774Y-51605329D01*
X31004775Y-51605329D01*
X30886285Y-51723819D01*
X30833538Y-51755114D01*
X30772246Y-51757303D01*
X30717401Y-51729850D01*
X30682422Y-51679471D01*
X30636451Y-51556220D01*
X30628037Y-51540810D01*
X30552501Y-51439907D01*
X30540092Y-51427498D01*
X30439189Y-51351962D01*
X30423777Y-51343547D01*
X30304641Y-51299111D01*
X30289667Y-51295573D01*
X30241114Y-51290353D01*
X30234518Y-51290000D01*
X29606326Y-51290000D01*
X29593450Y-51293450D01*
X29590000Y-51306326D01*
X29590000Y-53973674D01*
X29090000Y-53973674D01*
X29090000Y-52906326D01*
X29086549Y-52893450D01*
X29073674Y-52890000D01*
X28006326Y-52890000D01*
X27993450Y-52893450D01*
X27990000Y-52906326D01*
X27990000Y-53534518D01*
X25008817Y-53534518D01*
X25012968Y-52373674D01*
X27990000Y-52373674D01*
X27993450Y-52386549D01*
X28006326Y-52390000D01*
X29073674Y-52390000D01*
X29086549Y-52386549D01*
X29090000Y-52373674D01*
X29090000Y-51306326D01*
X29086549Y-51293450D01*
X29073674Y-51290000D01*
X28445482Y-51290000D01*
X28438885Y-51290353D01*
X28390332Y-51295573D01*
X28375358Y-51299111D01*
X28256222Y-51343547D01*
X28240810Y-51351962D01*
X28139907Y-51427498D01*
X28127498Y-51439907D01*
X28051962Y-51540810D01*
X28043547Y-51556222D01*
X27999111Y-51675358D01*
X27995573Y-51690332D01*
X27990353Y-51738885D01*
X27990000Y-51745482D01*
X27990000Y-52373674D01*
X25012968Y-52373674D01*
X25036051Y-45918970D01*
X37012610Y-45918970D01*
X37020928Y-45930081D01*
X37137011Y-46016980D01*
X37144449Y-46021760D01*
X37381479Y-46151187D01*
X37389521Y-46154860D01*
X37642574Y-46249245D01*
X37651043Y-46251731D01*
X37914943Y-46309139D01*
X37923699Y-46310398D01*
X38193082Y-46329665D01*
X38201918Y-46329665D01*
X38471300Y-46310398D01*
X38480056Y-46309139D01*
X38743956Y-46251731D01*
X38752425Y-46249245D01*
X39005478Y-46154860D01*
X39013520Y-46151187D01*
X39250550Y-46021760D01*
X39257988Y-46016980D01*
X39374070Y-45930081D01*
X39382388Y-45918970D01*
X39375736Y-45906789D01*
X38209042Y-44740095D01*
X38197500Y-44733431D01*
X38185957Y-44740095D01*
X37019262Y-45906789D01*
X37012610Y-45918970D01*
X25036051Y-45918970D01*
X25041557Y-44379418D01*
X36242835Y-44379418D01*
X36262101Y-44648800D01*
X36263360Y-44657556D01*
X36320768Y-44921456D01*
X36323254Y-44929925D01*
X36417639Y-45182978D01*
X36421312Y-45191020D01*
X36550735Y-45428042D01*
X36555526Y-45435498D01*
X36642417Y-45551570D01*
X36653527Y-45559888D01*
X36665709Y-45553236D01*
X37832404Y-44386542D01*
X37839068Y-44375000D01*
X38555931Y-44375000D01*
X38562595Y-44386542D01*
X39729289Y-45553236D01*
X39741470Y-45559888D01*
X39752581Y-45551570D01*
X39839480Y-45435488D01*
X39844260Y-45428050D01*
X39973687Y-45191020D01*
X39977360Y-45182978D01*
X40071745Y-44929925D01*
X40074231Y-44921456D01*
X40131639Y-44657556D01*
X40132898Y-44648800D01*
X40152165Y-44379418D01*
X40152165Y-44370582D01*
X40132898Y-44101199D01*
X40131639Y-44092443D01*
X40074231Y-43828543D01*
X40071745Y-43820074D01*
X39977360Y-43567021D01*
X39973687Y-43558979D01*
X39844260Y-43321949D01*
X39839480Y-43314511D01*
X39752581Y-43198428D01*
X39741470Y-43190110D01*
X39729289Y-43196762D01*
X38562595Y-44363457D01*
X38555931Y-44375000D01*
X37839068Y-44375000D01*
X37832404Y-44363457D01*
X36662529Y-43193582D01*
X36653354Y-43187685D01*
X36645113Y-43194826D01*
X36555526Y-43314501D01*
X36550735Y-43321957D01*
X36421312Y-43558979D01*
X36417639Y-43567021D01*
X36323254Y-43820074D01*
X36320768Y-43828543D01*
X36263360Y-44092443D01*
X36262101Y-44101199D01*
X36242835Y-44370582D01*
X36242835Y-44379418D01*
X25041557Y-44379418D01*
X25047095Y-42830854D01*
X37010185Y-42830854D01*
X37016082Y-42840029D01*
X38185957Y-44009904D01*
X38197500Y-44016568D01*
X38209042Y-44009904D01*
X39375736Y-42843209D01*
X39382388Y-42831027D01*
X39374070Y-42819917D01*
X39257998Y-42733026D01*
X39250542Y-42728235D01*
X39013520Y-42598812D01*
X39005478Y-42595139D01*
X38752425Y-42500754D01*
X38743956Y-42498268D01*
X38480056Y-42440860D01*
X38471300Y-42439601D01*
X38201918Y-42420335D01*
X38193082Y-42420335D01*
X37923699Y-42439601D01*
X37914943Y-42440860D01*
X37651043Y-42498268D01*
X37642574Y-42500754D01*
X37389521Y-42595139D01*
X37381479Y-42598812D01*
X37144457Y-42728235D01*
X37137001Y-42733026D01*
X37017326Y-42822613D01*
X37010185Y-42830854D01*
X25047095Y-42830854D01*
X25057469Y-39930000D01*
X35992278Y-39930000D01*
X36011144Y-40217839D01*
X36011934Y-40221810D01*
X36011935Y-40221818D01*
X36066626Y-40496769D01*
X36066628Y-40496776D01*
X36067419Y-40500753D01*
X36068719Y-40504584D01*
X36068723Y-40504597D01*
X36158835Y-40770055D01*
X36160141Y-40773902D01*
X36287722Y-41032611D01*
X36447980Y-41272454D01*
X36450655Y-41275504D01*
X36450661Y-41275512D01*
X36635499Y-41486278D01*
X36638173Y-41489327D01*
X36641221Y-41492000D01*
X36851987Y-41676838D01*
X36851993Y-41676842D01*
X36855046Y-41679520D01*
X37094889Y-41839778D01*
X37353598Y-41967359D01*
X37539805Y-42030568D01*
X37622902Y-42058776D01*
X37622904Y-42058776D01*
X37626747Y-42060081D01*
X37909661Y-42116356D01*
X38197500Y-42135222D01*
X38485339Y-42116356D01*
X38768253Y-42060081D01*
X39041402Y-41967359D01*
X39300111Y-41839778D01*
X39539954Y-41679520D01*
X39756827Y-41489327D01*
X39947020Y-41272454D01*
X40107278Y-41032611D01*
X40234859Y-40773902D01*
X40327581Y-40500753D01*
X40383856Y-40217839D01*
X40402722Y-39930000D01*
X40383856Y-39642161D01*
X40327581Y-39359247D01*
X40234859Y-39086098D01*
X40107278Y-38827389D01*
X40075084Y-38779208D01*
X39949279Y-38590927D01*
X39947020Y-38587546D01*
X39944342Y-38584493D01*
X39944338Y-38584487D01*
X39759500Y-38373721D01*
X39756827Y-38370673D01*
X39711006Y-38330489D01*
X39543012Y-38183161D01*
X39543004Y-38183155D01*
X39539954Y-38180480D01*
X39502662Y-38155562D01*
X39303485Y-38022476D01*
X39303480Y-38022473D01*
X39300111Y-38020222D01*
X39296475Y-38018429D01*
X39296470Y-38018426D01*
X39045044Y-37894437D01*
X39045043Y-37894436D01*
X39041402Y-37892641D01*
X39037555Y-37891335D01*
X38772097Y-37801223D01*
X38772084Y-37801219D01*
X38768253Y-37799919D01*
X38764276Y-37799128D01*
X38764269Y-37799126D01*
X38489318Y-37744435D01*
X38489310Y-37744434D01*
X38485339Y-37743644D01*
X38197500Y-37724778D01*
X38193457Y-37725043D01*
X37913703Y-37743379D01*
X37913701Y-37743379D01*
X37909661Y-37743644D01*
X37905690Y-37744433D01*
X37905681Y-37744435D01*
X37630730Y-37799126D01*
X37630719Y-37799128D01*
X37626747Y-37799919D01*
X37622918Y-37801218D01*
X37622902Y-37801223D01*
X37357444Y-37891335D01*
X37357437Y-37891337D01*
X37353598Y-37892641D01*
X37349961Y-37894434D01*
X37349955Y-37894437D01*
X37098529Y-38018426D01*
X37098517Y-38018432D01*
X37094889Y-38020222D01*
X37091526Y-38022468D01*
X37091514Y-38022476D01*
X36858427Y-38178220D01*
X36858418Y-38178226D01*
X36855046Y-38180480D01*
X36852002Y-38183149D01*
X36851987Y-38183161D01*
X36641221Y-38367999D01*
X36641213Y-38368006D01*
X36638173Y-38370673D01*
X36635506Y-38373713D01*
X36635499Y-38373721D01*
X36450661Y-38584487D01*
X36450649Y-38584502D01*
X36447980Y-38587546D01*
X36445726Y-38590918D01*
X36445720Y-38590927D01*
X36289976Y-38824014D01*
X36289968Y-38824026D01*
X36287722Y-38827389D01*
X36285932Y-38831017D01*
X36285926Y-38831029D01*
X36161937Y-39082455D01*
X36161934Y-39082461D01*
X36160141Y-39086098D01*
X36158837Y-39089937D01*
X36158835Y-39089944D01*
X36068723Y-39355402D01*
X36068718Y-39355418D01*
X36067419Y-39359247D01*
X36066628Y-39363219D01*
X36066626Y-39363230D01*
X36011935Y-39638181D01*
X36011933Y-39638190D01*
X36011144Y-39642161D01*
X36010879Y-39646201D01*
X36010879Y-39646203D01*
X36006851Y-39707663D01*
X35992278Y-39930000D01*
X25057469Y-39930000D01*
X25064929Y-37843987D01*
X33022248Y-37843987D01*
X33029681Y-37855379D01*
X33042300Y-37866445D01*
X33048731Y-37871379D01*
X33281765Y-38027089D01*
X33288780Y-38031139D01*
X33540148Y-38155100D01*
X33547637Y-38158201D01*
X33813021Y-38248287D01*
X33820868Y-38250390D01*
X34095743Y-38305065D01*
X34103779Y-38306123D01*
X34383442Y-38324454D01*
X34391558Y-38324454D01*
X34671220Y-38306123D01*
X34679256Y-38305065D01*
X34954131Y-38250390D01*
X34961978Y-38248287D01*
X35227362Y-38158201D01*
X35234851Y-38155100D01*
X35486219Y-38031139D01*
X35493234Y-38027089D01*
X35726269Y-37871379D01*
X35732703Y-37866442D01*
X35745317Y-37855379D01*
X35752750Y-37843987D01*
X35746075Y-37832129D01*
X34399042Y-36485095D01*
X34387500Y-36478431D01*
X34375957Y-36485095D01*
X33028922Y-37832130D01*
X33022248Y-37843987D01*
X25064929Y-37843987D01*
X25071080Y-36124058D01*
X32183046Y-36124058D01*
X32201376Y-36403720D01*
X32202434Y-36411756D01*
X32257109Y-36686631D01*
X32259212Y-36694478D01*
X32349298Y-36959862D01*
X32352399Y-36967351D01*
X32476360Y-37218719D01*
X32480410Y-37225734D01*
X32636118Y-37458766D01*
X32641059Y-37465205D01*
X32652117Y-37477815D01*
X32663512Y-37485250D01*
X32675368Y-37478576D01*
X34022403Y-36131542D01*
X34029067Y-36120000D01*
X34745931Y-36120000D01*
X34752595Y-36131542D01*
X36099629Y-37478575D01*
X36111487Y-37485250D01*
X36122879Y-37477817D01*
X36133942Y-37465203D01*
X36138879Y-37458769D01*
X36294589Y-37225734D01*
X36298639Y-37218719D01*
X36422600Y-36967351D01*
X36425701Y-36959862D01*
X36515787Y-36694478D01*
X36517890Y-36686631D01*
X36572565Y-36411756D01*
X36573623Y-36403720D01*
X36591954Y-36124058D01*
X36591954Y-36115942D01*
X36573623Y-35836279D01*
X36572565Y-35828243D01*
X36517890Y-35553368D01*
X36515787Y-35545521D01*
X36425701Y-35280137D01*
X36422600Y-35272648D01*
X36298639Y-35021280D01*
X36294589Y-35014265D01*
X36138879Y-34781231D01*
X36133945Y-34774800D01*
X36122879Y-34762181D01*
X36111487Y-34754748D01*
X36099630Y-34761422D01*
X34752595Y-36108457D01*
X34745931Y-36120000D01*
X34029067Y-36120000D01*
X34022403Y-36108457D01*
X32675366Y-34761420D01*
X32663512Y-34754747D01*
X32652120Y-34762181D01*
X32641054Y-34774799D01*
X32636122Y-34781227D01*
X32480410Y-35014265D01*
X32476360Y-35021280D01*
X32352399Y-35272648D01*
X32349298Y-35280137D01*
X32259212Y-35545521D01*
X32257109Y-35553368D01*
X32202434Y-35828243D01*
X32201376Y-35836279D01*
X32183046Y-36115942D01*
X32183046Y-36124058D01*
X25071080Y-36124058D01*
X25077260Y-34396012D01*
X33022247Y-34396012D01*
X33028920Y-34407866D01*
X34375957Y-35754903D01*
X34387500Y-35761567D01*
X34399042Y-35754903D01*
X35746076Y-34407868D01*
X35752750Y-34396012D01*
X35745315Y-34384617D01*
X35732705Y-34373559D01*
X35726266Y-34368618D01*
X35493234Y-34212910D01*
X35486219Y-34208860D01*
X35234851Y-34084899D01*
X35227362Y-34081798D01*
X34961978Y-33991712D01*
X34954131Y-33989609D01*
X34679256Y-33934934D01*
X34671220Y-33933876D01*
X34391558Y-33915546D01*
X34383442Y-33915546D01*
X34103779Y-33933876D01*
X34095743Y-33934934D01*
X33820868Y-33989609D01*
X33813021Y-33991712D01*
X33547637Y-34081798D01*
X33540148Y-34084899D01*
X33288780Y-34208860D01*
X33281765Y-34212910D01*
X33048727Y-34368622D01*
X33042299Y-34373554D01*
X33029681Y-34384620D01*
X33022247Y-34396012D01*
X25077260Y-34396012D01*
X25079558Y-33753499D01*
X25096309Y-33691704D01*
X25141653Y-33646501D01*
X25203498Y-33629944D01*
X51923804Y-33618009D01*
X51978951Y-33630921D01*
X52022605Y-33667012D01*
X52045655Y-33718751D01*
X52043291Y-33775343D01*
X52016007Y-33824980D01*
X51981814Y-33862956D01*
X51977467Y-33867784D01*
X51974222Y-33873404D01*
X51974218Y-33873410D01*
X51886069Y-34026089D01*
X51886066Y-34026094D01*
X51882821Y-34031716D01*
X51880815Y-34037888D01*
X51880813Y-34037894D01*
X51826333Y-34205564D01*
X51826331Y-34205573D01*
X51824326Y-34211744D01*
X51823648Y-34218194D01*
X51823646Y-34218204D01*
X51807319Y-34373559D01*
X51804540Y-34400000D01*
X51805219Y-34406460D01*
X51823646Y-34581795D01*
X51823647Y-34581803D01*
X51824326Y-34588256D01*
X51826331Y-34594428D01*
X51826333Y-34594435D01*
X51880591Y-34761422D01*
X51882821Y-34768284D01*
X51886068Y-34773908D01*
X51886069Y-34773910D01*
X51891028Y-34782500D01*
X51977467Y-34932216D01*
X52104129Y-35072888D01*
X52257270Y-35184151D01*
X52430197Y-35261144D01*
X52615354Y-35300500D01*
X52798143Y-35300500D01*
X52804646Y-35300500D01*
X52989803Y-35261144D01*
X53162730Y-35184151D01*
X53315871Y-35072888D01*
X53442533Y-34932216D01*
X53528971Y-34782499D01*
X53574358Y-34737113D01*
X53636358Y-34720500D01*
X59794711Y-34720500D01*
X59858460Y-34738142D01*
X59904069Y-34786047D01*
X59918562Y-34850584D01*
X59897813Y-34913391D01*
X59830410Y-35014265D01*
X59826360Y-35021280D01*
X59702399Y-35272648D01*
X59699298Y-35280137D01*
X59609212Y-35545521D01*
X59607109Y-35553368D01*
X59552434Y-35828243D01*
X59551376Y-35836279D01*
X59533046Y-36115942D01*
X59533046Y-36124058D01*
X59551376Y-36403720D01*
X59552434Y-36411756D01*
X59607109Y-36686631D01*
X59609212Y-36694478D01*
X59699298Y-36959862D01*
X59702399Y-36967351D01*
X59826360Y-37218719D01*
X59830410Y-37225734D01*
X59986118Y-37458766D01*
X59991059Y-37465205D01*
X60002117Y-37477815D01*
X60013512Y-37485250D01*
X60025368Y-37478576D01*
X61649818Y-35854127D01*
X61705405Y-35822033D01*
X61769593Y-35822033D01*
X61825180Y-35854127D01*
X63449629Y-37478575D01*
X63461487Y-37485250D01*
X63472879Y-37477817D01*
X63483942Y-37465203D01*
X63488879Y-37458769D01*
X63644589Y-37225734D01*
X63648639Y-37218719D01*
X63772600Y-36967351D01*
X63775701Y-36959862D01*
X63865787Y-36694478D01*
X63867890Y-36686631D01*
X63922565Y-36411756D01*
X63923623Y-36403720D01*
X63941954Y-36124058D01*
X63941954Y-36111973D01*
X63955469Y-36055678D01*
X63993069Y-36011655D01*
X64046556Y-35989500D01*
X64104272Y-35994042D01*
X64153635Y-36024292D01*
X64810681Y-36681338D01*
X64837561Y-36721566D01*
X64847000Y-36769019D01*
X64847000Y-37755105D01*
X64836499Y-37805045D01*
X64806774Y-37846527D01*
X64762859Y-37872524D01*
X64703598Y-37892641D01*
X64699961Y-37894434D01*
X64699955Y-37894437D01*
X64448529Y-38018426D01*
X64448517Y-38018432D01*
X64444889Y-38020222D01*
X64441526Y-38022468D01*
X64441514Y-38022476D01*
X64208427Y-38178220D01*
X64208418Y-38178226D01*
X64205046Y-38180480D01*
X64202002Y-38183149D01*
X64201987Y-38183161D01*
X63991221Y-38367999D01*
X63991213Y-38368006D01*
X63988173Y-38370673D01*
X63985506Y-38373713D01*
X63985499Y-38373721D01*
X63800661Y-38584487D01*
X63800649Y-38584502D01*
X63797980Y-38587546D01*
X63795726Y-38590918D01*
X63795720Y-38590927D01*
X63639976Y-38824014D01*
X63639968Y-38824026D01*
X63637722Y-38827389D01*
X63635932Y-38831017D01*
X63635926Y-38831029D01*
X63511937Y-39082455D01*
X63511934Y-39082461D01*
X63510141Y-39086098D01*
X63508837Y-39089937D01*
X63508835Y-39089944D01*
X63418723Y-39355402D01*
X63418718Y-39355418D01*
X63417419Y-39359247D01*
X63416628Y-39363219D01*
X63416626Y-39363230D01*
X63361935Y-39638181D01*
X63361933Y-39638190D01*
X63361144Y-39642161D01*
X63360879Y-39646201D01*
X63360879Y-39646203D01*
X63356851Y-39707663D01*
X63342278Y-39930000D01*
X63361144Y-40217839D01*
X63361934Y-40221810D01*
X63361935Y-40221818D01*
X63416626Y-40496769D01*
X63416628Y-40496776D01*
X63417419Y-40500753D01*
X63418719Y-40504584D01*
X63418723Y-40504597D01*
X63508835Y-40770055D01*
X63510141Y-40773902D01*
X63637722Y-41032611D01*
X63797980Y-41272454D01*
X63800655Y-41275504D01*
X63800661Y-41275512D01*
X63985499Y-41486278D01*
X63988173Y-41489327D01*
X63991221Y-41492000D01*
X64201987Y-41676838D01*
X64201993Y-41676842D01*
X64205046Y-41679520D01*
X64444889Y-41839778D01*
X64703598Y-41967359D01*
X64889805Y-42030568D01*
X64972902Y-42058776D01*
X64972904Y-42058776D01*
X64976747Y-42060081D01*
X65259661Y-42116356D01*
X65547500Y-42135222D01*
X65835339Y-42116356D01*
X66118253Y-42060081D01*
X66391402Y-41967359D01*
X66650111Y-41839778D01*
X66889954Y-41679520D01*
X67106827Y-41489327D01*
X67297020Y-41272454D01*
X67457278Y-41032611D01*
X67584859Y-40773902D01*
X67671047Y-40520000D01*
X95054518Y-40520000D01*
X95054834Y-40524418D01*
X95074105Y-40793871D01*
X95074106Y-40793880D01*
X95074422Y-40798294D01*
X95075362Y-40802619D01*
X95075364Y-40802627D01*
X95132786Y-41066589D01*
X95133729Y-41070923D01*
X95135278Y-41075076D01*
X95229683Y-41328188D01*
X95229685Y-41328194D01*
X95231231Y-41332337D01*
X95233353Y-41336223D01*
X95315289Y-41486278D01*
X95364944Y-41577213D01*
X95532145Y-41800568D01*
X95729432Y-41997855D01*
X95952787Y-42165056D01*
X96197663Y-42298769D01*
X96459077Y-42396271D01*
X96731706Y-42455578D01*
X97010000Y-42475482D01*
X97288294Y-42455578D01*
X97560923Y-42396271D01*
X97822337Y-42298769D01*
X98067213Y-42165056D01*
X98290568Y-41997855D01*
X98487855Y-41800568D01*
X98655056Y-41577213D01*
X98788769Y-41332337D01*
X98886271Y-41070923D01*
X98945578Y-40798294D01*
X98965482Y-40520000D01*
X122104518Y-40520000D01*
X122104834Y-40524418D01*
X122124105Y-40793871D01*
X122124106Y-40793880D01*
X122124422Y-40798294D01*
X122125362Y-40802619D01*
X122125364Y-40802627D01*
X122182786Y-41066589D01*
X122183729Y-41070923D01*
X122185278Y-41075076D01*
X122279683Y-41328188D01*
X122279685Y-41328194D01*
X122281231Y-41332337D01*
X122283353Y-41336223D01*
X122365289Y-41486278D01*
X122414944Y-41577213D01*
X122582145Y-41800568D01*
X122779432Y-41997855D01*
X123002787Y-42165056D01*
X123247663Y-42298769D01*
X123509077Y-42396271D01*
X123781706Y-42455578D01*
X124060000Y-42475482D01*
X124338294Y-42455578D01*
X124610923Y-42396271D01*
X124872337Y-42298769D01*
X125117213Y-42165056D01*
X125340568Y-41997855D01*
X125537855Y-41800568D01*
X125705056Y-41577213D01*
X125838769Y-41332337D01*
X125936271Y-41070923D01*
X125995578Y-40798294D01*
X126015482Y-40520000D01*
X125995578Y-40241706D01*
X125936271Y-39969077D01*
X125838769Y-39707663D01*
X125705056Y-39462787D01*
X125537855Y-39239432D01*
X125340568Y-39042145D01*
X125117213Y-38874944D01*
X124872337Y-38741231D01*
X124868194Y-38739685D01*
X124868188Y-38739683D01*
X124615076Y-38645278D01*
X124610923Y-38643729D01*
X124606591Y-38642786D01*
X124606589Y-38642786D01*
X124342627Y-38585364D01*
X124342619Y-38585362D01*
X124338294Y-38584422D01*
X124333880Y-38584106D01*
X124333871Y-38584105D01*
X124064418Y-38564834D01*
X124060000Y-38564518D01*
X124055582Y-38564834D01*
X123786128Y-38584105D01*
X123786117Y-38584106D01*
X123781706Y-38584422D01*
X123777382Y-38585362D01*
X123777372Y-38585364D01*
X123513410Y-38642786D01*
X123513404Y-38642787D01*
X123509077Y-38643729D01*
X123504927Y-38645276D01*
X123504923Y-38645278D01*
X123251811Y-38739683D01*
X123251800Y-38739687D01*
X123247663Y-38741231D01*
X123243781Y-38743350D01*
X123243776Y-38743353D01*
X123006681Y-38872817D01*
X123006673Y-38872821D01*
X123002787Y-38874944D01*
X122999237Y-38877601D01*
X122999233Y-38877604D01*
X122782983Y-39039486D01*
X122782976Y-39039491D01*
X122779432Y-39042145D01*
X122776301Y-39045275D01*
X122776294Y-39045282D01*
X122585282Y-39236294D01*
X122585275Y-39236301D01*
X122582145Y-39239432D01*
X122579491Y-39242976D01*
X122579486Y-39242983D01*
X122417604Y-39459233D01*
X122414944Y-39462787D01*
X122412821Y-39466673D01*
X122412817Y-39466681D01*
X122300759Y-39671900D01*
X122281231Y-39707663D01*
X122279687Y-39711800D01*
X122279683Y-39711811D01*
X122196796Y-39934043D01*
X122183729Y-39969077D01*
X122182787Y-39973404D01*
X122182786Y-39973410D01*
X122125364Y-40237372D01*
X122125362Y-40237382D01*
X122124422Y-40241706D01*
X122124106Y-40246117D01*
X122124105Y-40246128D01*
X122105895Y-40500753D01*
X122104518Y-40520000D01*
X98965482Y-40520000D01*
X98945578Y-40241706D01*
X98886271Y-39969077D01*
X98788769Y-39707663D01*
X98655056Y-39462787D01*
X98487855Y-39239432D01*
X98290568Y-39042145D01*
X98067213Y-38874944D01*
X97822337Y-38741231D01*
X97818194Y-38739685D01*
X97818188Y-38739683D01*
X97565076Y-38645278D01*
X97560923Y-38643729D01*
X97556591Y-38642786D01*
X97556589Y-38642786D01*
X97292627Y-38585364D01*
X97292619Y-38585362D01*
X97288294Y-38584422D01*
X97283880Y-38584106D01*
X97283871Y-38584105D01*
X97014418Y-38564834D01*
X97010000Y-38564518D01*
X97005582Y-38564834D01*
X96736128Y-38584105D01*
X96736117Y-38584106D01*
X96731706Y-38584422D01*
X96727382Y-38585362D01*
X96727372Y-38585364D01*
X96463410Y-38642786D01*
X96463404Y-38642787D01*
X96459077Y-38643729D01*
X96454927Y-38645276D01*
X96454923Y-38645278D01*
X96201811Y-38739683D01*
X96201800Y-38739687D01*
X96197663Y-38741231D01*
X96193781Y-38743350D01*
X96193776Y-38743353D01*
X95956681Y-38872817D01*
X95956673Y-38872821D01*
X95952787Y-38874944D01*
X95949237Y-38877601D01*
X95949233Y-38877604D01*
X95732983Y-39039486D01*
X95732976Y-39039491D01*
X95729432Y-39042145D01*
X95726301Y-39045275D01*
X95726294Y-39045282D01*
X95535282Y-39236294D01*
X95535275Y-39236301D01*
X95532145Y-39239432D01*
X95529491Y-39242976D01*
X95529486Y-39242983D01*
X95367604Y-39459233D01*
X95364944Y-39462787D01*
X95362821Y-39466673D01*
X95362817Y-39466681D01*
X95250759Y-39671900D01*
X95231231Y-39707663D01*
X95229687Y-39711800D01*
X95229683Y-39711811D01*
X95146796Y-39934043D01*
X95133729Y-39969077D01*
X95132787Y-39973404D01*
X95132786Y-39973410D01*
X95075364Y-40237372D01*
X95075362Y-40237382D01*
X95074422Y-40241706D01*
X95074106Y-40246117D01*
X95074105Y-40246128D01*
X95055895Y-40500753D01*
X95054518Y-40520000D01*
X67671047Y-40520000D01*
X67677581Y-40500753D01*
X67733856Y-40217839D01*
X67752722Y-39930000D01*
X67733856Y-39642161D01*
X67677581Y-39359247D01*
X67584859Y-39086098D01*
X67457278Y-38827389D01*
X67425084Y-38779208D01*
X67299279Y-38590927D01*
X67297020Y-38587546D01*
X67294342Y-38584493D01*
X67294338Y-38584487D01*
X67109500Y-38373721D01*
X67106827Y-38370673D01*
X67061006Y-38330489D01*
X66893012Y-38183161D01*
X66893004Y-38183155D01*
X66889954Y-38180480D01*
X66852662Y-38155562D01*
X66653485Y-38022476D01*
X66653480Y-38022473D01*
X66650111Y-38020222D01*
X66646475Y-38018429D01*
X66646470Y-38018426D01*
X66395044Y-37894437D01*
X66395043Y-37894436D01*
X66391402Y-37892641D01*
X66332140Y-37872524D01*
X66288226Y-37846527D01*
X66258501Y-37805045D01*
X66248000Y-37755105D01*
X66248000Y-36518569D01*
X66250031Y-36496218D01*
X66252069Y-36485095D01*
X66254358Y-36472606D01*
X66252233Y-36437486D01*
X66252233Y-36422509D01*
X66252880Y-36411818D01*
X66254358Y-36387394D01*
X66248014Y-36352779D01*
X66246209Y-36337916D01*
X66244086Y-36302804D01*
X66233618Y-36269210D01*
X66233026Y-36266807D01*
X66232640Y-36263628D01*
X66231505Y-36260635D01*
X66230037Y-36254678D01*
X66225046Y-36227443D01*
X66223695Y-36220069D01*
X66209253Y-36187982D01*
X66203943Y-36173979D01*
X66195708Y-36147550D01*
X66193478Y-36140393D01*
X66181150Y-36120000D01*
X67152278Y-36120000D01*
X67171144Y-36407839D01*
X67171934Y-36411810D01*
X67171935Y-36411818D01*
X67226626Y-36686769D01*
X67226628Y-36686776D01*
X67227419Y-36690753D01*
X67228719Y-36694584D01*
X67228723Y-36694597D01*
X67318835Y-36960055D01*
X67320141Y-36963902D01*
X67321936Y-36967543D01*
X67321937Y-36967544D01*
X67445802Y-37218719D01*
X67447722Y-37222611D01*
X67607980Y-37462454D01*
X67610655Y-37465504D01*
X67610661Y-37465512D01*
X67751650Y-37626278D01*
X67798173Y-37679327D01*
X67801221Y-37682000D01*
X68011987Y-37866838D01*
X68011993Y-37866842D01*
X68015046Y-37869520D01*
X68049649Y-37892641D01*
X68250864Y-38027089D01*
X68254889Y-38029778D01*
X68513598Y-38157359D01*
X68685903Y-38215849D01*
X68782902Y-38248776D01*
X68782904Y-38248776D01*
X68786747Y-38250081D01*
X69069661Y-38306356D01*
X69357500Y-38325222D01*
X69645339Y-38306356D01*
X69928253Y-38250081D01*
X70201402Y-38157359D01*
X70460111Y-38029778D01*
X70699954Y-37869520D01*
X70916827Y-37679327D01*
X71107020Y-37462454D01*
X71267278Y-37222611D01*
X71394859Y-36963902D01*
X71487581Y-36690753D01*
X71543856Y-36407839D01*
X71562722Y-36120000D01*
X71559445Y-36070000D01*
X90994778Y-36070000D01*
X91013644Y-36357839D01*
X91014434Y-36361810D01*
X91014435Y-36361818D01*
X91069126Y-36636769D01*
X91069128Y-36636776D01*
X91069919Y-36640753D01*
X91071219Y-36644584D01*
X91071223Y-36644597D01*
X91161335Y-36910055D01*
X91162641Y-36913902D01*
X91164436Y-36917543D01*
X91164437Y-36917544D01*
X91288302Y-37168719D01*
X91290222Y-37172611D01*
X91292473Y-37175980D01*
X91292476Y-37175985D01*
X91325885Y-37225985D01*
X91450480Y-37412454D01*
X91453155Y-37415504D01*
X91453161Y-37415512D01*
X91637999Y-37626278D01*
X91640673Y-37629327D01*
X91643721Y-37632000D01*
X91854487Y-37816838D01*
X91854493Y-37816842D01*
X91857546Y-37819520D01*
X91935753Y-37871776D01*
X92093364Y-37977089D01*
X92097389Y-37979778D01*
X92356098Y-38107359D01*
X92496738Y-38155100D01*
X92625402Y-38198776D01*
X92625404Y-38198776D01*
X92629247Y-38200081D01*
X92912161Y-38256356D01*
X93200000Y-38275222D01*
X93487839Y-38256356D01*
X93770753Y-38200081D01*
X94043902Y-38107359D01*
X94302611Y-37979778D01*
X94542454Y-37819520D01*
X94571569Y-37793987D01*
X99454748Y-37793987D01*
X99462181Y-37805379D01*
X99474800Y-37816445D01*
X99481231Y-37821379D01*
X99714265Y-37977089D01*
X99721280Y-37981139D01*
X99972648Y-38105100D01*
X99980137Y-38108201D01*
X100245521Y-38198287D01*
X100253368Y-38200390D01*
X100528243Y-38255065D01*
X100536279Y-38256123D01*
X100815942Y-38274454D01*
X100824058Y-38274454D01*
X101103720Y-38256123D01*
X101111756Y-38255065D01*
X101386631Y-38200390D01*
X101394478Y-38198287D01*
X101659862Y-38108201D01*
X101667351Y-38105100D01*
X101918719Y-37981139D01*
X101925734Y-37977089D01*
X102158769Y-37821379D01*
X102165203Y-37816442D01*
X102177817Y-37805379D01*
X102185250Y-37793987D01*
X102178575Y-37782129D01*
X100831542Y-36435095D01*
X100820000Y-36428431D01*
X100808457Y-36435095D01*
X99461422Y-37782130D01*
X99454748Y-37793987D01*
X94571569Y-37793987D01*
X94759327Y-37629327D01*
X94949520Y-37412454D01*
X95109778Y-37172611D01*
X95237359Y-36913902D01*
X95330081Y-36640753D01*
X95386356Y-36357839D01*
X95404956Y-36074058D01*
X98615546Y-36074058D01*
X98633876Y-36353720D01*
X98634934Y-36361756D01*
X98689609Y-36636631D01*
X98691712Y-36644478D01*
X98781798Y-36909862D01*
X98784899Y-36917351D01*
X98908860Y-37168719D01*
X98912910Y-37175734D01*
X99068618Y-37408766D01*
X99073559Y-37415205D01*
X99084617Y-37427815D01*
X99096012Y-37435250D01*
X99107868Y-37428576D01*
X100454903Y-36081542D01*
X100461567Y-36070000D01*
X101178431Y-36070000D01*
X101185095Y-36081542D01*
X102532129Y-37428575D01*
X102543987Y-37435250D01*
X102555379Y-37427817D01*
X102566442Y-37415203D01*
X102571379Y-37408769D01*
X102727089Y-37175734D01*
X102731139Y-37168719D01*
X102855100Y-36917351D01*
X102858201Y-36909862D01*
X102948287Y-36644478D01*
X102950390Y-36636631D01*
X103005065Y-36361756D01*
X103006123Y-36353720D01*
X103024454Y-36074058D01*
X103024454Y-36070000D01*
X118044778Y-36070000D01*
X118063644Y-36357839D01*
X118064434Y-36361810D01*
X118064435Y-36361818D01*
X118119126Y-36636769D01*
X118119128Y-36636776D01*
X118119919Y-36640753D01*
X118121219Y-36644584D01*
X118121223Y-36644597D01*
X118211335Y-36910055D01*
X118212641Y-36913902D01*
X118214436Y-36917543D01*
X118214437Y-36917544D01*
X118338302Y-37168719D01*
X118340222Y-37172611D01*
X118342473Y-37175980D01*
X118342476Y-37175985D01*
X118375885Y-37225985D01*
X118500480Y-37412454D01*
X118503155Y-37415504D01*
X118503161Y-37415512D01*
X118687999Y-37626278D01*
X118690673Y-37629327D01*
X118693721Y-37632000D01*
X118904487Y-37816838D01*
X118904493Y-37816842D01*
X118907546Y-37819520D01*
X118985753Y-37871776D01*
X119143364Y-37977089D01*
X119147389Y-37979778D01*
X119406098Y-38107359D01*
X119546738Y-38155100D01*
X119675402Y-38198776D01*
X119675404Y-38198776D01*
X119679247Y-38200081D01*
X119962161Y-38256356D01*
X120250000Y-38275222D01*
X120537839Y-38256356D01*
X120820753Y-38200081D01*
X121093902Y-38107359D01*
X121352611Y-37979778D01*
X121592454Y-37819520D01*
X121621569Y-37793987D01*
X126504748Y-37793987D01*
X126512181Y-37805379D01*
X126524800Y-37816445D01*
X126531231Y-37821379D01*
X126764265Y-37977089D01*
X126771280Y-37981139D01*
X127022648Y-38105100D01*
X127030137Y-38108201D01*
X127295521Y-38198287D01*
X127303368Y-38200390D01*
X127578243Y-38255065D01*
X127586279Y-38256123D01*
X127865942Y-38274454D01*
X127874058Y-38274454D01*
X128153720Y-38256123D01*
X128161756Y-38255065D01*
X128436631Y-38200390D01*
X128444478Y-38198287D01*
X128709862Y-38108201D01*
X128717351Y-38105100D01*
X128968719Y-37981139D01*
X128975734Y-37977089D01*
X129208769Y-37821379D01*
X129215203Y-37816442D01*
X129227817Y-37805379D01*
X129235250Y-37793987D01*
X129228575Y-37782129D01*
X127881542Y-36435095D01*
X127870000Y-36428431D01*
X127858457Y-36435095D01*
X126511422Y-37782130D01*
X126504748Y-37793987D01*
X121621569Y-37793987D01*
X121809327Y-37629327D01*
X121999520Y-37412454D01*
X122159778Y-37172611D01*
X122287359Y-36913902D01*
X122380081Y-36640753D01*
X122436356Y-36357839D01*
X122454956Y-36074058D01*
X125665546Y-36074058D01*
X125683876Y-36353720D01*
X125684934Y-36361756D01*
X125739609Y-36636631D01*
X125741712Y-36644478D01*
X125831798Y-36909862D01*
X125834899Y-36917351D01*
X125958860Y-37168719D01*
X125962910Y-37175734D01*
X126118618Y-37408766D01*
X126123559Y-37415205D01*
X126134617Y-37427815D01*
X126146012Y-37435250D01*
X126157868Y-37428576D01*
X127504903Y-36081542D01*
X127511567Y-36070000D01*
X127511566Y-36069999D01*
X128228431Y-36069999D01*
X128235095Y-36081542D01*
X129582129Y-37428575D01*
X129593987Y-37435250D01*
X129605379Y-37427817D01*
X129616442Y-37415203D01*
X129621379Y-37408769D01*
X129777089Y-37175734D01*
X129781139Y-37168719D01*
X129905100Y-36917351D01*
X129908201Y-36909862D01*
X129998287Y-36644478D01*
X130000390Y-36636631D01*
X130055065Y-36361756D01*
X130056123Y-36353720D01*
X130074454Y-36074058D01*
X130074454Y-36065942D01*
X130056123Y-35786279D01*
X130055065Y-35778243D01*
X130000390Y-35503368D01*
X129998287Y-35495521D01*
X129908201Y-35230137D01*
X129905100Y-35222648D01*
X129781139Y-34971280D01*
X129777089Y-34964265D01*
X129621379Y-34731231D01*
X129616445Y-34724800D01*
X129605379Y-34712181D01*
X129593987Y-34704748D01*
X129582130Y-34711422D01*
X128235095Y-36058457D01*
X128228431Y-36069999D01*
X127511566Y-36069999D01*
X127504903Y-36058457D01*
X126157866Y-34711420D01*
X126146012Y-34704747D01*
X126134620Y-34712181D01*
X126123554Y-34724799D01*
X126118622Y-34731227D01*
X125962910Y-34964265D01*
X125958860Y-34971280D01*
X125834899Y-35222648D01*
X125831798Y-35230137D01*
X125741712Y-35495521D01*
X125739609Y-35503368D01*
X125684934Y-35778243D01*
X125683876Y-35786279D01*
X125665546Y-36065942D01*
X125665546Y-36074058D01*
X122454956Y-36074058D01*
X122455222Y-36070000D01*
X122436356Y-35782161D01*
X122380081Y-35499247D01*
X122287359Y-35226098D01*
X122159778Y-34967389D01*
X122139501Y-34937043D01*
X122035391Y-34781231D01*
X121999520Y-34727546D01*
X121996842Y-34724493D01*
X121996838Y-34724487D01*
X121812000Y-34513721D01*
X121809327Y-34510673D01*
X121692101Y-34407868D01*
X121621568Y-34346012D01*
X126504747Y-34346012D01*
X126511420Y-34357866D01*
X127858457Y-35704903D01*
X127870000Y-35711567D01*
X127881542Y-35704903D01*
X129228576Y-34357868D01*
X129235250Y-34346012D01*
X129227815Y-34334617D01*
X129215205Y-34323559D01*
X129208766Y-34318618D01*
X128975734Y-34162910D01*
X128968719Y-34158860D01*
X128717351Y-34034899D01*
X128709862Y-34031798D01*
X128444478Y-33941712D01*
X128436631Y-33939609D01*
X128161756Y-33884934D01*
X128153720Y-33883876D01*
X127874058Y-33865546D01*
X127865942Y-33865546D01*
X127586279Y-33883876D01*
X127578243Y-33884934D01*
X127303368Y-33939609D01*
X127295521Y-33941712D01*
X127030137Y-34031798D01*
X127022648Y-34034899D01*
X126771280Y-34158860D01*
X126764265Y-34162910D01*
X126531227Y-34318622D01*
X126524799Y-34323554D01*
X126512181Y-34334620D01*
X126504747Y-34346012D01*
X121621568Y-34346012D01*
X121595512Y-34323161D01*
X121595504Y-34323155D01*
X121592454Y-34320480D01*
X121589072Y-34318220D01*
X121355985Y-34162476D01*
X121355980Y-34162473D01*
X121352611Y-34160222D01*
X121348975Y-34158429D01*
X121348970Y-34158426D01*
X121097544Y-34034437D01*
X121097543Y-34034436D01*
X121093902Y-34032641D01*
X121074601Y-34026089D01*
X120824597Y-33941223D01*
X120824584Y-33941219D01*
X120820753Y-33939919D01*
X120816776Y-33939128D01*
X120816769Y-33939126D01*
X120541818Y-33884435D01*
X120541810Y-33884434D01*
X120537839Y-33883644D01*
X120250000Y-33864778D01*
X120245957Y-33865043D01*
X119966203Y-33883379D01*
X119966201Y-33883379D01*
X119962161Y-33883644D01*
X119958190Y-33884433D01*
X119958181Y-33884435D01*
X119683230Y-33939126D01*
X119683219Y-33939128D01*
X119679247Y-33939919D01*
X119675418Y-33941218D01*
X119675402Y-33941223D01*
X119409944Y-34031335D01*
X119409937Y-34031337D01*
X119406098Y-34032641D01*
X119402461Y-34034434D01*
X119402455Y-34034437D01*
X119151029Y-34158426D01*
X119151017Y-34158432D01*
X119147389Y-34160222D01*
X119144026Y-34162468D01*
X119144014Y-34162476D01*
X118910927Y-34318220D01*
X118910918Y-34318226D01*
X118907546Y-34320480D01*
X118904502Y-34323149D01*
X118904487Y-34323161D01*
X118693721Y-34507999D01*
X118693713Y-34508006D01*
X118690673Y-34510673D01*
X118688006Y-34513713D01*
X118687999Y-34513721D01*
X118503161Y-34724487D01*
X118503149Y-34724502D01*
X118500480Y-34727546D01*
X118498226Y-34730918D01*
X118498220Y-34730927D01*
X118342476Y-34964014D01*
X118342468Y-34964026D01*
X118340222Y-34967389D01*
X118338432Y-34971017D01*
X118338426Y-34971029D01*
X118214437Y-35222455D01*
X118214434Y-35222461D01*
X118212641Y-35226098D01*
X118211337Y-35229937D01*
X118211335Y-35229944D01*
X118121223Y-35495402D01*
X118121218Y-35495418D01*
X118119919Y-35499247D01*
X118119128Y-35503219D01*
X118119126Y-35503230D01*
X118064435Y-35778181D01*
X118064433Y-35778190D01*
X118063644Y-35782161D01*
X118044778Y-36070000D01*
X103024454Y-36070000D01*
X103024454Y-36065942D01*
X103006123Y-35786279D01*
X103005065Y-35778243D01*
X102950390Y-35503368D01*
X102948287Y-35495521D01*
X102858201Y-35230137D01*
X102855100Y-35222648D01*
X102731139Y-34971280D01*
X102727089Y-34964265D01*
X102571379Y-34731231D01*
X102566445Y-34724800D01*
X102555379Y-34712181D01*
X102543987Y-34704748D01*
X102532130Y-34711422D01*
X101185095Y-36058457D01*
X101178431Y-36070000D01*
X100461567Y-36070000D01*
X100454903Y-36058457D01*
X99107866Y-34711420D01*
X99096012Y-34704747D01*
X99084620Y-34712181D01*
X99073554Y-34724799D01*
X99068622Y-34731227D01*
X98912910Y-34964265D01*
X98908860Y-34971280D01*
X98784899Y-35222648D01*
X98781798Y-35230137D01*
X98691712Y-35495521D01*
X98689609Y-35503368D01*
X98634934Y-35778243D01*
X98633876Y-35786279D01*
X98615546Y-36065942D01*
X98615546Y-36074058D01*
X95404956Y-36074058D01*
X95405222Y-36070000D01*
X95386356Y-35782161D01*
X95330081Y-35499247D01*
X95237359Y-35226098D01*
X95109778Y-34967389D01*
X95089501Y-34937043D01*
X94985391Y-34781231D01*
X94949520Y-34727546D01*
X94946842Y-34724493D01*
X94946838Y-34724487D01*
X94762000Y-34513721D01*
X94759327Y-34510673D01*
X94642101Y-34407868D01*
X94571568Y-34346012D01*
X99454747Y-34346012D01*
X99461420Y-34357866D01*
X100808457Y-35704903D01*
X100820000Y-35711567D01*
X100831542Y-35704903D01*
X102178576Y-34357868D01*
X102185250Y-34346012D01*
X102177815Y-34334617D01*
X102165205Y-34323559D01*
X102158766Y-34318618D01*
X101925734Y-34162910D01*
X101918719Y-34158860D01*
X101667351Y-34034899D01*
X101659862Y-34031798D01*
X101394478Y-33941712D01*
X101386631Y-33939609D01*
X101111756Y-33884934D01*
X101103720Y-33883876D01*
X100824058Y-33865546D01*
X100815942Y-33865546D01*
X100536279Y-33883876D01*
X100528243Y-33884934D01*
X100253368Y-33939609D01*
X100245521Y-33941712D01*
X99980137Y-34031798D01*
X99972648Y-34034899D01*
X99721280Y-34158860D01*
X99714265Y-34162910D01*
X99481227Y-34318622D01*
X99474799Y-34323554D01*
X99462181Y-34334620D01*
X99454747Y-34346012D01*
X94571568Y-34346012D01*
X94545512Y-34323161D01*
X94545504Y-34323155D01*
X94542454Y-34320480D01*
X94539072Y-34318220D01*
X94305985Y-34162476D01*
X94305980Y-34162473D01*
X94302611Y-34160222D01*
X94298975Y-34158429D01*
X94298970Y-34158426D01*
X94047544Y-34034437D01*
X94047543Y-34034436D01*
X94043902Y-34032641D01*
X94024601Y-34026089D01*
X93774597Y-33941223D01*
X93774584Y-33941219D01*
X93770753Y-33939919D01*
X93766776Y-33939128D01*
X93766769Y-33939126D01*
X93491818Y-33884435D01*
X93491810Y-33884434D01*
X93487839Y-33883644D01*
X93200000Y-33864778D01*
X93195957Y-33865043D01*
X92916203Y-33883379D01*
X92916201Y-33883379D01*
X92912161Y-33883644D01*
X92908190Y-33884433D01*
X92908181Y-33884435D01*
X92633230Y-33939126D01*
X92633219Y-33939128D01*
X92629247Y-33939919D01*
X92625418Y-33941218D01*
X92625402Y-33941223D01*
X92359944Y-34031335D01*
X92359937Y-34031337D01*
X92356098Y-34032641D01*
X92352461Y-34034434D01*
X92352455Y-34034437D01*
X92101029Y-34158426D01*
X92101017Y-34158432D01*
X92097389Y-34160222D01*
X92094026Y-34162468D01*
X92094014Y-34162476D01*
X91860927Y-34318220D01*
X91860918Y-34318226D01*
X91857546Y-34320480D01*
X91854502Y-34323149D01*
X91854487Y-34323161D01*
X91643721Y-34507999D01*
X91643713Y-34508006D01*
X91640673Y-34510673D01*
X91638006Y-34513713D01*
X91637999Y-34513721D01*
X91453161Y-34724487D01*
X91453149Y-34724502D01*
X91450480Y-34727546D01*
X91448226Y-34730918D01*
X91448220Y-34730927D01*
X91292476Y-34964014D01*
X91292468Y-34964026D01*
X91290222Y-34967389D01*
X91288432Y-34971017D01*
X91288426Y-34971029D01*
X91164437Y-35222455D01*
X91164434Y-35222461D01*
X91162641Y-35226098D01*
X91161337Y-35229937D01*
X91161335Y-35229944D01*
X91071223Y-35495402D01*
X91071218Y-35495418D01*
X91069919Y-35499247D01*
X91069128Y-35503219D01*
X91069126Y-35503230D01*
X91014435Y-35778181D01*
X91014433Y-35778190D01*
X91013644Y-35782161D01*
X90994778Y-36070000D01*
X71559445Y-36070000D01*
X71543856Y-35832161D01*
X71487581Y-35549247D01*
X71394859Y-35276098D01*
X71267278Y-35017389D01*
X71107020Y-34777546D01*
X71104342Y-34774493D01*
X71104338Y-34774487D01*
X70919500Y-34563721D01*
X70916827Y-34560673D01*
X70742587Y-34407868D01*
X70703012Y-34373161D01*
X70703004Y-34373155D01*
X70699954Y-34370480D01*
X70646286Y-34334620D01*
X70463485Y-34212476D01*
X70463480Y-34212473D01*
X70460111Y-34210222D01*
X70456475Y-34208429D01*
X70456470Y-34208426D01*
X70205044Y-34084437D01*
X70205043Y-34084436D01*
X70201402Y-34082641D01*
X70197555Y-34081335D01*
X69932097Y-33991223D01*
X69932084Y-33991219D01*
X69928253Y-33989919D01*
X69924276Y-33989128D01*
X69924269Y-33989126D01*
X69649318Y-33934435D01*
X69649310Y-33934434D01*
X69645339Y-33933644D01*
X69357500Y-33914778D01*
X69353457Y-33915043D01*
X69073703Y-33933379D01*
X69073701Y-33933379D01*
X69069661Y-33933644D01*
X69065690Y-33934433D01*
X69065681Y-33934435D01*
X68790730Y-33989126D01*
X68790719Y-33989128D01*
X68786747Y-33989919D01*
X68782918Y-33991218D01*
X68782902Y-33991223D01*
X68517444Y-34081335D01*
X68517437Y-34081337D01*
X68513598Y-34082641D01*
X68509961Y-34084434D01*
X68509955Y-34084437D01*
X68258529Y-34208426D01*
X68258517Y-34208432D01*
X68254889Y-34210222D01*
X68251526Y-34212468D01*
X68251514Y-34212476D01*
X68018427Y-34368220D01*
X68018418Y-34368226D01*
X68015046Y-34370480D01*
X68012002Y-34373149D01*
X68011987Y-34373161D01*
X67801221Y-34557999D01*
X67801213Y-34558006D01*
X67798173Y-34560673D01*
X67795506Y-34563713D01*
X67795499Y-34563721D01*
X67610661Y-34774487D01*
X67610649Y-34774502D01*
X67607980Y-34777546D01*
X67605726Y-34780918D01*
X67605720Y-34780927D01*
X67449976Y-35014014D01*
X67449968Y-35014026D01*
X67447722Y-35017389D01*
X67445932Y-35021017D01*
X67445926Y-35021029D01*
X67321937Y-35272455D01*
X67321934Y-35272461D01*
X67320141Y-35276098D01*
X67318837Y-35279937D01*
X67318835Y-35279944D01*
X67228723Y-35545402D01*
X67228718Y-35545418D01*
X67227419Y-35549247D01*
X67226628Y-35553219D01*
X67226626Y-35553230D01*
X67171935Y-35828181D01*
X67171933Y-35828190D01*
X67171144Y-35832161D01*
X67152278Y-36120000D01*
X66181150Y-36120000D01*
X66175274Y-36110281D01*
X66172424Y-36104852D01*
X66172318Y-36104570D01*
X66172146Y-36104321D01*
X66168314Y-36097019D01*
X66156957Y-36071785D01*
X66156956Y-36071784D01*
X66153878Y-36064944D01*
X66132177Y-36037245D01*
X66123675Y-36024926D01*
X66109353Y-36001234D01*
X66109350Y-36001230D01*
X66105472Y-35994815D01*
X66076696Y-35966039D01*
X66077665Y-35965069D01*
X66076120Y-35964070D01*
X66075680Y-35964568D01*
X66074487Y-35963511D01*
X66072796Y-35961919D01*
X66072401Y-35961663D01*
X66071694Y-35961037D01*
X65985185Y-35874528D01*
X63934942Y-33824285D01*
X63904696Y-33774934D01*
X63900147Y-33717229D01*
X63922286Y-33663747D01*
X63966290Y-33626140D01*
X64022566Y-33612605D01*
X136896387Y-33580055D01*
X136958282Y-33596576D01*
G37*
%TD.AperFunction*%
%TD*%
M02*
