M48
; DRILL file {KiCad (7.0.0)} date Mon Oct 30 12:38:43 2023
; FORMAT={-:-/ absolute / inch / decimal}
; #@! TF.CreationDate,2023-10-30T12:38:43+01:00
; #@! TF.GenerationSoftware,Kicad,Pcbnew,(7.0.0)
; #@! TF.FileFunction,Plated,1,2,PTH
FMAT,2
INCH
; #@! TA.AperFunction,Plated,PTH,ViaDrill
T1C0.0236
; #@! TA.AperFunction,Plated,PTH,ComponentDrill
T2C0.0394
; #@! TA.AperFunction,Plated,PTH,ComponentDrill
T3C0.0472
; #@! TA.AperFunction,Plated,PTH,ComponentDrill
T4C0.0630
%
G90
G05
T1
X1.0161Y-1.7673
X1.1142Y-2.0354
X1.1378Y-1.4016
X1.248Y-1.7756
X1.626Y-1.8307
X1.6732Y-2.0472
X1.798Y-1.7661
X1.8661Y-1.4331
X2.2992Y-2.0669
X2.3543Y-1.7795
X3.2205Y-1.4528
X3.2638Y-2.0512
X3.3346Y-1.815
X3.7835Y-2.063
X3.7917Y-1.7913
X4.1142Y-2.0433
X4.3504Y-1.4921
X4.7362Y-1.9921
X4.9205Y-1.7894
X5.3346Y-1.4646
T2
X1.2339Y-2.0799
X1.3339Y-2.0799
X2.0622Y-2.087
X2.1622Y-2.087
X3.2059Y-1.698
X3.2059Y-1.798
X3.2059Y-1.898
X4.2998Y-2.0866
X4.3998Y-2.0866
X5.0766Y-2.0878
X5.1766Y-2.0878
T3
X1.5038Y-1.747
X2.5806Y-1.747
X3.8193Y-1.5953
X4.8843Y-1.5953
T4
X1.3538Y-1.422
X1.5038Y-1.572
X1.6538Y-1.422
X2.4306Y-1.422
X2.5806Y-1.572
X2.7306Y-1.422
X3.6693Y-1.4201
X3.9693Y-1.4201
X4.7343Y-1.4201
X5.0343Y-1.4201
T0
M30
