%TF.GenerationSoftware,KiCad,Pcbnew,(7.0.0)*%
%TF.CreationDate,2023-11-09T23:31:26+01:00*%
%TF.ProjectId,xlr-inteface,786c722d-696e-4746-9566-6163652e6b69,rev?*%
%TF.SameCoordinates,Original*%
%TF.FileFunction,Legend,Bot*%
%TF.FilePolarity,Positive*%
%FSLAX46Y46*%
G04 Gerber Fmt 4.6, Leading zero omitted, Abs format (unit mm)*
G04 Created by KiCad (PCBNEW (7.0.0)) date 2023-11-09 23:31:26*
%MOMM*%
%LPD*%
G01*
G04 APERTURE LIST*
%ADD10C,0.150000*%
%ADD11C,0.120000*%
G04 APERTURE END LIST*
D10*
X120762381Y-39842380D02*
X120762381Y-38842380D01*
X120762381Y-38842380D02*
X120524286Y-38842380D01*
X120524286Y-38842380D02*
X120381429Y-38890000D01*
X120381429Y-38890000D02*
X120286191Y-38985238D01*
X120286191Y-38985238D02*
X120238572Y-39080476D01*
X120238572Y-39080476D02*
X120190953Y-39270952D01*
X120190953Y-39270952D02*
X120190953Y-39413809D01*
X120190953Y-39413809D02*
X120238572Y-39604285D01*
X120238572Y-39604285D02*
X120286191Y-39699523D01*
X120286191Y-39699523D02*
X120381429Y-39794761D01*
X120381429Y-39794761D02*
X120524286Y-39842380D01*
X120524286Y-39842380D02*
X120762381Y-39842380D01*
X119381429Y-39794761D02*
X119476667Y-39842380D01*
X119476667Y-39842380D02*
X119667143Y-39842380D01*
X119667143Y-39842380D02*
X119762381Y-39794761D01*
X119762381Y-39794761D02*
X119810000Y-39699523D01*
X119810000Y-39699523D02*
X119810000Y-39318571D01*
X119810000Y-39318571D02*
X119762381Y-39223333D01*
X119762381Y-39223333D02*
X119667143Y-39175714D01*
X119667143Y-39175714D02*
X119476667Y-39175714D01*
X119476667Y-39175714D02*
X119381429Y-39223333D01*
X119381429Y-39223333D02*
X119333810Y-39318571D01*
X119333810Y-39318571D02*
X119333810Y-39413809D01*
X119333810Y-39413809D02*
X119810000Y-39509047D01*
X118952857Y-39794761D02*
X118857619Y-39842380D01*
X118857619Y-39842380D02*
X118667143Y-39842380D01*
X118667143Y-39842380D02*
X118571905Y-39794761D01*
X118571905Y-39794761D02*
X118524286Y-39699523D01*
X118524286Y-39699523D02*
X118524286Y-39651904D01*
X118524286Y-39651904D02*
X118571905Y-39556666D01*
X118571905Y-39556666D02*
X118667143Y-39509047D01*
X118667143Y-39509047D02*
X118810000Y-39509047D01*
X118810000Y-39509047D02*
X118905238Y-39461428D01*
X118905238Y-39461428D02*
X118952857Y-39366190D01*
X118952857Y-39366190D02*
X118952857Y-39318571D01*
X118952857Y-39318571D02*
X118905238Y-39223333D01*
X118905238Y-39223333D02*
X118810000Y-39175714D01*
X118810000Y-39175714D02*
X118667143Y-39175714D01*
X118667143Y-39175714D02*
X118571905Y-39223333D01*
X118095714Y-39842380D02*
X118095714Y-39175714D01*
X118095714Y-38842380D02*
X118143333Y-38890000D01*
X118143333Y-38890000D02*
X118095714Y-38937619D01*
X118095714Y-38937619D02*
X118048095Y-38890000D01*
X118048095Y-38890000D02*
X118095714Y-38842380D01*
X118095714Y-38842380D02*
X118095714Y-38937619D01*
X117190953Y-39175714D02*
X117190953Y-39985238D01*
X117190953Y-39985238D02*
X117238572Y-40080476D01*
X117238572Y-40080476D02*
X117286191Y-40128095D01*
X117286191Y-40128095D02*
X117381429Y-40175714D01*
X117381429Y-40175714D02*
X117524286Y-40175714D01*
X117524286Y-40175714D02*
X117619524Y-40128095D01*
X117190953Y-39794761D02*
X117286191Y-39842380D01*
X117286191Y-39842380D02*
X117476667Y-39842380D01*
X117476667Y-39842380D02*
X117571905Y-39794761D01*
X117571905Y-39794761D02*
X117619524Y-39747142D01*
X117619524Y-39747142D02*
X117667143Y-39651904D01*
X117667143Y-39651904D02*
X117667143Y-39366190D01*
X117667143Y-39366190D02*
X117619524Y-39270952D01*
X117619524Y-39270952D02*
X117571905Y-39223333D01*
X117571905Y-39223333D02*
X117476667Y-39175714D01*
X117476667Y-39175714D02*
X117286191Y-39175714D01*
X117286191Y-39175714D02*
X117190953Y-39223333D01*
X116714762Y-39175714D02*
X116714762Y-39842380D01*
X116714762Y-39270952D02*
X116667143Y-39223333D01*
X116667143Y-39223333D02*
X116571905Y-39175714D01*
X116571905Y-39175714D02*
X116429048Y-39175714D01*
X116429048Y-39175714D02*
X116333810Y-39223333D01*
X116333810Y-39223333D02*
X116286191Y-39318571D01*
X116286191Y-39318571D02*
X116286191Y-39842380D01*
X115210000Y-39842380D02*
X115210000Y-38842380D01*
X115210000Y-39223333D02*
X115114762Y-39175714D01*
X115114762Y-39175714D02*
X114924286Y-39175714D01*
X114924286Y-39175714D02*
X114829048Y-39223333D01*
X114829048Y-39223333D02*
X114781429Y-39270952D01*
X114781429Y-39270952D02*
X114733810Y-39366190D01*
X114733810Y-39366190D02*
X114733810Y-39651904D01*
X114733810Y-39651904D02*
X114781429Y-39747142D01*
X114781429Y-39747142D02*
X114829048Y-39794761D01*
X114829048Y-39794761D02*
X114924286Y-39842380D01*
X114924286Y-39842380D02*
X115114762Y-39842380D01*
X115114762Y-39842380D02*
X115210000Y-39794761D01*
X114400476Y-39175714D02*
X114162381Y-39842380D01*
X113924286Y-39175714D02*
X114162381Y-39842380D01*
X114162381Y-39842380D02*
X114257619Y-40080476D01*
X114257619Y-40080476D02*
X114305238Y-40128095D01*
X114305238Y-40128095D02*
X114400476Y-40175714D01*
X112467143Y-39842380D02*
X112943333Y-39842380D01*
X112943333Y-39842380D02*
X112943333Y-38842380D01*
X111990952Y-39842380D02*
X112086190Y-39794761D01*
X112086190Y-39794761D02*
X112133809Y-39747142D01*
X112133809Y-39747142D02*
X112181428Y-39651904D01*
X112181428Y-39651904D02*
X112181428Y-39366190D01*
X112181428Y-39366190D02*
X112133809Y-39270952D01*
X112133809Y-39270952D02*
X112086190Y-39223333D01*
X112086190Y-39223333D02*
X111990952Y-39175714D01*
X111990952Y-39175714D02*
X111848095Y-39175714D01*
X111848095Y-39175714D02*
X111752857Y-39223333D01*
X111752857Y-39223333D02*
X111705238Y-39270952D01*
X111705238Y-39270952D02*
X111657619Y-39366190D01*
X111657619Y-39366190D02*
X111657619Y-39651904D01*
X111657619Y-39651904D02*
X111705238Y-39747142D01*
X111705238Y-39747142D02*
X111752857Y-39794761D01*
X111752857Y-39794761D02*
X111848095Y-39842380D01*
X111848095Y-39842380D02*
X111990952Y-39842380D01*
X111229047Y-39842380D02*
X111229047Y-39175714D01*
X111229047Y-39366190D02*
X111181428Y-39270952D01*
X111181428Y-39270952D02*
X111133809Y-39223333D01*
X111133809Y-39223333D02*
X111038571Y-39175714D01*
X111038571Y-39175714D02*
X110943333Y-39175714D01*
X110229047Y-39794761D02*
X110324285Y-39842380D01*
X110324285Y-39842380D02*
X110514761Y-39842380D01*
X110514761Y-39842380D02*
X110609999Y-39794761D01*
X110609999Y-39794761D02*
X110657618Y-39699523D01*
X110657618Y-39699523D02*
X110657618Y-39318571D01*
X110657618Y-39318571D02*
X110609999Y-39223333D01*
X110609999Y-39223333D02*
X110514761Y-39175714D01*
X110514761Y-39175714D02*
X110324285Y-39175714D01*
X110324285Y-39175714D02*
X110229047Y-39223333D01*
X110229047Y-39223333D02*
X110181428Y-39318571D01*
X110181428Y-39318571D02*
X110181428Y-39413809D01*
X110181428Y-39413809D02*
X110657618Y-39509047D01*
X109752856Y-39175714D02*
X109752856Y-39842380D01*
X109752856Y-39270952D02*
X109705237Y-39223333D01*
X109705237Y-39223333D02*
X109609999Y-39175714D01*
X109609999Y-39175714D02*
X109467142Y-39175714D01*
X109467142Y-39175714D02*
X109371904Y-39223333D01*
X109371904Y-39223333D02*
X109324285Y-39318571D01*
X109324285Y-39318571D02*
X109324285Y-39842380D01*
X108943332Y-39175714D02*
X108419523Y-39175714D01*
X108419523Y-39175714D02*
X108943332Y-39842380D01*
X108943332Y-39842380D02*
X108419523Y-39842380D01*
X107438570Y-39842380D02*
X107438570Y-38842380D01*
X107438570Y-38842380D02*
X106867142Y-39842380D01*
X106867142Y-39842380D02*
X106867142Y-38842380D01*
X106009999Y-39794761D02*
X106105237Y-39842380D01*
X106105237Y-39842380D02*
X106295713Y-39842380D01*
X106295713Y-39842380D02*
X106390951Y-39794761D01*
X106390951Y-39794761D02*
X106438570Y-39699523D01*
X106438570Y-39699523D02*
X106438570Y-39318571D01*
X106438570Y-39318571D02*
X106390951Y-39223333D01*
X106390951Y-39223333D02*
X106295713Y-39175714D01*
X106295713Y-39175714D02*
X106105237Y-39175714D01*
X106105237Y-39175714D02*
X106009999Y-39223333D01*
X106009999Y-39223333D02*
X105962380Y-39318571D01*
X105962380Y-39318571D02*
X105962380Y-39413809D01*
X105962380Y-39413809D02*
X106438570Y-39509047D01*
X105105237Y-39175714D02*
X105105237Y-39842380D01*
X105533808Y-39175714D02*
X105533808Y-39699523D01*
X105533808Y-39699523D02*
X105486189Y-39794761D01*
X105486189Y-39794761D02*
X105390951Y-39842380D01*
X105390951Y-39842380D02*
X105248094Y-39842380D01*
X105248094Y-39842380D02*
X105152856Y-39794761D01*
X105152856Y-39794761D02*
X105105237Y-39747142D01*
X104629046Y-39842380D02*
X104629046Y-39175714D01*
X104629046Y-39270952D02*
X104581427Y-39223333D01*
X104581427Y-39223333D02*
X104486189Y-39175714D01*
X104486189Y-39175714D02*
X104343332Y-39175714D01*
X104343332Y-39175714D02*
X104248094Y-39223333D01*
X104248094Y-39223333D02*
X104200475Y-39318571D01*
X104200475Y-39318571D02*
X104200475Y-39842380D01*
X104200475Y-39318571D02*
X104152856Y-39223333D01*
X104152856Y-39223333D02*
X104057618Y-39175714D01*
X104057618Y-39175714D02*
X103914761Y-39175714D01*
X103914761Y-39175714D02*
X103819522Y-39223333D01*
X103819522Y-39223333D02*
X103771903Y-39318571D01*
X103771903Y-39318571D02*
X103771903Y-39842380D01*
X102867142Y-39842380D02*
X102867142Y-39318571D01*
X102867142Y-39318571D02*
X102914761Y-39223333D01*
X102914761Y-39223333D02*
X103009999Y-39175714D01*
X103009999Y-39175714D02*
X103200475Y-39175714D01*
X103200475Y-39175714D02*
X103295713Y-39223333D01*
X102867142Y-39794761D02*
X102962380Y-39842380D01*
X102962380Y-39842380D02*
X103200475Y-39842380D01*
X103200475Y-39842380D02*
X103295713Y-39794761D01*
X103295713Y-39794761D02*
X103343332Y-39699523D01*
X103343332Y-39699523D02*
X103343332Y-39604285D01*
X103343332Y-39604285D02*
X103295713Y-39509047D01*
X103295713Y-39509047D02*
X103200475Y-39461428D01*
X103200475Y-39461428D02*
X102962380Y-39461428D01*
X102962380Y-39461428D02*
X102867142Y-39413809D01*
X102390951Y-39175714D02*
X102390951Y-39842380D01*
X102390951Y-39270952D02*
X102343332Y-39223333D01*
X102343332Y-39223333D02*
X102248094Y-39175714D01*
X102248094Y-39175714D02*
X102105237Y-39175714D01*
X102105237Y-39175714D02*
X102009999Y-39223333D01*
X102009999Y-39223333D02*
X101962380Y-39318571D01*
X101962380Y-39318571D02*
X101962380Y-39842380D01*
X101486189Y-39175714D02*
X101486189Y-39842380D01*
X101486189Y-39270952D02*
X101438570Y-39223333D01*
X101438570Y-39223333D02*
X101343332Y-39175714D01*
X101343332Y-39175714D02*
X101200475Y-39175714D01*
X101200475Y-39175714D02*
X101105237Y-39223333D01*
X101105237Y-39223333D02*
X101057618Y-39318571D01*
X101057618Y-39318571D02*
X101057618Y-39842380D01*
X117305237Y-41367142D02*
X117352856Y-41414761D01*
X117352856Y-41414761D02*
X117495713Y-41462380D01*
X117495713Y-41462380D02*
X117590951Y-41462380D01*
X117590951Y-41462380D02*
X117733808Y-41414761D01*
X117733808Y-41414761D02*
X117829046Y-41319523D01*
X117829046Y-41319523D02*
X117876665Y-41224285D01*
X117876665Y-41224285D02*
X117924284Y-41033809D01*
X117924284Y-41033809D02*
X117924284Y-40890952D01*
X117924284Y-40890952D02*
X117876665Y-40700476D01*
X117876665Y-40700476D02*
X117829046Y-40605238D01*
X117829046Y-40605238D02*
X117733808Y-40510000D01*
X117733808Y-40510000D02*
X117590951Y-40462380D01*
X117590951Y-40462380D02*
X117495713Y-40462380D01*
X117495713Y-40462380D02*
X117352856Y-40510000D01*
X117352856Y-40510000D02*
X117305237Y-40557619D01*
X116305237Y-41367142D02*
X116352856Y-41414761D01*
X116352856Y-41414761D02*
X116495713Y-41462380D01*
X116495713Y-41462380D02*
X116590951Y-41462380D01*
X116590951Y-41462380D02*
X116733808Y-41414761D01*
X116733808Y-41414761D02*
X116829046Y-41319523D01*
X116829046Y-41319523D02*
X116876665Y-41224285D01*
X116876665Y-41224285D02*
X116924284Y-41033809D01*
X116924284Y-41033809D02*
X116924284Y-40890952D01*
X116924284Y-40890952D02*
X116876665Y-40700476D01*
X116876665Y-40700476D02*
X116829046Y-40605238D01*
X116829046Y-40605238D02*
X116733808Y-40510000D01*
X116733808Y-40510000D02*
X116590951Y-40462380D01*
X116590951Y-40462380D02*
X116495713Y-40462380D01*
X116495713Y-40462380D02*
X116352856Y-40510000D01*
X116352856Y-40510000D02*
X116305237Y-40557619D01*
X114943332Y-40938571D02*
X114800475Y-40986190D01*
X114800475Y-40986190D02*
X114752856Y-41033809D01*
X114752856Y-41033809D02*
X114705237Y-41129047D01*
X114705237Y-41129047D02*
X114705237Y-41271904D01*
X114705237Y-41271904D02*
X114752856Y-41367142D01*
X114752856Y-41367142D02*
X114800475Y-41414761D01*
X114800475Y-41414761D02*
X114895713Y-41462380D01*
X114895713Y-41462380D02*
X115276665Y-41462380D01*
X115276665Y-41462380D02*
X115276665Y-40462380D01*
X115276665Y-40462380D02*
X114943332Y-40462380D01*
X114943332Y-40462380D02*
X114848094Y-40510000D01*
X114848094Y-40510000D02*
X114800475Y-40557619D01*
X114800475Y-40557619D02*
X114752856Y-40652857D01*
X114752856Y-40652857D02*
X114752856Y-40748095D01*
X114752856Y-40748095D02*
X114800475Y-40843333D01*
X114800475Y-40843333D02*
X114848094Y-40890952D01*
X114848094Y-40890952D02*
X114943332Y-40938571D01*
X114943332Y-40938571D02*
X115276665Y-40938571D01*
X114086189Y-40986190D02*
X114086189Y-41462380D01*
X114419522Y-40462380D02*
X114086189Y-40986190D01*
X114086189Y-40986190D02*
X113752856Y-40462380D01*
X113419522Y-41081428D02*
X112657618Y-41081428D01*
X112181427Y-41462380D02*
X112181427Y-40462380D01*
X112181427Y-40462380D02*
X111609999Y-41462380D01*
X111609999Y-41462380D02*
X111609999Y-40462380D01*
X110562380Y-41367142D02*
X110609999Y-41414761D01*
X110609999Y-41414761D02*
X110752856Y-41462380D01*
X110752856Y-41462380D02*
X110848094Y-41462380D01*
X110848094Y-41462380D02*
X110990951Y-41414761D01*
X110990951Y-41414761D02*
X111086189Y-41319523D01*
X111086189Y-41319523D02*
X111133808Y-41224285D01*
X111133808Y-41224285D02*
X111181427Y-41033809D01*
X111181427Y-41033809D02*
X111181427Y-40890952D01*
X111181427Y-40890952D02*
X111133808Y-40700476D01*
X111133808Y-40700476D02*
X111086189Y-40605238D01*
X111086189Y-40605238D02*
X110990951Y-40510000D01*
X110990951Y-40510000D02*
X110848094Y-40462380D01*
X110848094Y-40462380D02*
X110752856Y-40462380D01*
X110752856Y-40462380D02*
X110609999Y-40510000D01*
X110609999Y-40510000D02*
X110562380Y-40557619D01*
X110133808Y-41081428D02*
X109371904Y-41081428D01*
X108943332Y-41414761D02*
X108800475Y-41462380D01*
X108800475Y-41462380D02*
X108562380Y-41462380D01*
X108562380Y-41462380D02*
X108467142Y-41414761D01*
X108467142Y-41414761D02*
X108419523Y-41367142D01*
X108419523Y-41367142D02*
X108371904Y-41271904D01*
X108371904Y-41271904D02*
X108371904Y-41176666D01*
X108371904Y-41176666D02*
X108419523Y-41081428D01*
X108419523Y-41081428D02*
X108467142Y-41033809D01*
X108467142Y-41033809D02*
X108562380Y-40986190D01*
X108562380Y-40986190D02*
X108752856Y-40938571D01*
X108752856Y-40938571D02*
X108848094Y-40890952D01*
X108848094Y-40890952D02*
X108895713Y-40843333D01*
X108895713Y-40843333D02*
X108943332Y-40748095D01*
X108943332Y-40748095D02*
X108943332Y-40652857D01*
X108943332Y-40652857D02*
X108895713Y-40557619D01*
X108895713Y-40557619D02*
X108848094Y-40510000D01*
X108848094Y-40510000D02*
X108752856Y-40462380D01*
X108752856Y-40462380D02*
X108514761Y-40462380D01*
X108514761Y-40462380D02*
X108371904Y-40510000D01*
X107990951Y-41176666D02*
X107514761Y-41176666D01*
X108086189Y-41462380D02*
X107752856Y-40462380D01*
X107752856Y-40462380D02*
X107419523Y-41462380D01*
X107086189Y-41081428D02*
X106324285Y-41081428D01*
X105419523Y-40795714D02*
X105419523Y-41462380D01*
X105657618Y-40414761D02*
X105895713Y-41129047D01*
X105895713Y-41129047D02*
X105276666Y-41129047D01*
X104895713Y-41367142D02*
X104848094Y-41414761D01*
X104848094Y-41414761D02*
X104895713Y-41462380D01*
X104895713Y-41462380D02*
X104943332Y-41414761D01*
X104943332Y-41414761D02*
X104895713Y-41367142D01*
X104895713Y-41367142D02*
X104895713Y-41462380D01*
X104229047Y-40462380D02*
X104133809Y-40462380D01*
X104133809Y-40462380D02*
X104038571Y-40510000D01*
X104038571Y-40510000D02*
X103990952Y-40557619D01*
X103990952Y-40557619D02*
X103943333Y-40652857D01*
X103943333Y-40652857D02*
X103895714Y-40843333D01*
X103895714Y-40843333D02*
X103895714Y-41081428D01*
X103895714Y-41081428D02*
X103943333Y-41271904D01*
X103943333Y-41271904D02*
X103990952Y-41367142D01*
X103990952Y-41367142D02*
X104038571Y-41414761D01*
X104038571Y-41414761D02*
X104133809Y-41462380D01*
X104133809Y-41462380D02*
X104229047Y-41462380D01*
X104229047Y-41462380D02*
X104324285Y-41414761D01*
X104324285Y-41414761D02*
X104371904Y-41367142D01*
X104371904Y-41367142D02*
X104419523Y-41271904D01*
X104419523Y-41271904D02*
X104467142Y-41081428D01*
X104467142Y-41081428D02*
X104467142Y-40843333D01*
X104467142Y-40843333D02*
X104419523Y-40652857D01*
X104419523Y-40652857D02*
X104371904Y-40557619D01*
X104371904Y-40557619D02*
X104324285Y-40510000D01*
X104324285Y-40510000D02*
X104229047Y-40462380D01*
X39977142Y-35222380D02*
X39310476Y-36222380D01*
X39310476Y-35222380D02*
X39977142Y-36222380D01*
X38453333Y-36222380D02*
X38929523Y-36222380D01*
X38929523Y-36222380D02*
X38929523Y-35222380D01*
X37548571Y-36222380D02*
X37881904Y-35746190D01*
X38119999Y-36222380D02*
X38119999Y-35222380D01*
X38119999Y-35222380D02*
X37739047Y-35222380D01*
X37739047Y-35222380D02*
X37643809Y-35270000D01*
X37643809Y-35270000D02*
X37596190Y-35317619D01*
X37596190Y-35317619D02*
X37548571Y-35412857D01*
X37548571Y-35412857D02*
X37548571Y-35555714D01*
X37548571Y-35555714D02*
X37596190Y-35650952D01*
X37596190Y-35650952D02*
X37643809Y-35698571D01*
X37643809Y-35698571D02*
X37739047Y-35746190D01*
X37739047Y-35746190D02*
X38119999Y-35746190D01*
X39691428Y-36842380D02*
X39500952Y-36842380D01*
X39500952Y-36842380D02*
X39405714Y-36890000D01*
X39405714Y-36890000D02*
X39310476Y-36985238D01*
X39310476Y-36985238D02*
X39262857Y-37175714D01*
X39262857Y-37175714D02*
X39262857Y-37509047D01*
X39262857Y-37509047D02*
X39310476Y-37699523D01*
X39310476Y-37699523D02*
X39405714Y-37794761D01*
X39405714Y-37794761D02*
X39500952Y-37842380D01*
X39500952Y-37842380D02*
X39691428Y-37842380D01*
X39691428Y-37842380D02*
X39786666Y-37794761D01*
X39786666Y-37794761D02*
X39881904Y-37699523D01*
X39881904Y-37699523D02*
X39929523Y-37509047D01*
X39929523Y-37509047D02*
X39929523Y-37175714D01*
X39929523Y-37175714D02*
X39881904Y-36985238D01*
X39881904Y-36985238D02*
X39786666Y-36890000D01*
X39786666Y-36890000D02*
X39691428Y-36842380D01*
X38834285Y-36842380D02*
X38834285Y-37651904D01*
X38834285Y-37651904D02*
X38786666Y-37747142D01*
X38786666Y-37747142D02*
X38739047Y-37794761D01*
X38739047Y-37794761D02*
X38643809Y-37842380D01*
X38643809Y-37842380D02*
X38453333Y-37842380D01*
X38453333Y-37842380D02*
X38358095Y-37794761D01*
X38358095Y-37794761D02*
X38310476Y-37747142D01*
X38310476Y-37747142D02*
X38262857Y-37651904D01*
X38262857Y-37651904D02*
X38262857Y-36842380D01*
X37929523Y-36842380D02*
X37358095Y-36842380D01*
X37643809Y-37842380D02*
X37643809Y-36842380D01*
X36500952Y-37842380D02*
X37072380Y-37842380D01*
X36786666Y-37842380D02*
X36786666Y-36842380D01*
X36786666Y-36842380D02*
X36881904Y-36985238D01*
X36881904Y-36985238D02*
X36977142Y-37080476D01*
X36977142Y-37080476D02*
X37072380Y-37128095D01*
X67077142Y-35222380D02*
X66410476Y-36222380D01*
X66410476Y-35222380D02*
X67077142Y-36222380D01*
X65553333Y-36222380D02*
X66029523Y-36222380D01*
X66029523Y-36222380D02*
X66029523Y-35222380D01*
X64648571Y-36222380D02*
X64981904Y-35746190D01*
X65219999Y-36222380D02*
X65219999Y-35222380D01*
X65219999Y-35222380D02*
X64839047Y-35222380D01*
X64839047Y-35222380D02*
X64743809Y-35270000D01*
X64743809Y-35270000D02*
X64696190Y-35317619D01*
X64696190Y-35317619D02*
X64648571Y-35412857D01*
X64648571Y-35412857D02*
X64648571Y-35555714D01*
X64648571Y-35555714D02*
X64696190Y-35650952D01*
X64696190Y-35650952D02*
X64743809Y-35698571D01*
X64743809Y-35698571D02*
X64839047Y-35746190D01*
X64839047Y-35746190D02*
X65219999Y-35746190D01*
X66791428Y-36842380D02*
X66600952Y-36842380D01*
X66600952Y-36842380D02*
X66505714Y-36890000D01*
X66505714Y-36890000D02*
X66410476Y-36985238D01*
X66410476Y-36985238D02*
X66362857Y-37175714D01*
X66362857Y-37175714D02*
X66362857Y-37509047D01*
X66362857Y-37509047D02*
X66410476Y-37699523D01*
X66410476Y-37699523D02*
X66505714Y-37794761D01*
X66505714Y-37794761D02*
X66600952Y-37842380D01*
X66600952Y-37842380D02*
X66791428Y-37842380D01*
X66791428Y-37842380D02*
X66886666Y-37794761D01*
X66886666Y-37794761D02*
X66981904Y-37699523D01*
X66981904Y-37699523D02*
X67029523Y-37509047D01*
X67029523Y-37509047D02*
X67029523Y-37175714D01*
X67029523Y-37175714D02*
X66981904Y-36985238D01*
X66981904Y-36985238D02*
X66886666Y-36890000D01*
X66886666Y-36890000D02*
X66791428Y-36842380D01*
X65934285Y-36842380D02*
X65934285Y-37651904D01*
X65934285Y-37651904D02*
X65886666Y-37747142D01*
X65886666Y-37747142D02*
X65839047Y-37794761D01*
X65839047Y-37794761D02*
X65743809Y-37842380D01*
X65743809Y-37842380D02*
X65553333Y-37842380D01*
X65553333Y-37842380D02*
X65458095Y-37794761D01*
X65458095Y-37794761D02*
X65410476Y-37747142D01*
X65410476Y-37747142D02*
X65362857Y-37651904D01*
X65362857Y-37651904D02*
X65362857Y-36842380D01*
X65029523Y-36842380D02*
X64458095Y-36842380D01*
X64743809Y-37842380D02*
X64743809Y-36842380D01*
X64172380Y-36937619D02*
X64124761Y-36890000D01*
X64124761Y-36890000D02*
X64029523Y-36842380D01*
X64029523Y-36842380D02*
X63791428Y-36842380D01*
X63791428Y-36842380D02*
X63696190Y-36890000D01*
X63696190Y-36890000D02*
X63648571Y-36937619D01*
X63648571Y-36937619D02*
X63600952Y-37032857D01*
X63600952Y-37032857D02*
X63600952Y-37128095D01*
X63600952Y-37128095D02*
X63648571Y-37270952D01*
X63648571Y-37270952D02*
X64219999Y-37842380D01*
X64219999Y-37842380D02*
X63600952Y-37842380D01*
X98307142Y-35222380D02*
X97640476Y-36222380D01*
X97640476Y-35222380D02*
X98307142Y-36222380D01*
X96783333Y-36222380D02*
X97259523Y-36222380D01*
X97259523Y-36222380D02*
X97259523Y-35222380D01*
X95878571Y-36222380D02*
X96211904Y-35746190D01*
X96449999Y-36222380D02*
X96449999Y-35222380D01*
X96449999Y-35222380D02*
X96069047Y-35222380D01*
X96069047Y-35222380D02*
X95973809Y-35270000D01*
X95973809Y-35270000D02*
X95926190Y-35317619D01*
X95926190Y-35317619D02*
X95878571Y-35412857D01*
X95878571Y-35412857D02*
X95878571Y-35555714D01*
X95878571Y-35555714D02*
X95926190Y-35650952D01*
X95926190Y-35650952D02*
X95973809Y-35698571D01*
X95973809Y-35698571D02*
X96069047Y-35746190D01*
X96069047Y-35746190D02*
X96449999Y-35746190D01*
X98211904Y-37842380D02*
X98211904Y-36842380D01*
X97735714Y-37842380D02*
X97735714Y-36842380D01*
X97735714Y-36842380D02*
X97164286Y-37842380D01*
X97164286Y-37842380D02*
X97164286Y-36842380D01*
X96735714Y-36937619D02*
X96688095Y-36890000D01*
X96688095Y-36890000D02*
X96592857Y-36842380D01*
X96592857Y-36842380D02*
X96354762Y-36842380D01*
X96354762Y-36842380D02*
X96259524Y-36890000D01*
X96259524Y-36890000D02*
X96211905Y-36937619D01*
X96211905Y-36937619D02*
X96164286Y-37032857D01*
X96164286Y-37032857D02*
X96164286Y-37128095D01*
X96164286Y-37128095D02*
X96211905Y-37270952D01*
X96211905Y-37270952D02*
X96783333Y-37842380D01*
X96783333Y-37842380D02*
X96164286Y-37842380D01*
X125267142Y-35222380D02*
X124600476Y-36222380D01*
X124600476Y-35222380D02*
X125267142Y-36222380D01*
X123743333Y-36222380D02*
X124219523Y-36222380D01*
X124219523Y-36222380D02*
X124219523Y-35222380D01*
X122838571Y-36222380D02*
X123171904Y-35746190D01*
X123409999Y-36222380D02*
X123409999Y-35222380D01*
X123409999Y-35222380D02*
X123029047Y-35222380D01*
X123029047Y-35222380D02*
X122933809Y-35270000D01*
X122933809Y-35270000D02*
X122886190Y-35317619D01*
X122886190Y-35317619D02*
X122838571Y-35412857D01*
X122838571Y-35412857D02*
X122838571Y-35555714D01*
X122838571Y-35555714D02*
X122886190Y-35650952D01*
X122886190Y-35650952D02*
X122933809Y-35698571D01*
X122933809Y-35698571D02*
X123029047Y-35746190D01*
X123029047Y-35746190D02*
X123409999Y-35746190D01*
X125171904Y-37842380D02*
X125171904Y-36842380D01*
X124695714Y-37842380D02*
X124695714Y-36842380D01*
X124695714Y-36842380D02*
X124124286Y-37842380D01*
X124124286Y-37842380D02*
X124124286Y-36842380D01*
X123124286Y-37842380D02*
X123695714Y-37842380D01*
X123410000Y-37842380D02*
X123410000Y-36842380D01*
X123410000Y-36842380D02*
X123505238Y-36985238D01*
X123505238Y-36985238D02*
X123600476Y-37080476D01*
X123600476Y-37080476D02*
X123695714Y-37128095D01*
X91183456Y-48160000D02*
G75*
G03*
X91183456Y-48160000I-363456J0D01*
G01*
X72553456Y-51940000D02*
G75*
G03*
X72553456Y-51940000I-363456J0D01*
G01*
X131173456Y-45930000D02*
G75*
G03*
X131173456Y-45930000I-363456J0D01*
G01*
X111783456Y-45560000D02*
G75*
G03*
X111783456Y-45560000I-363456J0D01*
G01*
X48323456Y-54610000D02*
G75*
G03*
X48323456Y-54610000I-363456J0D01*
G01*
X48263456Y-43470000D02*
G75*
G03*
X48263456Y-43470000I-363456J0D01*
G01*
X18363456Y-38720000D02*
G75*
G03*
X18363456Y-38720000I-363456J0D01*
G01*
X113881428Y-54612380D02*
X113690952Y-54612380D01*
X113690952Y-54612380D02*
X113595714Y-54660000D01*
X113595714Y-54660000D02*
X113500476Y-54755238D01*
X113500476Y-54755238D02*
X113452857Y-54945714D01*
X113452857Y-54945714D02*
X113452857Y-55279047D01*
X113452857Y-55279047D02*
X113500476Y-55469523D01*
X113500476Y-55469523D02*
X113595714Y-55564761D01*
X113595714Y-55564761D02*
X113690952Y-55612380D01*
X113690952Y-55612380D02*
X113881428Y-55612380D01*
X113881428Y-55612380D02*
X113976666Y-55564761D01*
X113976666Y-55564761D02*
X114071904Y-55469523D01*
X114071904Y-55469523D02*
X114119523Y-55279047D01*
X114119523Y-55279047D02*
X114119523Y-54945714D01*
X114119523Y-54945714D02*
X114071904Y-54755238D01*
X114071904Y-54755238D02*
X113976666Y-54660000D01*
X113976666Y-54660000D02*
X113881428Y-54612380D01*
X113024285Y-54612380D02*
X113024285Y-55421904D01*
X113024285Y-55421904D02*
X112976666Y-55517142D01*
X112976666Y-55517142D02*
X112929047Y-55564761D01*
X112929047Y-55564761D02*
X112833809Y-55612380D01*
X112833809Y-55612380D02*
X112643333Y-55612380D01*
X112643333Y-55612380D02*
X112548095Y-55564761D01*
X112548095Y-55564761D02*
X112500476Y-55517142D01*
X112500476Y-55517142D02*
X112452857Y-55421904D01*
X112452857Y-55421904D02*
X112452857Y-54612380D01*
X112119523Y-54612380D02*
X111548095Y-54612380D01*
X111833809Y-55612380D02*
X111833809Y-54612380D01*
X111262380Y-54707619D02*
X111214761Y-54660000D01*
X111214761Y-54660000D02*
X111119523Y-54612380D01*
X111119523Y-54612380D02*
X110881428Y-54612380D01*
X110881428Y-54612380D02*
X110786190Y-54660000D01*
X110786190Y-54660000D02*
X110738571Y-54707619D01*
X110738571Y-54707619D02*
X110690952Y-54802857D01*
X110690952Y-54802857D02*
X110690952Y-54898095D01*
X110690952Y-54898095D02*
X110738571Y-55040952D01*
X110738571Y-55040952D02*
X111309999Y-55612380D01*
X111309999Y-55612380D02*
X110690952Y-55612380D01*
X85734761Y-42302380D02*
X85401428Y-43302380D01*
X85401428Y-43302380D02*
X85068095Y-42302380D01*
X84734761Y-42921428D02*
X83972857Y-42921428D01*
X84353809Y-43302380D02*
X84353809Y-42540476D01*
X42531904Y-55482380D02*
X42531904Y-54482380D01*
X42055714Y-55482380D02*
X42055714Y-54482380D01*
X42055714Y-54482380D02*
X41484286Y-55482380D01*
X41484286Y-55482380D02*
X41484286Y-54482380D01*
X40484286Y-55482380D02*
X41055714Y-55482380D01*
X40770000Y-55482380D02*
X40770000Y-54482380D01*
X40770000Y-54482380D02*
X40865238Y-54625238D01*
X40865238Y-54625238D02*
X40960476Y-54720476D01*
X40960476Y-54720476D02*
X41055714Y-54768095D01*
X85674761Y-47752380D02*
X85341428Y-48752380D01*
X85341428Y-48752380D02*
X85008095Y-47752380D01*
X84674761Y-48371428D02*
X83912857Y-48371428D01*
X109458095Y-54660000D02*
X109553333Y-54612380D01*
X109553333Y-54612380D02*
X109696190Y-54612380D01*
X109696190Y-54612380D02*
X109839047Y-54660000D01*
X109839047Y-54660000D02*
X109934285Y-54755238D01*
X109934285Y-54755238D02*
X109981904Y-54850476D01*
X109981904Y-54850476D02*
X110029523Y-55040952D01*
X110029523Y-55040952D02*
X110029523Y-55183809D01*
X110029523Y-55183809D02*
X109981904Y-55374285D01*
X109981904Y-55374285D02*
X109934285Y-55469523D01*
X109934285Y-55469523D02*
X109839047Y-55564761D01*
X109839047Y-55564761D02*
X109696190Y-55612380D01*
X109696190Y-55612380D02*
X109600952Y-55612380D01*
X109600952Y-55612380D02*
X109458095Y-55564761D01*
X109458095Y-55564761D02*
X109410476Y-55517142D01*
X109410476Y-55517142D02*
X109410476Y-55183809D01*
X109410476Y-55183809D02*
X109600952Y-55183809D01*
X108981904Y-55612380D02*
X108981904Y-54612380D01*
X108981904Y-54612380D02*
X108410476Y-55612380D01*
X108410476Y-55612380D02*
X108410476Y-54612380D01*
X107934285Y-55612380D02*
X107934285Y-54612380D01*
X107934285Y-54612380D02*
X107696190Y-54612380D01*
X107696190Y-54612380D02*
X107553333Y-54660000D01*
X107553333Y-54660000D02*
X107458095Y-54755238D01*
X107458095Y-54755238D02*
X107410476Y-54850476D01*
X107410476Y-54850476D02*
X107362857Y-55040952D01*
X107362857Y-55040952D02*
X107362857Y-55183809D01*
X107362857Y-55183809D02*
X107410476Y-55374285D01*
X107410476Y-55374285D02*
X107458095Y-55469523D01*
X107458095Y-55469523D02*
X107553333Y-55564761D01*
X107553333Y-55564761D02*
X107696190Y-55612380D01*
X107696190Y-55612380D02*
X107934285Y-55612380D01*
X33211904Y-55272380D02*
X33211904Y-54272380D01*
X32735714Y-55272380D02*
X32735714Y-54272380D01*
X32735714Y-54272380D02*
X32164286Y-55272380D01*
X32164286Y-55272380D02*
X32164286Y-54272380D01*
X31735714Y-54367619D02*
X31688095Y-54320000D01*
X31688095Y-54320000D02*
X31592857Y-54272380D01*
X31592857Y-54272380D02*
X31354762Y-54272380D01*
X31354762Y-54272380D02*
X31259524Y-54320000D01*
X31259524Y-54320000D02*
X31211905Y-54367619D01*
X31211905Y-54367619D02*
X31164286Y-54462857D01*
X31164286Y-54462857D02*
X31164286Y-54558095D01*
X31164286Y-54558095D02*
X31211905Y-54700952D01*
X31211905Y-54700952D02*
X31783333Y-55272380D01*
X31783333Y-55272380D02*
X31164286Y-55272380D01*
X39178095Y-54530000D02*
X39273333Y-54482380D01*
X39273333Y-54482380D02*
X39416190Y-54482380D01*
X39416190Y-54482380D02*
X39559047Y-54530000D01*
X39559047Y-54530000D02*
X39654285Y-54625238D01*
X39654285Y-54625238D02*
X39701904Y-54720476D01*
X39701904Y-54720476D02*
X39749523Y-54910952D01*
X39749523Y-54910952D02*
X39749523Y-55053809D01*
X39749523Y-55053809D02*
X39701904Y-55244285D01*
X39701904Y-55244285D02*
X39654285Y-55339523D01*
X39654285Y-55339523D02*
X39559047Y-55434761D01*
X39559047Y-55434761D02*
X39416190Y-55482380D01*
X39416190Y-55482380D02*
X39320952Y-55482380D01*
X39320952Y-55482380D02*
X39178095Y-55434761D01*
X39178095Y-55434761D02*
X39130476Y-55387142D01*
X39130476Y-55387142D02*
X39130476Y-55053809D01*
X39130476Y-55053809D02*
X39320952Y-55053809D01*
X38701904Y-55482380D02*
X38701904Y-54482380D01*
X38701904Y-54482380D02*
X38130476Y-55482380D01*
X38130476Y-55482380D02*
X38130476Y-54482380D01*
X37654285Y-55482380D02*
X37654285Y-54482380D01*
X37654285Y-54482380D02*
X37416190Y-54482380D01*
X37416190Y-54482380D02*
X37273333Y-54530000D01*
X37273333Y-54530000D02*
X37178095Y-54625238D01*
X37178095Y-54625238D02*
X37130476Y-54720476D01*
X37130476Y-54720476D02*
X37082857Y-54910952D01*
X37082857Y-54910952D02*
X37082857Y-55053809D01*
X37082857Y-55053809D02*
X37130476Y-55244285D01*
X37130476Y-55244285D02*
X37178095Y-55339523D01*
X37178095Y-55339523D02*
X37273333Y-55434761D01*
X37273333Y-55434761D02*
X37416190Y-55482380D01*
X37416190Y-55482380D02*
X37654285Y-55482380D01*
X133921428Y-54722380D02*
X133730952Y-54722380D01*
X133730952Y-54722380D02*
X133635714Y-54770000D01*
X133635714Y-54770000D02*
X133540476Y-54865238D01*
X133540476Y-54865238D02*
X133492857Y-55055714D01*
X133492857Y-55055714D02*
X133492857Y-55389047D01*
X133492857Y-55389047D02*
X133540476Y-55579523D01*
X133540476Y-55579523D02*
X133635714Y-55674761D01*
X133635714Y-55674761D02*
X133730952Y-55722380D01*
X133730952Y-55722380D02*
X133921428Y-55722380D01*
X133921428Y-55722380D02*
X134016666Y-55674761D01*
X134016666Y-55674761D02*
X134111904Y-55579523D01*
X134111904Y-55579523D02*
X134159523Y-55389047D01*
X134159523Y-55389047D02*
X134159523Y-55055714D01*
X134159523Y-55055714D02*
X134111904Y-54865238D01*
X134111904Y-54865238D02*
X134016666Y-54770000D01*
X134016666Y-54770000D02*
X133921428Y-54722380D01*
X133064285Y-54722380D02*
X133064285Y-55531904D01*
X133064285Y-55531904D02*
X133016666Y-55627142D01*
X133016666Y-55627142D02*
X132969047Y-55674761D01*
X132969047Y-55674761D02*
X132873809Y-55722380D01*
X132873809Y-55722380D02*
X132683333Y-55722380D01*
X132683333Y-55722380D02*
X132588095Y-55674761D01*
X132588095Y-55674761D02*
X132540476Y-55627142D01*
X132540476Y-55627142D02*
X132492857Y-55531904D01*
X132492857Y-55531904D02*
X132492857Y-54722380D01*
X132159523Y-54722380D02*
X131588095Y-54722380D01*
X131873809Y-55722380D02*
X131873809Y-54722380D01*
X130730952Y-55722380D02*
X131302380Y-55722380D01*
X131016666Y-55722380D02*
X131016666Y-54722380D01*
X131016666Y-54722380D02*
X131111904Y-54865238D01*
X131111904Y-54865238D02*
X131207142Y-54960476D01*
X131207142Y-54960476D02*
X131302380Y-55008095D01*
X85998095Y-45210000D02*
X86093333Y-45162380D01*
X86093333Y-45162380D02*
X86236190Y-45162380D01*
X86236190Y-45162380D02*
X86379047Y-45210000D01*
X86379047Y-45210000D02*
X86474285Y-45305238D01*
X86474285Y-45305238D02*
X86521904Y-45400476D01*
X86521904Y-45400476D02*
X86569523Y-45590952D01*
X86569523Y-45590952D02*
X86569523Y-45733809D01*
X86569523Y-45733809D02*
X86521904Y-45924285D01*
X86521904Y-45924285D02*
X86474285Y-46019523D01*
X86474285Y-46019523D02*
X86379047Y-46114761D01*
X86379047Y-46114761D02*
X86236190Y-46162380D01*
X86236190Y-46162380D02*
X86140952Y-46162380D01*
X86140952Y-46162380D02*
X85998095Y-46114761D01*
X85998095Y-46114761D02*
X85950476Y-46067142D01*
X85950476Y-46067142D02*
X85950476Y-45733809D01*
X85950476Y-45733809D02*
X86140952Y-45733809D01*
X85521904Y-46162380D02*
X85521904Y-45162380D01*
X85521904Y-45162380D02*
X84950476Y-46162380D01*
X84950476Y-46162380D02*
X84950476Y-45162380D01*
X84474285Y-46162380D02*
X84474285Y-45162380D01*
X84474285Y-45162380D02*
X84236190Y-45162380D01*
X84236190Y-45162380D02*
X84093333Y-45210000D01*
X84093333Y-45210000D02*
X83998095Y-45305238D01*
X83998095Y-45305238D02*
X83950476Y-45400476D01*
X83950476Y-45400476D02*
X83902857Y-45590952D01*
X83902857Y-45590952D02*
X83902857Y-45733809D01*
X83902857Y-45733809D02*
X83950476Y-45924285D01*
X83950476Y-45924285D02*
X83998095Y-46019523D01*
X83998095Y-46019523D02*
X84093333Y-46114761D01*
X84093333Y-46114761D02*
X84236190Y-46162380D01*
X84236190Y-46162380D02*
X84474285Y-46162380D01*
X129248095Y-54810000D02*
X129343333Y-54762380D01*
X129343333Y-54762380D02*
X129486190Y-54762380D01*
X129486190Y-54762380D02*
X129629047Y-54810000D01*
X129629047Y-54810000D02*
X129724285Y-54905238D01*
X129724285Y-54905238D02*
X129771904Y-55000476D01*
X129771904Y-55000476D02*
X129819523Y-55190952D01*
X129819523Y-55190952D02*
X129819523Y-55333809D01*
X129819523Y-55333809D02*
X129771904Y-55524285D01*
X129771904Y-55524285D02*
X129724285Y-55619523D01*
X129724285Y-55619523D02*
X129629047Y-55714761D01*
X129629047Y-55714761D02*
X129486190Y-55762380D01*
X129486190Y-55762380D02*
X129390952Y-55762380D01*
X129390952Y-55762380D02*
X129248095Y-55714761D01*
X129248095Y-55714761D02*
X129200476Y-55667142D01*
X129200476Y-55667142D02*
X129200476Y-55333809D01*
X129200476Y-55333809D02*
X129390952Y-55333809D01*
X128771904Y-55762380D02*
X128771904Y-54762380D01*
X128771904Y-54762380D02*
X128200476Y-55762380D01*
X128200476Y-55762380D02*
X128200476Y-54762380D01*
X127724285Y-55762380D02*
X127724285Y-54762380D01*
X127724285Y-54762380D02*
X127486190Y-54762380D01*
X127486190Y-54762380D02*
X127343333Y-54810000D01*
X127343333Y-54810000D02*
X127248095Y-54905238D01*
X127248095Y-54905238D02*
X127200476Y-55000476D01*
X127200476Y-55000476D02*
X127152857Y-55190952D01*
X127152857Y-55190952D02*
X127152857Y-55333809D01*
X127152857Y-55333809D02*
X127200476Y-55524285D01*
X127200476Y-55524285D02*
X127248095Y-55619523D01*
X127248095Y-55619523D02*
X127343333Y-55714761D01*
X127343333Y-55714761D02*
X127486190Y-55762380D01*
X127486190Y-55762380D02*
X127724285Y-55762380D01*
X29648095Y-54440000D02*
X29743333Y-54392380D01*
X29743333Y-54392380D02*
X29886190Y-54392380D01*
X29886190Y-54392380D02*
X30029047Y-54440000D01*
X30029047Y-54440000D02*
X30124285Y-54535238D01*
X30124285Y-54535238D02*
X30171904Y-54630476D01*
X30171904Y-54630476D02*
X30219523Y-54820952D01*
X30219523Y-54820952D02*
X30219523Y-54963809D01*
X30219523Y-54963809D02*
X30171904Y-55154285D01*
X30171904Y-55154285D02*
X30124285Y-55249523D01*
X30124285Y-55249523D02*
X30029047Y-55344761D01*
X30029047Y-55344761D02*
X29886190Y-55392380D01*
X29886190Y-55392380D02*
X29790952Y-55392380D01*
X29790952Y-55392380D02*
X29648095Y-55344761D01*
X29648095Y-55344761D02*
X29600476Y-55297142D01*
X29600476Y-55297142D02*
X29600476Y-54963809D01*
X29600476Y-54963809D02*
X29790952Y-54963809D01*
X29171904Y-55392380D02*
X29171904Y-54392380D01*
X29171904Y-54392380D02*
X28600476Y-55392380D01*
X28600476Y-55392380D02*
X28600476Y-54392380D01*
X28124285Y-55392380D02*
X28124285Y-54392380D01*
X28124285Y-54392380D02*
X27886190Y-54392380D01*
X27886190Y-54392380D02*
X27743333Y-54440000D01*
X27743333Y-54440000D02*
X27648095Y-54535238D01*
X27648095Y-54535238D02*
X27600476Y-54630476D01*
X27600476Y-54630476D02*
X27552857Y-54820952D01*
X27552857Y-54820952D02*
X27552857Y-54963809D01*
X27552857Y-54963809D02*
X27600476Y-55154285D01*
X27600476Y-55154285D02*
X27648095Y-55249523D01*
X27648095Y-55249523D02*
X27743333Y-55344761D01*
X27743333Y-55344761D02*
X27886190Y-55392380D01*
X27886190Y-55392380D02*
X28124285Y-55392380D01*
%TO.C,U1*%
X44151904Y-40077380D02*
X44151904Y-40886904D01*
X44151904Y-40886904D02*
X44104285Y-40982142D01*
X44104285Y-40982142D02*
X44056666Y-41029761D01*
X44056666Y-41029761D02*
X43961428Y-41077380D01*
X43961428Y-41077380D02*
X43770952Y-41077380D01*
X43770952Y-41077380D02*
X43675714Y-41029761D01*
X43675714Y-41029761D02*
X43628095Y-40982142D01*
X43628095Y-40982142D02*
X43580476Y-40886904D01*
X43580476Y-40886904D02*
X43580476Y-40077380D01*
X42580476Y-41077380D02*
X43151904Y-41077380D01*
X42866190Y-41077380D02*
X42866190Y-40077380D01*
X42866190Y-40077380D02*
X42961428Y-40220238D01*
X42961428Y-40220238D02*
X43056666Y-40315476D01*
X43056666Y-40315476D02*
X43151904Y-40363095D01*
%TO.C,U4*%
X43971904Y-47997380D02*
X43971904Y-48806904D01*
X43971904Y-48806904D02*
X43924285Y-48902142D01*
X43924285Y-48902142D02*
X43876666Y-48949761D01*
X43876666Y-48949761D02*
X43781428Y-48997380D01*
X43781428Y-48997380D02*
X43590952Y-48997380D01*
X43590952Y-48997380D02*
X43495714Y-48949761D01*
X43495714Y-48949761D02*
X43448095Y-48902142D01*
X43448095Y-48902142D02*
X43400476Y-48806904D01*
X43400476Y-48806904D02*
X43400476Y-47997380D01*
X42495714Y-48330714D02*
X42495714Y-48997380D01*
X42733809Y-47949761D02*
X42971904Y-48664047D01*
X42971904Y-48664047D02*
X42352857Y-48664047D01*
%TO.C,C8*%
X60392142Y-47313333D02*
X60439761Y-47265714D01*
X60439761Y-47265714D02*
X60487380Y-47122857D01*
X60487380Y-47122857D02*
X60487380Y-47027619D01*
X60487380Y-47027619D02*
X60439761Y-46884762D01*
X60439761Y-46884762D02*
X60344523Y-46789524D01*
X60344523Y-46789524D02*
X60249285Y-46741905D01*
X60249285Y-46741905D02*
X60058809Y-46694286D01*
X60058809Y-46694286D02*
X59915952Y-46694286D01*
X59915952Y-46694286D02*
X59725476Y-46741905D01*
X59725476Y-46741905D02*
X59630238Y-46789524D01*
X59630238Y-46789524D02*
X59535000Y-46884762D01*
X59535000Y-46884762D02*
X59487380Y-47027619D01*
X59487380Y-47027619D02*
X59487380Y-47122857D01*
X59487380Y-47122857D02*
X59535000Y-47265714D01*
X59535000Y-47265714D02*
X59582619Y-47313333D01*
X59915952Y-47884762D02*
X59868333Y-47789524D01*
X59868333Y-47789524D02*
X59820714Y-47741905D01*
X59820714Y-47741905D02*
X59725476Y-47694286D01*
X59725476Y-47694286D02*
X59677857Y-47694286D01*
X59677857Y-47694286D02*
X59582619Y-47741905D01*
X59582619Y-47741905D02*
X59535000Y-47789524D01*
X59535000Y-47789524D02*
X59487380Y-47884762D01*
X59487380Y-47884762D02*
X59487380Y-48075238D01*
X59487380Y-48075238D02*
X59535000Y-48170476D01*
X59535000Y-48170476D02*
X59582619Y-48218095D01*
X59582619Y-48218095D02*
X59677857Y-48265714D01*
X59677857Y-48265714D02*
X59725476Y-48265714D01*
X59725476Y-48265714D02*
X59820714Y-48218095D01*
X59820714Y-48218095D02*
X59868333Y-48170476D01*
X59868333Y-48170476D02*
X59915952Y-48075238D01*
X59915952Y-48075238D02*
X59915952Y-47884762D01*
X59915952Y-47884762D02*
X59963571Y-47789524D01*
X59963571Y-47789524D02*
X60011190Y-47741905D01*
X60011190Y-47741905D02*
X60106428Y-47694286D01*
X60106428Y-47694286D02*
X60296904Y-47694286D01*
X60296904Y-47694286D02*
X60392142Y-47741905D01*
X60392142Y-47741905D02*
X60439761Y-47789524D01*
X60439761Y-47789524D02*
X60487380Y-47884762D01*
X60487380Y-47884762D02*
X60487380Y-48075238D01*
X60487380Y-48075238D02*
X60439761Y-48170476D01*
X60439761Y-48170476D02*
X60392142Y-48218095D01*
X60392142Y-48218095D02*
X60296904Y-48265714D01*
X60296904Y-48265714D02*
X60106428Y-48265714D01*
X60106428Y-48265714D02*
X60011190Y-48218095D01*
X60011190Y-48218095D02*
X59963571Y-48170476D01*
X59963571Y-48170476D02*
X59915952Y-48075238D01*
%TO.C,U6*%
X90731904Y-52887380D02*
X90731904Y-53696904D01*
X90731904Y-53696904D02*
X90684285Y-53792142D01*
X90684285Y-53792142D02*
X90636666Y-53839761D01*
X90636666Y-53839761D02*
X90541428Y-53887380D01*
X90541428Y-53887380D02*
X90350952Y-53887380D01*
X90350952Y-53887380D02*
X90255714Y-53839761D01*
X90255714Y-53839761D02*
X90208095Y-53792142D01*
X90208095Y-53792142D02*
X90160476Y-53696904D01*
X90160476Y-53696904D02*
X90160476Y-52887380D01*
X89255714Y-52887380D02*
X89446190Y-52887380D01*
X89446190Y-52887380D02*
X89541428Y-52935000D01*
X89541428Y-52935000D02*
X89589047Y-52982619D01*
X89589047Y-52982619D02*
X89684285Y-53125476D01*
X89684285Y-53125476D02*
X89731904Y-53315952D01*
X89731904Y-53315952D02*
X89731904Y-53696904D01*
X89731904Y-53696904D02*
X89684285Y-53792142D01*
X89684285Y-53792142D02*
X89636666Y-53839761D01*
X89636666Y-53839761D02*
X89541428Y-53887380D01*
X89541428Y-53887380D02*
X89350952Y-53887380D01*
X89350952Y-53887380D02*
X89255714Y-53839761D01*
X89255714Y-53839761D02*
X89208095Y-53792142D01*
X89208095Y-53792142D02*
X89160476Y-53696904D01*
X89160476Y-53696904D02*
X89160476Y-53458809D01*
X89160476Y-53458809D02*
X89208095Y-53363571D01*
X89208095Y-53363571D02*
X89255714Y-53315952D01*
X89255714Y-53315952D02*
X89350952Y-53268333D01*
X89350952Y-53268333D02*
X89541428Y-53268333D01*
X89541428Y-53268333D02*
X89636666Y-53315952D01*
X89636666Y-53315952D02*
X89684285Y-53363571D01*
X89684285Y-53363571D02*
X89731904Y-53458809D01*
%TO.C,C9*%
X89996666Y-39172142D02*
X90044285Y-39219761D01*
X90044285Y-39219761D02*
X90187142Y-39267380D01*
X90187142Y-39267380D02*
X90282380Y-39267380D01*
X90282380Y-39267380D02*
X90425237Y-39219761D01*
X90425237Y-39219761D02*
X90520475Y-39124523D01*
X90520475Y-39124523D02*
X90568094Y-39029285D01*
X90568094Y-39029285D02*
X90615713Y-38838809D01*
X90615713Y-38838809D02*
X90615713Y-38695952D01*
X90615713Y-38695952D02*
X90568094Y-38505476D01*
X90568094Y-38505476D02*
X90520475Y-38410238D01*
X90520475Y-38410238D02*
X90425237Y-38315000D01*
X90425237Y-38315000D02*
X90282380Y-38267380D01*
X90282380Y-38267380D02*
X90187142Y-38267380D01*
X90187142Y-38267380D02*
X90044285Y-38315000D01*
X90044285Y-38315000D02*
X89996666Y-38362619D01*
X89520475Y-39267380D02*
X89329999Y-39267380D01*
X89329999Y-39267380D02*
X89234761Y-39219761D01*
X89234761Y-39219761D02*
X89187142Y-39172142D01*
X89187142Y-39172142D02*
X89091904Y-39029285D01*
X89091904Y-39029285D02*
X89044285Y-38838809D01*
X89044285Y-38838809D02*
X89044285Y-38457857D01*
X89044285Y-38457857D02*
X89091904Y-38362619D01*
X89091904Y-38362619D02*
X89139523Y-38315000D01*
X89139523Y-38315000D02*
X89234761Y-38267380D01*
X89234761Y-38267380D02*
X89425237Y-38267380D01*
X89425237Y-38267380D02*
X89520475Y-38315000D01*
X89520475Y-38315000D02*
X89568094Y-38362619D01*
X89568094Y-38362619D02*
X89615713Y-38457857D01*
X89615713Y-38457857D02*
X89615713Y-38695952D01*
X89615713Y-38695952D02*
X89568094Y-38791190D01*
X89568094Y-38791190D02*
X89520475Y-38838809D01*
X89520475Y-38838809D02*
X89425237Y-38886428D01*
X89425237Y-38886428D02*
X89234761Y-38886428D01*
X89234761Y-38886428D02*
X89139523Y-38838809D01*
X89139523Y-38838809D02*
X89091904Y-38791190D01*
X89091904Y-38791190D02*
X89044285Y-38695952D01*
%TO.C,C12*%
X73522857Y-39072142D02*
X73570476Y-39119761D01*
X73570476Y-39119761D02*
X73713333Y-39167380D01*
X73713333Y-39167380D02*
X73808571Y-39167380D01*
X73808571Y-39167380D02*
X73951428Y-39119761D01*
X73951428Y-39119761D02*
X74046666Y-39024523D01*
X74046666Y-39024523D02*
X74094285Y-38929285D01*
X74094285Y-38929285D02*
X74141904Y-38738809D01*
X74141904Y-38738809D02*
X74141904Y-38595952D01*
X74141904Y-38595952D02*
X74094285Y-38405476D01*
X74094285Y-38405476D02*
X74046666Y-38310238D01*
X74046666Y-38310238D02*
X73951428Y-38215000D01*
X73951428Y-38215000D02*
X73808571Y-38167380D01*
X73808571Y-38167380D02*
X73713333Y-38167380D01*
X73713333Y-38167380D02*
X73570476Y-38215000D01*
X73570476Y-38215000D02*
X73522857Y-38262619D01*
X72570476Y-39167380D02*
X73141904Y-39167380D01*
X72856190Y-39167380D02*
X72856190Y-38167380D01*
X72856190Y-38167380D02*
X72951428Y-38310238D01*
X72951428Y-38310238D02*
X73046666Y-38405476D01*
X73046666Y-38405476D02*
X73141904Y-38453095D01*
X72189523Y-38262619D02*
X72141904Y-38215000D01*
X72141904Y-38215000D02*
X72046666Y-38167380D01*
X72046666Y-38167380D02*
X71808571Y-38167380D01*
X71808571Y-38167380D02*
X71713333Y-38215000D01*
X71713333Y-38215000D02*
X71665714Y-38262619D01*
X71665714Y-38262619D02*
X71618095Y-38357857D01*
X71618095Y-38357857D02*
X71618095Y-38453095D01*
X71618095Y-38453095D02*
X71665714Y-38595952D01*
X71665714Y-38595952D02*
X72237142Y-39167380D01*
X72237142Y-39167380D02*
X71618095Y-39167380D01*
%TO.C,C10*%
X96612142Y-49617142D02*
X96659761Y-49569523D01*
X96659761Y-49569523D02*
X96707380Y-49426666D01*
X96707380Y-49426666D02*
X96707380Y-49331428D01*
X96707380Y-49331428D02*
X96659761Y-49188571D01*
X96659761Y-49188571D02*
X96564523Y-49093333D01*
X96564523Y-49093333D02*
X96469285Y-49045714D01*
X96469285Y-49045714D02*
X96278809Y-48998095D01*
X96278809Y-48998095D02*
X96135952Y-48998095D01*
X96135952Y-48998095D02*
X95945476Y-49045714D01*
X95945476Y-49045714D02*
X95850238Y-49093333D01*
X95850238Y-49093333D02*
X95755000Y-49188571D01*
X95755000Y-49188571D02*
X95707380Y-49331428D01*
X95707380Y-49331428D02*
X95707380Y-49426666D01*
X95707380Y-49426666D02*
X95755000Y-49569523D01*
X95755000Y-49569523D02*
X95802619Y-49617142D01*
X96707380Y-50569523D02*
X96707380Y-49998095D01*
X96707380Y-50283809D02*
X95707380Y-50283809D01*
X95707380Y-50283809D02*
X95850238Y-50188571D01*
X95850238Y-50188571D02*
X95945476Y-50093333D01*
X95945476Y-50093333D02*
X95993095Y-49998095D01*
X95707380Y-51188571D02*
X95707380Y-51283809D01*
X95707380Y-51283809D02*
X95755000Y-51379047D01*
X95755000Y-51379047D02*
X95802619Y-51426666D01*
X95802619Y-51426666D02*
X95897857Y-51474285D01*
X95897857Y-51474285D02*
X96088333Y-51521904D01*
X96088333Y-51521904D02*
X96326428Y-51521904D01*
X96326428Y-51521904D02*
X96516904Y-51474285D01*
X96516904Y-51474285D02*
X96612142Y-51426666D01*
X96612142Y-51426666D02*
X96659761Y-51379047D01*
X96659761Y-51379047D02*
X96707380Y-51283809D01*
X96707380Y-51283809D02*
X96707380Y-51188571D01*
X96707380Y-51188571D02*
X96659761Y-51093333D01*
X96659761Y-51093333D02*
X96612142Y-51045714D01*
X96612142Y-51045714D02*
X96516904Y-50998095D01*
X96516904Y-50998095D02*
X96326428Y-50950476D01*
X96326428Y-50950476D02*
X96088333Y-50950476D01*
X96088333Y-50950476D02*
X95897857Y-50998095D01*
X95897857Y-50998095D02*
X95802619Y-51045714D01*
X95802619Y-51045714D02*
X95755000Y-51093333D01*
X95755000Y-51093333D02*
X95707380Y-51188571D01*
%TO.C,J5*%
X81763333Y-40167380D02*
X81763333Y-40881666D01*
X81763333Y-40881666D02*
X81810952Y-41024523D01*
X81810952Y-41024523D02*
X81906190Y-41119761D01*
X81906190Y-41119761D02*
X82049047Y-41167380D01*
X82049047Y-41167380D02*
X82144285Y-41167380D01*
X80810952Y-40167380D02*
X81287142Y-40167380D01*
X81287142Y-40167380D02*
X81334761Y-40643571D01*
X81334761Y-40643571D02*
X81287142Y-40595952D01*
X81287142Y-40595952D02*
X81191904Y-40548333D01*
X81191904Y-40548333D02*
X80953809Y-40548333D01*
X80953809Y-40548333D02*
X80858571Y-40595952D01*
X80858571Y-40595952D02*
X80810952Y-40643571D01*
X80810952Y-40643571D02*
X80763333Y-40738809D01*
X80763333Y-40738809D02*
X80763333Y-40976904D01*
X80763333Y-40976904D02*
X80810952Y-41072142D01*
X80810952Y-41072142D02*
X80858571Y-41119761D01*
X80858571Y-41119761D02*
X80953809Y-41167380D01*
X80953809Y-41167380D02*
X81191904Y-41167380D01*
X81191904Y-41167380D02*
X81287142Y-41119761D01*
X81287142Y-41119761D02*
X81334761Y-41072142D01*
%TO.C,U3*%
X130816904Y-43752380D02*
X130816904Y-44561904D01*
X130816904Y-44561904D02*
X130769285Y-44657142D01*
X130769285Y-44657142D02*
X130721666Y-44704761D01*
X130721666Y-44704761D02*
X130626428Y-44752380D01*
X130626428Y-44752380D02*
X130435952Y-44752380D01*
X130435952Y-44752380D02*
X130340714Y-44704761D01*
X130340714Y-44704761D02*
X130293095Y-44657142D01*
X130293095Y-44657142D02*
X130245476Y-44561904D01*
X130245476Y-44561904D02*
X130245476Y-43752380D01*
X129864523Y-43752380D02*
X129245476Y-43752380D01*
X129245476Y-43752380D02*
X129578809Y-44133333D01*
X129578809Y-44133333D02*
X129435952Y-44133333D01*
X129435952Y-44133333D02*
X129340714Y-44180952D01*
X129340714Y-44180952D02*
X129293095Y-44228571D01*
X129293095Y-44228571D02*
X129245476Y-44323809D01*
X129245476Y-44323809D02*
X129245476Y-44561904D01*
X129245476Y-44561904D02*
X129293095Y-44657142D01*
X129293095Y-44657142D02*
X129340714Y-44704761D01*
X129340714Y-44704761D02*
X129435952Y-44752380D01*
X129435952Y-44752380D02*
X129721666Y-44752380D01*
X129721666Y-44752380D02*
X129816904Y-44704761D01*
X129816904Y-44704761D02*
X129864523Y-44657142D01*
%TO.C,U5*%
X73656904Y-52822380D02*
X73656904Y-53631904D01*
X73656904Y-53631904D02*
X73609285Y-53727142D01*
X73609285Y-53727142D02*
X73561666Y-53774761D01*
X73561666Y-53774761D02*
X73466428Y-53822380D01*
X73466428Y-53822380D02*
X73275952Y-53822380D01*
X73275952Y-53822380D02*
X73180714Y-53774761D01*
X73180714Y-53774761D02*
X73133095Y-53727142D01*
X73133095Y-53727142D02*
X73085476Y-53631904D01*
X73085476Y-53631904D02*
X73085476Y-52822380D01*
X72133095Y-52822380D02*
X72609285Y-52822380D01*
X72609285Y-52822380D02*
X72656904Y-53298571D01*
X72656904Y-53298571D02*
X72609285Y-53250952D01*
X72609285Y-53250952D02*
X72514047Y-53203333D01*
X72514047Y-53203333D02*
X72275952Y-53203333D01*
X72275952Y-53203333D02*
X72180714Y-53250952D01*
X72180714Y-53250952D02*
X72133095Y-53298571D01*
X72133095Y-53298571D02*
X72085476Y-53393809D01*
X72085476Y-53393809D02*
X72085476Y-53631904D01*
X72085476Y-53631904D02*
X72133095Y-53727142D01*
X72133095Y-53727142D02*
X72180714Y-53774761D01*
X72180714Y-53774761D02*
X72275952Y-53822380D01*
X72275952Y-53822380D02*
X72514047Y-53822380D01*
X72514047Y-53822380D02*
X72609285Y-53774761D01*
X72609285Y-53774761D02*
X72656904Y-53727142D01*
%TO.C,C7*%
X60512142Y-52583333D02*
X60559761Y-52535714D01*
X60559761Y-52535714D02*
X60607380Y-52392857D01*
X60607380Y-52392857D02*
X60607380Y-52297619D01*
X60607380Y-52297619D02*
X60559761Y-52154762D01*
X60559761Y-52154762D02*
X60464523Y-52059524D01*
X60464523Y-52059524D02*
X60369285Y-52011905D01*
X60369285Y-52011905D02*
X60178809Y-51964286D01*
X60178809Y-51964286D02*
X60035952Y-51964286D01*
X60035952Y-51964286D02*
X59845476Y-52011905D01*
X59845476Y-52011905D02*
X59750238Y-52059524D01*
X59750238Y-52059524D02*
X59655000Y-52154762D01*
X59655000Y-52154762D02*
X59607380Y-52297619D01*
X59607380Y-52297619D02*
X59607380Y-52392857D01*
X59607380Y-52392857D02*
X59655000Y-52535714D01*
X59655000Y-52535714D02*
X59702619Y-52583333D01*
X59607380Y-52916667D02*
X59607380Y-53583333D01*
X59607380Y-53583333D02*
X60607380Y-53154762D01*
%TO.C,C5*%
X60042142Y-40573333D02*
X60089761Y-40525714D01*
X60089761Y-40525714D02*
X60137380Y-40382857D01*
X60137380Y-40382857D02*
X60137380Y-40287619D01*
X60137380Y-40287619D02*
X60089761Y-40144762D01*
X60089761Y-40144762D02*
X59994523Y-40049524D01*
X59994523Y-40049524D02*
X59899285Y-40001905D01*
X59899285Y-40001905D02*
X59708809Y-39954286D01*
X59708809Y-39954286D02*
X59565952Y-39954286D01*
X59565952Y-39954286D02*
X59375476Y-40001905D01*
X59375476Y-40001905D02*
X59280238Y-40049524D01*
X59280238Y-40049524D02*
X59185000Y-40144762D01*
X59185000Y-40144762D02*
X59137380Y-40287619D01*
X59137380Y-40287619D02*
X59137380Y-40382857D01*
X59137380Y-40382857D02*
X59185000Y-40525714D01*
X59185000Y-40525714D02*
X59232619Y-40573333D01*
X59137380Y-41478095D02*
X59137380Y-41001905D01*
X59137380Y-41001905D02*
X59613571Y-40954286D01*
X59613571Y-40954286D02*
X59565952Y-41001905D01*
X59565952Y-41001905D02*
X59518333Y-41097143D01*
X59518333Y-41097143D02*
X59518333Y-41335238D01*
X59518333Y-41335238D02*
X59565952Y-41430476D01*
X59565952Y-41430476D02*
X59613571Y-41478095D01*
X59613571Y-41478095D02*
X59708809Y-41525714D01*
X59708809Y-41525714D02*
X59946904Y-41525714D01*
X59946904Y-41525714D02*
X60042142Y-41478095D01*
X60042142Y-41478095D02*
X60089761Y-41430476D01*
X60089761Y-41430476D02*
X60137380Y-41335238D01*
X60137380Y-41335238D02*
X60137380Y-41097143D01*
X60137380Y-41097143D02*
X60089761Y-41001905D01*
X60089761Y-41001905D02*
X60042142Y-40954286D01*
%TO.C,J8*%
X35977380Y-52486666D02*
X36691666Y-52486666D01*
X36691666Y-52486666D02*
X36834523Y-52439047D01*
X36834523Y-52439047D02*
X36929761Y-52343809D01*
X36929761Y-52343809D02*
X36977380Y-52200952D01*
X36977380Y-52200952D02*
X36977380Y-52105714D01*
X36405952Y-53105714D02*
X36358333Y-53010476D01*
X36358333Y-53010476D02*
X36310714Y-52962857D01*
X36310714Y-52962857D02*
X36215476Y-52915238D01*
X36215476Y-52915238D02*
X36167857Y-52915238D01*
X36167857Y-52915238D02*
X36072619Y-52962857D01*
X36072619Y-52962857D02*
X36025000Y-53010476D01*
X36025000Y-53010476D02*
X35977380Y-53105714D01*
X35977380Y-53105714D02*
X35977380Y-53296190D01*
X35977380Y-53296190D02*
X36025000Y-53391428D01*
X36025000Y-53391428D02*
X36072619Y-53439047D01*
X36072619Y-53439047D02*
X36167857Y-53486666D01*
X36167857Y-53486666D02*
X36215476Y-53486666D01*
X36215476Y-53486666D02*
X36310714Y-53439047D01*
X36310714Y-53439047D02*
X36358333Y-53391428D01*
X36358333Y-53391428D02*
X36405952Y-53296190D01*
X36405952Y-53296190D02*
X36405952Y-53105714D01*
X36405952Y-53105714D02*
X36453571Y-53010476D01*
X36453571Y-53010476D02*
X36501190Y-52962857D01*
X36501190Y-52962857D02*
X36596428Y-52915238D01*
X36596428Y-52915238D02*
X36786904Y-52915238D01*
X36786904Y-52915238D02*
X36882142Y-52962857D01*
X36882142Y-52962857D02*
X36929761Y-53010476D01*
X36929761Y-53010476D02*
X36977380Y-53105714D01*
X36977380Y-53105714D02*
X36977380Y-53296190D01*
X36977380Y-53296190D02*
X36929761Y-53391428D01*
X36929761Y-53391428D02*
X36882142Y-53439047D01*
X36882142Y-53439047D02*
X36786904Y-53486666D01*
X36786904Y-53486666D02*
X36596428Y-53486666D01*
X36596428Y-53486666D02*
X36501190Y-53439047D01*
X36501190Y-53439047D02*
X36453571Y-53391428D01*
X36453571Y-53391428D02*
X36405952Y-53296190D01*
%TO.C,C4*%
X117552142Y-47220833D02*
X117599761Y-47173214D01*
X117599761Y-47173214D02*
X117647380Y-47030357D01*
X117647380Y-47030357D02*
X117647380Y-46935119D01*
X117647380Y-46935119D02*
X117599761Y-46792262D01*
X117599761Y-46792262D02*
X117504523Y-46697024D01*
X117504523Y-46697024D02*
X117409285Y-46649405D01*
X117409285Y-46649405D02*
X117218809Y-46601786D01*
X117218809Y-46601786D02*
X117075952Y-46601786D01*
X117075952Y-46601786D02*
X116885476Y-46649405D01*
X116885476Y-46649405D02*
X116790238Y-46697024D01*
X116790238Y-46697024D02*
X116695000Y-46792262D01*
X116695000Y-46792262D02*
X116647380Y-46935119D01*
X116647380Y-46935119D02*
X116647380Y-47030357D01*
X116647380Y-47030357D02*
X116695000Y-47173214D01*
X116695000Y-47173214D02*
X116742619Y-47220833D01*
X116980714Y-48077976D02*
X117647380Y-48077976D01*
X116599761Y-47839881D02*
X117314047Y-47601786D01*
X117314047Y-47601786D02*
X117314047Y-48220833D01*
%TO.C,J6*%
X125982380Y-52696666D02*
X126696666Y-52696666D01*
X126696666Y-52696666D02*
X126839523Y-52649047D01*
X126839523Y-52649047D02*
X126934761Y-52553809D01*
X126934761Y-52553809D02*
X126982380Y-52410952D01*
X126982380Y-52410952D02*
X126982380Y-52315714D01*
X125982380Y-53601428D02*
X125982380Y-53410952D01*
X125982380Y-53410952D02*
X126030000Y-53315714D01*
X126030000Y-53315714D02*
X126077619Y-53268095D01*
X126077619Y-53268095D02*
X126220476Y-53172857D01*
X126220476Y-53172857D02*
X126410952Y-53125238D01*
X126410952Y-53125238D02*
X126791904Y-53125238D01*
X126791904Y-53125238D02*
X126887142Y-53172857D01*
X126887142Y-53172857D02*
X126934761Y-53220476D01*
X126934761Y-53220476D02*
X126982380Y-53315714D01*
X126982380Y-53315714D02*
X126982380Y-53506190D01*
X126982380Y-53506190D02*
X126934761Y-53601428D01*
X126934761Y-53601428D02*
X126887142Y-53649047D01*
X126887142Y-53649047D02*
X126791904Y-53696666D01*
X126791904Y-53696666D02*
X126553809Y-53696666D01*
X126553809Y-53696666D02*
X126458571Y-53649047D01*
X126458571Y-53649047D02*
X126410952Y-53601428D01*
X126410952Y-53601428D02*
X126363333Y-53506190D01*
X126363333Y-53506190D02*
X126363333Y-53315714D01*
X126363333Y-53315714D02*
X126410952Y-53220476D01*
X126410952Y-53220476D02*
X126458571Y-53172857D01*
X126458571Y-53172857D02*
X126553809Y-53125238D01*
%TO.C,U2*%
X111556904Y-43332380D02*
X111556904Y-44141904D01*
X111556904Y-44141904D02*
X111509285Y-44237142D01*
X111509285Y-44237142D02*
X111461666Y-44284761D01*
X111461666Y-44284761D02*
X111366428Y-44332380D01*
X111366428Y-44332380D02*
X111175952Y-44332380D01*
X111175952Y-44332380D02*
X111080714Y-44284761D01*
X111080714Y-44284761D02*
X111033095Y-44237142D01*
X111033095Y-44237142D02*
X110985476Y-44141904D01*
X110985476Y-44141904D02*
X110985476Y-43332380D01*
X110556904Y-43427619D02*
X110509285Y-43380000D01*
X110509285Y-43380000D02*
X110414047Y-43332380D01*
X110414047Y-43332380D02*
X110175952Y-43332380D01*
X110175952Y-43332380D02*
X110080714Y-43380000D01*
X110080714Y-43380000D02*
X110033095Y-43427619D01*
X110033095Y-43427619D02*
X109985476Y-43522857D01*
X109985476Y-43522857D02*
X109985476Y-43618095D01*
X109985476Y-43618095D02*
X110033095Y-43760952D01*
X110033095Y-43760952D02*
X110604523Y-44332380D01*
X110604523Y-44332380D02*
X109985476Y-44332380D01*
%TO.C,J9*%
X26377380Y-52306666D02*
X27091666Y-52306666D01*
X27091666Y-52306666D02*
X27234523Y-52259047D01*
X27234523Y-52259047D02*
X27329761Y-52163809D01*
X27329761Y-52163809D02*
X27377380Y-52020952D01*
X27377380Y-52020952D02*
X27377380Y-51925714D01*
X27377380Y-52830476D02*
X27377380Y-53020952D01*
X27377380Y-53020952D02*
X27329761Y-53116190D01*
X27329761Y-53116190D02*
X27282142Y-53163809D01*
X27282142Y-53163809D02*
X27139285Y-53259047D01*
X27139285Y-53259047D02*
X26948809Y-53306666D01*
X26948809Y-53306666D02*
X26567857Y-53306666D01*
X26567857Y-53306666D02*
X26472619Y-53259047D01*
X26472619Y-53259047D02*
X26425000Y-53211428D01*
X26425000Y-53211428D02*
X26377380Y-53116190D01*
X26377380Y-53116190D02*
X26377380Y-52925714D01*
X26377380Y-52925714D02*
X26425000Y-52830476D01*
X26425000Y-52830476D02*
X26472619Y-52782857D01*
X26472619Y-52782857D02*
X26567857Y-52735238D01*
X26567857Y-52735238D02*
X26805952Y-52735238D01*
X26805952Y-52735238D02*
X26901190Y-52782857D01*
X26901190Y-52782857D02*
X26948809Y-52830476D01*
X26948809Y-52830476D02*
X26996428Y-52925714D01*
X26996428Y-52925714D02*
X26996428Y-53116190D01*
X26996428Y-53116190D02*
X26948809Y-53211428D01*
X26948809Y-53211428D02*
X26901190Y-53259047D01*
X26901190Y-53259047D02*
X26805952Y-53306666D01*
%TO.C,C3*%
X104912142Y-47683333D02*
X104959761Y-47635714D01*
X104959761Y-47635714D02*
X105007380Y-47492857D01*
X105007380Y-47492857D02*
X105007380Y-47397619D01*
X105007380Y-47397619D02*
X104959761Y-47254762D01*
X104959761Y-47254762D02*
X104864523Y-47159524D01*
X104864523Y-47159524D02*
X104769285Y-47111905D01*
X104769285Y-47111905D02*
X104578809Y-47064286D01*
X104578809Y-47064286D02*
X104435952Y-47064286D01*
X104435952Y-47064286D02*
X104245476Y-47111905D01*
X104245476Y-47111905D02*
X104150238Y-47159524D01*
X104150238Y-47159524D02*
X104055000Y-47254762D01*
X104055000Y-47254762D02*
X104007380Y-47397619D01*
X104007380Y-47397619D02*
X104007380Y-47492857D01*
X104007380Y-47492857D02*
X104055000Y-47635714D01*
X104055000Y-47635714D02*
X104102619Y-47683333D01*
X104007380Y-48016667D02*
X104007380Y-48635714D01*
X104007380Y-48635714D02*
X104388333Y-48302381D01*
X104388333Y-48302381D02*
X104388333Y-48445238D01*
X104388333Y-48445238D02*
X104435952Y-48540476D01*
X104435952Y-48540476D02*
X104483571Y-48588095D01*
X104483571Y-48588095D02*
X104578809Y-48635714D01*
X104578809Y-48635714D02*
X104816904Y-48635714D01*
X104816904Y-48635714D02*
X104912142Y-48588095D01*
X104912142Y-48588095D02*
X104959761Y-48540476D01*
X104959761Y-48540476D02*
X105007380Y-48445238D01*
X105007380Y-48445238D02*
X105007380Y-48159524D01*
X105007380Y-48159524D02*
X104959761Y-48064286D01*
X104959761Y-48064286D02*
X104912142Y-48016667D01*
%TO.C,J7*%
X106252380Y-52666666D02*
X106966666Y-52666666D01*
X106966666Y-52666666D02*
X107109523Y-52619047D01*
X107109523Y-52619047D02*
X107204761Y-52523809D01*
X107204761Y-52523809D02*
X107252380Y-52380952D01*
X107252380Y-52380952D02*
X107252380Y-52285714D01*
X106252380Y-53047619D02*
X106252380Y-53714285D01*
X106252380Y-53714285D02*
X107252380Y-53285714D01*
%TO.C,C6*%
X59952142Y-34193333D02*
X59999761Y-34145714D01*
X59999761Y-34145714D02*
X60047380Y-34002857D01*
X60047380Y-34002857D02*
X60047380Y-33907619D01*
X60047380Y-33907619D02*
X59999761Y-33764762D01*
X59999761Y-33764762D02*
X59904523Y-33669524D01*
X59904523Y-33669524D02*
X59809285Y-33621905D01*
X59809285Y-33621905D02*
X59618809Y-33574286D01*
X59618809Y-33574286D02*
X59475952Y-33574286D01*
X59475952Y-33574286D02*
X59285476Y-33621905D01*
X59285476Y-33621905D02*
X59190238Y-33669524D01*
X59190238Y-33669524D02*
X59095000Y-33764762D01*
X59095000Y-33764762D02*
X59047380Y-33907619D01*
X59047380Y-33907619D02*
X59047380Y-34002857D01*
X59047380Y-34002857D02*
X59095000Y-34145714D01*
X59095000Y-34145714D02*
X59142619Y-34193333D01*
X59047380Y-35050476D02*
X59047380Y-34860000D01*
X59047380Y-34860000D02*
X59095000Y-34764762D01*
X59095000Y-34764762D02*
X59142619Y-34717143D01*
X59142619Y-34717143D02*
X59285476Y-34621905D01*
X59285476Y-34621905D02*
X59475952Y-34574286D01*
X59475952Y-34574286D02*
X59856904Y-34574286D01*
X59856904Y-34574286D02*
X59952142Y-34621905D01*
X59952142Y-34621905D02*
X59999761Y-34669524D01*
X59999761Y-34669524D02*
X60047380Y-34764762D01*
X60047380Y-34764762D02*
X60047380Y-34955238D01*
X60047380Y-34955238D02*
X59999761Y-35050476D01*
X59999761Y-35050476D02*
X59952142Y-35098095D01*
X59952142Y-35098095D02*
X59856904Y-35145714D01*
X59856904Y-35145714D02*
X59618809Y-35145714D01*
X59618809Y-35145714D02*
X59523571Y-35098095D01*
X59523571Y-35098095D02*
X59475952Y-35050476D01*
X59475952Y-35050476D02*
X59428333Y-34955238D01*
X59428333Y-34955238D02*
X59428333Y-34764762D01*
X59428333Y-34764762D02*
X59475952Y-34669524D01*
X59475952Y-34669524D02*
X59523571Y-34621905D01*
X59523571Y-34621905D02*
X59618809Y-34574286D01*
%TO.C,C2*%
X136722142Y-47723333D02*
X136769761Y-47675714D01*
X136769761Y-47675714D02*
X136817380Y-47532857D01*
X136817380Y-47532857D02*
X136817380Y-47437619D01*
X136817380Y-47437619D02*
X136769761Y-47294762D01*
X136769761Y-47294762D02*
X136674523Y-47199524D01*
X136674523Y-47199524D02*
X136579285Y-47151905D01*
X136579285Y-47151905D02*
X136388809Y-47104286D01*
X136388809Y-47104286D02*
X136245952Y-47104286D01*
X136245952Y-47104286D02*
X136055476Y-47151905D01*
X136055476Y-47151905D02*
X135960238Y-47199524D01*
X135960238Y-47199524D02*
X135865000Y-47294762D01*
X135865000Y-47294762D02*
X135817380Y-47437619D01*
X135817380Y-47437619D02*
X135817380Y-47532857D01*
X135817380Y-47532857D02*
X135865000Y-47675714D01*
X135865000Y-47675714D02*
X135912619Y-47723333D01*
X135912619Y-48104286D02*
X135865000Y-48151905D01*
X135865000Y-48151905D02*
X135817380Y-48247143D01*
X135817380Y-48247143D02*
X135817380Y-48485238D01*
X135817380Y-48485238D02*
X135865000Y-48580476D01*
X135865000Y-48580476D02*
X135912619Y-48628095D01*
X135912619Y-48628095D02*
X136007857Y-48675714D01*
X136007857Y-48675714D02*
X136103095Y-48675714D01*
X136103095Y-48675714D02*
X136245952Y-48628095D01*
X136245952Y-48628095D02*
X136817380Y-48056667D01*
X136817380Y-48056667D02*
X136817380Y-48675714D01*
%TO.C,C11*%
X67812142Y-49967142D02*
X67859761Y-49919523D01*
X67859761Y-49919523D02*
X67907380Y-49776666D01*
X67907380Y-49776666D02*
X67907380Y-49681428D01*
X67907380Y-49681428D02*
X67859761Y-49538571D01*
X67859761Y-49538571D02*
X67764523Y-49443333D01*
X67764523Y-49443333D02*
X67669285Y-49395714D01*
X67669285Y-49395714D02*
X67478809Y-49348095D01*
X67478809Y-49348095D02*
X67335952Y-49348095D01*
X67335952Y-49348095D02*
X67145476Y-49395714D01*
X67145476Y-49395714D02*
X67050238Y-49443333D01*
X67050238Y-49443333D02*
X66955000Y-49538571D01*
X66955000Y-49538571D02*
X66907380Y-49681428D01*
X66907380Y-49681428D02*
X66907380Y-49776666D01*
X66907380Y-49776666D02*
X66955000Y-49919523D01*
X66955000Y-49919523D02*
X67002619Y-49967142D01*
X67907380Y-50919523D02*
X67907380Y-50348095D01*
X67907380Y-50633809D02*
X66907380Y-50633809D01*
X66907380Y-50633809D02*
X67050238Y-50538571D01*
X67050238Y-50538571D02*
X67145476Y-50443333D01*
X67145476Y-50443333D02*
X67193095Y-50348095D01*
X67907380Y-51871904D02*
X67907380Y-51300476D01*
X67907380Y-51586190D02*
X66907380Y-51586190D01*
X66907380Y-51586190D02*
X67050238Y-51490952D01*
X67050238Y-51490952D02*
X67145476Y-51395714D01*
X67145476Y-51395714D02*
X67193095Y-51300476D01*
%TO.C,C1*%
X123842142Y-47925833D02*
X123889761Y-47878214D01*
X123889761Y-47878214D02*
X123937380Y-47735357D01*
X123937380Y-47735357D02*
X123937380Y-47640119D01*
X123937380Y-47640119D02*
X123889761Y-47497262D01*
X123889761Y-47497262D02*
X123794523Y-47402024D01*
X123794523Y-47402024D02*
X123699285Y-47354405D01*
X123699285Y-47354405D02*
X123508809Y-47306786D01*
X123508809Y-47306786D02*
X123365952Y-47306786D01*
X123365952Y-47306786D02*
X123175476Y-47354405D01*
X123175476Y-47354405D02*
X123080238Y-47402024D01*
X123080238Y-47402024D02*
X122985000Y-47497262D01*
X122985000Y-47497262D02*
X122937380Y-47640119D01*
X122937380Y-47640119D02*
X122937380Y-47735357D01*
X122937380Y-47735357D02*
X122985000Y-47878214D01*
X122985000Y-47878214D02*
X123032619Y-47925833D01*
X123937380Y-48878214D02*
X123937380Y-48306786D01*
X123937380Y-48592500D02*
X122937380Y-48592500D01*
X122937380Y-48592500D02*
X123080238Y-48497262D01*
X123080238Y-48497262D02*
X123175476Y-48402024D01*
X123175476Y-48402024D02*
X123223095Y-48306786D01*
D11*
%TO.C,U1*%
X54400000Y-34125000D02*
X54400000Y-34380000D01*
X50540000Y-34125000D02*
X54400000Y-34125000D01*
X46680000Y-34125000D02*
X46680000Y-34380000D01*
X46680000Y-44390000D02*
X44865000Y-44390000D01*
X50540000Y-34125000D02*
X46680000Y-34125000D01*
X54400000Y-44645000D02*
X54400000Y-44390000D01*
X46680000Y-44645000D02*
X46680000Y-44390000D01*
X50540000Y-44645000D02*
X54400000Y-44645000D01*
X50540000Y-44645000D02*
X46680000Y-44645000D01*
%TO.C,U4*%
X50500000Y-55645000D02*
X46640000Y-55645000D01*
X50500000Y-55645000D02*
X54360000Y-55645000D01*
X46640000Y-55645000D02*
X46640000Y-55390000D01*
X54360000Y-55645000D02*
X54360000Y-55390000D01*
X50500000Y-45125000D02*
X46640000Y-45125000D01*
X46640000Y-55390000D02*
X44825000Y-55390000D01*
X46640000Y-45125000D02*
X46640000Y-45380000D01*
X50500000Y-45125000D02*
X54360000Y-45125000D01*
X54360000Y-45125000D02*
X54360000Y-45380000D01*
%TO.C,C8*%
X58040000Y-47633767D02*
X58040000Y-47341233D01*
X59060000Y-47633767D02*
X59060000Y-47341233D01*
%TO.C,U6*%
X90045000Y-52605000D02*
X91995000Y-52605000D01*
X90045000Y-52605000D02*
X88095000Y-52605000D01*
X90045000Y-47485000D02*
X93495000Y-47485000D01*
X90045000Y-47485000D02*
X88095000Y-47485000D01*
%TO.C,C9*%
X86610000Y-43610000D02*
X87110000Y-43610000D01*
X86860000Y-43860000D02*
X86860000Y-43360000D01*
X87350000Y-40854437D02*
X87350000Y-40990000D01*
X87350000Y-40854437D02*
X88414437Y-39790000D01*
X87350000Y-43245563D02*
X87350000Y-43110000D01*
X87350000Y-43245563D02*
X88414437Y-44310000D01*
X88414437Y-39790000D02*
X91870000Y-39790000D01*
X88414437Y-44310000D02*
X91870000Y-44310000D01*
X91870000Y-39790000D02*
X91870000Y-40990000D01*
X91870000Y-44310000D02*
X91870000Y-43110000D01*
%TO.C,C12*%
X75880000Y-40440000D02*
X75380000Y-40440000D01*
X75630000Y-40190000D02*
X75630000Y-40690000D01*
X75140000Y-43195563D02*
X75140000Y-43060000D01*
X75140000Y-43195563D02*
X74075563Y-44260000D01*
X75140000Y-40804437D02*
X75140000Y-40940000D01*
X75140000Y-40804437D02*
X74075563Y-39740000D01*
X74075563Y-44260000D02*
X70620000Y-44260000D01*
X74075563Y-39740000D02*
X70620000Y-39740000D01*
X70620000Y-44260000D02*
X70620000Y-43060000D01*
X70620000Y-39740000D02*
X70620000Y-40940000D01*
%TO.C,C10*%
X98070000Y-47130000D02*
X98070000Y-47630000D01*
X97820000Y-47380000D02*
X98320000Y-47380000D01*
X100825563Y-47870000D02*
X100690000Y-47870000D01*
X100825563Y-47870000D02*
X101890000Y-48934437D01*
X98434437Y-47870000D02*
X98570000Y-47870000D01*
X98434437Y-47870000D02*
X97370000Y-48934437D01*
X101890000Y-48934437D02*
X101890000Y-52390000D01*
X97370000Y-48934437D02*
X97370000Y-52390000D01*
X101890000Y-52390000D02*
X100690000Y-52390000D01*
X97370000Y-52390000D02*
X98570000Y-52390000D01*
%TO.C,J5*%
X82760000Y-49540000D02*
X80100000Y-49540000D01*
X82760000Y-44400000D02*
X82760000Y-49540000D01*
X82760000Y-44400000D02*
X80100000Y-44400000D01*
X82760000Y-43130000D02*
X82760000Y-41800000D01*
X82760000Y-41800000D02*
X81430000Y-41800000D01*
X80100000Y-44400000D02*
X80100000Y-49540000D01*
%TO.C,U3*%
X130055000Y-50345000D02*
X132005000Y-50345000D01*
X130055000Y-50345000D02*
X128105000Y-50345000D01*
X130055000Y-45225000D02*
X133505000Y-45225000D01*
X130055000Y-45225000D02*
X128105000Y-45225000D01*
%TO.C,U5*%
X72895000Y-47495000D02*
X70945000Y-47495000D01*
X72895000Y-47495000D02*
X74845000Y-47495000D01*
X72895000Y-52615000D02*
X69445000Y-52615000D01*
X72895000Y-52615000D02*
X74845000Y-52615000D01*
%TO.C,C7*%
X59050000Y-51681233D02*
X59050000Y-51973767D01*
X58030000Y-51681233D02*
X58030000Y-51973767D01*
%TO.C,C5*%
X58800000Y-40316233D02*
X58800000Y-40608767D01*
X57780000Y-40316233D02*
X57780000Y-40608767D01*
%TO.C,J8*%
X42810000Y-51490000D02*
X42810000Y-54150000D01*
X40210000Y-51490000D02*
X42810000Y-51490000D01*
X40210000Y-51490000D02*
X40210000Y-54150000D01*
X38940000Y-51490000D02*
X37610000Y-51490000D01*
X37610000Y-51490000D02*
X37610000Y-52820000D01*
X40210000Y-54150000D02*
X42810000Y-54150000D01*
%TO.C,C4*%
X116170000Y-47243733D02*
X116170000Y-47536267D01*
X115150000Y-47243733D02*
X115150000Y-47536267D01*
%TO.C,J6*%
X132815000Y-51700000D02*
X132815000Y-54360000D01*
X130215000Y-51700000D02*
X132815000Y-51700000D01*
X130215000Y-51700000D02*
X130215000Y-54360000D01*
X128945000Y-51700000D02*
X127615000Y-51700000D01*
X127615000Y-51700000D02*
X127615000Y-53030000D01*
X130215000Y-54360000D02*
X132815000Y-54360000D01*
%TO.C,U2*%
X110795000Y-49925000D02*
X112745000Y-49925000D01*
X110795000Y-49925000D02*
X108845000Y-49925000D01*
X110795000Y-44805000D02*
X114245000Y-44805000D01*
X110795000Y-44805000D02*
X108845000Y-44805000D01*
%TO.C,J9*%
X33210000Y-51310000D02*
X33210000Y-53970000D01*
X30610000Y-51310000D02*
X33210000Y-51310000D01*
X30610000Y-51310000D02*
X30610000Y-53970000D01*
X29340000Y-51310000D02*
X28010000Y-51310000D01*
X28010000Y-51310000D02*
X28010000Y-52640000D01*
X30610000Y-53970000D02*
X33210000Y-53970000D01*
%TO.C,C3*%
X106490000Y-47703733D02*
X106490000Y-47996267D01*
X105470000Y-47703733D02*
X105470000Y-47996267D01*
%TO.C,J7*%
X113085000Y-51670000D02*
X113085000Y-54330000D01*
X110485000Y-51670000D02*
X113085000Y-51670000D01*
X110485000Y-51670000D02*
X110485000Y-54330000D01*
X109215000Y-51670000D02*
X107885000Y-51670000D01*
X107885000Y-51670000D02*
X107885000Y-53000000D01*
X110485000Y-54330000D02*
X113085000Y-54330000D01*
%TO.C,C6*%
X57800000Y-36486267D02*
X57800000Y-36193733D01*
X58820000Y-36486267D02*
X58820000Y-36193733D01*
%TO.C,C2*%
X135470000Y-47783733D02*
X135470000Y-48076267D01*
X134450000Y-47783733D02*
X134450000Y-48076267D01*
%TO.C,C11*%
X62360000Y-47210000D02*
X62360000Y-47710000D01*
X62110000Y-47460000D02*
X62610000Y-47460000D01*
X65115563Y-47950000D02*
X64980000Y-47950000D01*
X65115563Y-47950000D02*
X66180000Y-49014437D01*
X62724437Y-47950000D02*
X62860000Y-47950000D01*
X62724437Y-47950000D02*
X61660000Y-49014437D01*
X66180000Y-49014437D02*
X66180000Y-52470000D01*
X61660000Y-49014437D02*
X61660000Y-52470000D01*
X66180000Y-52470000D02*
X64980000Y-52470000D01*
X61660000Y-52470000D02*
X62860000Y-52470000D01*
%TO.C,C1*%
X125510000Y-47946233D02*
X125510000Y-48238767D01*
X124490000Y-47946233D02*
X124490000Y-48238767D01*
%TD*%
M02*
