%TF.GenerationSoftware,KiCad,Pcbnew,(7.0.0)*%
%TF.CreationDate,2023-11-09T23:31:26+01:00*%
%TF.ProjectId,xlr-inteface,786c722d-696e-4746-9566-6163652e6b69,rev?*%
%TF.SameCoordinates,Original*%
%TF.FileFunction,Legend,Top*%
%TF.FilePolarity,Positive*%
%FSLAX46Y46*%
G04 Gerber Fmt 4.6, Leading zero omitted, Abs format (unit mm)*
G04 Created by KiCad (PCBNEW (7.0.0)) date 2023-11-09 23:31:26*
%MOMM*%
%LPD*%
G01*
G04 APERTURE LIST*
%ADD10C,0.150000*%
%ADD11C,0.120000*%
G04 APERTURE END LIST*
D10*
%TO.C,J1*%
X96676666Y-21937380D02*
X96676666Y-22651666D01*
X96676666Y-22651666D02*
X96629047Y-22794523D01*
X96629047Y-22794523D02*
X96533809Y-22889761D01*
X96533809Y-22889761D02*
X96390952Y-22937380D01*
X96390952Y-22937380D02*
X96295714Y-22937380D01*
X97676666Y-22937380D02*
X97105238Y-22937380D01*
X97390952Y-22937380D02*
X97390952Y-21937380D01*
X97390952Y-21937380D02*
X97295714Y-22080238D01*
X97295714Y-22080238D02*
X97200476Y-22175476D01*
X97200476Y-22175476D02*
X97105238Y-22223095D01*
%TO.C,J4*%
X65214166Y-23487380D02*
X65214166Y-24201666D01*
X65214166Y-24201666D02*
X65166547Y-24344523D01*
X65166547Y-24344523D02*
X65071309Y-24439761D01*
X65071309Y-24439761D02*
X64928452Y-24487380D01*
X64928452Y-24487380D02*
X64833214Y-24487380D01*
X66118928Y-23820714D02*
X66118928Y-24487380D01*
X65880833Y-23439761D02*
X65642738Y-24154047D01*
X65642738Y-24154047D02*
X66261785Y-24154047D01*
%TO.C,J2*%
X123726666Y-21937380D02*
X123726666Y-22651666D01*
X123726666Y-22651666D02*
X123679047Y-22794523D01*
X123679047Y-22794523D02*
X123583809Y-22889761D01*
X123583809Y-22889761D02*
X123440952Y-22937380D01*
X123440952Y-22937380D02*
X123345714Y-22937380D01*
X124155238Y-22032619D02*
X124202857Y-21985000D01*
X124202857Y-21985000D02*
X124298095Y-21937380D01*
X124298095Y-21937380D02*
X124536190Y-21937380D01*
X124536190Y-21937380D02*
X124631428Y-21985000D01*
X124631428Y-21985000D02*
X124679047Y-22032619D01*
X124679047Y-22032619D02*
X124726666Y-22127857D01*
X124726666Y-22127857D02*
X124726666Y-22223095D01*
X124726666Y-22223095D02*
X124679047Y-22365952D01*
X124679047Y-22365952D02*
X124107619Y-22937380D01*
X124107619Y-22937380D02*
X124726666Y-22937380D01*
%TO.C,J3*%
X37864166Y-23487380D02*
X37864166Y-24201666D01*
X37864166Y-24201666D02*
X37816547Y-24344523D01*
X37816547Y-24344523D02*
X37721309Y-24439761D01*
X37721309Y-24439761D02*
X37578452Y-24487380D01*
X37578452Y-24487380D02*
X37483214Y-24487380D01*
X38245119Y-23487380D02*
X38864166Y-23487380D01*
X38864166Y-23487380D02*
X38530833Y-23868333D01*
X38530833Y-23868333D02*
X38673690Y-23868333D01*
X38673690Y-23868333D02*
X38768928Y-23915952D01*
X38768928Y-23915952D02*
X38816547Y-23963571D01*
X38816547Y-23963571D02*
X38864166Y-24058809D01*
X38864166Y-24058809D02*
X38864166Y-24296904D01*
X38864166Y-24296904D02*
X38816547Y-24392142D01*
X38816547Y-24392142D02*
X38768928Y-24439761D01*
X38768928Y-24439761D02*
X38673690Y-24487380D01*
X38673690Y-24487380D02*
X38387976Y-24487380D01*
X38387976Y-24487380D02*
X38292738Y-24439761D01*
X38292738Y-24439761D02*
X38245119Y-24392142D01*
D11*
%TO.C,J1*%
X86110000Y-36070000D02*
X86110000Y-30830000D01*
X86110000Y-41330000D02*
X86380000Y-41180000D01*
X86110000Y-42190000D02*
X86110000Y-41330000D01*
X86500000Y-42830000D02*
X86110000Y-42190000D01*
X87110000Y-42490000D02*
X86500000Y-42830000D01*
X92450000Y-46100000D02*
X92450000Y-50870000D01*
X93950000Y-50870000D02*
X92450000Y-50870000D01*
X93950000Y-50870000D02*
X93950000Y-46800000D01*
X96070000Y-47110000D02*
X96070000Y-48370000D01*
X96750000Y-48570000D02*
X96270000Y-48570000D01*
X96950000Y-46970000D02*
X96950000Y-48370000D01*
X100070000Y-46800000D02*
X100070000Y-46800000D01*
X100070000Y-50870000D02*
X100070000Y-46800000D01*
X101570000Y-48570000D02*
X106910000Y-48570000D01*
X101570000Y-50870000D02*
X100070000Y-50870000D01*
X101570000Y-50870000D02*
X101570000Y-48570000D01*
X107910000Y-41310000D02*
X107910000Y-29950000D01*
X86110000Y-30830000D02*
G75*
G03*
X85053311Y-27752431I-5009993J2D01*
G01*
X88440000Y-23940001D02*
G75*
G03*
X85058021Y-27760968I-1330000J-2229999D01*
G01*
X86380000Y-41179999D02*
G75*
G03*
X86850785Y-40021372I-480000J869999D01*
G01*
X88407798Y-42763832D02*
G75*
G03*
X87110000Y-42490000I-807798J-616169D01*
G01*
X92450000Y-46100000D02*
G75*
G03*
X92383636Y-45940864I-199996J10002D01*
G01*
X107910000Y-29950000D02*
G75*
G03*
X92690950Y-24339263I-10899999J-6119998D01*
G01*
X88440000Y-23940000D02*
G75*
G03*
X92701919Y-24336158I2550000J4310003D01*
G01*
X94141697Y-46590798D02*
G75*
G03*
X93950000Y-46800000I18304J-209202D01*
G01*
X96069999Y-47110000D02*
G75*
G03*
X95911582Y-46914371I-200001J-1D01*
G01*
X96070000Y-48370000D02*
G75*
G03*
X96270000Y-48570000I200001J1D01*
G01*
X96750000Y-48570000D02*
G75*
G03*
X96950000Y-48370000I-1J200001D01*
G01*
X100069999Y-46800000D02*
G75*
G03*
X99870991Y-46590289I-209999J0D01*
G01*
X106910000Y-48570000D02*
G75*
G03*
X108961619Y-44372858I0J2600000D01*
G01*
X107910000Y-41310000D02*
G75*
G03*
X108962470Y-44375283I4990000J0D01*
G01*
X88310000Y-26170000D02*
G75*
G03*
X88310000Y-26170000I-1200000J0D01*
G01*
X104910000Y-36070000D02*
G75*
G03*
X104910000Y-36070000I-7900000J0D01*
G01*
X106610000Y-36070000D02*
G75*
G03*
X106610000Y-36070000I-9600000J0D01*
G01*
X107910000Y-36070000D02*
G75*
G03*
X107910000Y-36070000I-10900000J0D01*
G01*
X108110000Y-45970000D02*
G75*
G03*
X108110000Y-45970000I-1200000J0D01*
G01*
%TO.C,J4*%
X54647500Y-30880000D02*
X54647500Y-36120000D01*
X58997500Y-47650000D02*
X58997500Y-46370000D01*
X58997500Y-47650000D02*
X59497500Y-47720000D01*
X59497500Y-47720000D02*
X59677500Y-47720000D01*
X60987500Y-47720000D02*
X60917500Y-47720000D01*
X60987500Y-47720000D02*
X60987500Y-50920000D01*
X61307500Y-46370000D02*
X58997500Y-46370000D01*
X61307500Y-46370000D02*
X61307500Y-46170000D01*
X62487500Y-47720000D02*
X62487500Y-50920000D01*
X62487500Y-47720000D02*
X68607500Y-47720000D01*
X62487500Y-50920000D02*
X60987500Y-50920000D01*
X65547500Y-24820000D02*
X61207500Y-24820000D01*
X68607500Y-47720000D02*
X68607500Y-50920000D01*
X68947500Y-25760000D02*
X68947500Y-25570000D01*
X70107500Y-47720000D02*
X70107500Y-50920000D01*
X70107500Y-47720000D02*
X70177500Y-47720000D01*
X70107500Y-50920000D02*
X68607500Y-50920000D01*
X71417500Y-47720000D02*
X73477500Y-47720000D01*
X76447500Y-41070000D02*
X76447500Y-36120000D01*
X57797499Y-24270001D02*
G75*
G03*
X54148535Y-28705578I-2149999J-1949999D01*
G01*
X54647499Y-30880000D02*
G75*
G03*
X54152884Y-28711705I-5000002J-1D01*
G01*
X59677500Y-47720000D02*
G75*
G03*
X60916979Y-47720769I620000J420000D01*
G01*
X57803049Y-24274695D02*
G75*
G03*
X61207500Y-24820000I3404456J10354724D01*
G01*
X67372709Y-44216586D02*
G75*
G03*
X63737500Y-44220000I-1825209J8096586D01*
G01*
X68737958Y-25279752D02*
G75*
G03*
X65547500Y-24820000I-3190458J-10840248D01*
G01*
X68947500Y-25570000D02*
G75*
G03*
X68741732Y-25282323I-290000J10000D01*
G01*
X70177500Y-47720000D02*
G75*
G03*
X71416979Y-47720769I620000J420000D01*
G01*
X76447501Y-41070000D02*
G75*
G03*
X77552777Y-44492002I5849999J0D01*
G01*
X73477500Y-47720000D02*
G75*
G03*
X77552843Y-44490807I1970000J1700000D01*
G01*
X56847500Y-26220000D02*
G75*
G03*
X56847500Y-26220000I-1200000J0D01*
G01*
X76447500Y-36120000D02*
G75*
G03*
X76447500Y-36120000I-10900000J0D01*
G01*
X76647500Y-46020000D02*
G75*
G03*
X76647500Y-46020000I-1200000J0D01*
G01*
%TO.C,J2*%
X113160000Y-36070000D02*
X113160000Y-30830000D01*
X113160000Y-41330000D02*
X113430000Y-41180000D01*
X113160000Y-42190000D02*
X113160000Y-41330000D01*
X113550000Y-42830000D02*
X113160000Y-42190000D01*
X114160000Y-42490000D02*
X113550000Y-42830000D01*
X119500000Y-46100000D02*
X119500000Y-50870000D01*
X121000000Y-50870000D02*
X119500000Y-50870000D01*
X121000000Y-50870000D02*
X121000000Y-46800000D01*
X123120000Y-47110000D02*
X123120000Y-48370000D01*
X123800000Y-48570000D02*
X123320000Y-48570000D01*
X124000000Y-46970000D02*
X124000000Y-48370000D01*
X127120000Y-46800000D02*
X127120000Y-46800000D01*
X127120000Y-50870000D02*
X127120000Y-46800000D01*
X128620000Y-48570000D02*
X133960000Y-48570000D01*
X128620000Y-50870000D02*
X127120000Y-50870000D01*
X128620000Y-50870000D02*
X128620000Y-48570000D01*
X134960000Y-41310000D02*
X134960000Y-29950000D01*
X113160000Y-30830000D02*
G75*
G03*
X112103311Y-27752431I-5009993J2D01*
G01*
X115490000Y-23940001D02*
G75*
G03*
X112108021Y-27760968I-1330000J-2229999D01*
G01*
X113430000Y-41179999D02*
G75*
G03*
X113900785Y-40021372I-480000J869999D01*
G01*
X115457798Y-42763832D02*
G75*
G03*
X114160000Y-42490000I-807798J-616169D01*
G01*
X119500000Y-46100000D02*
G75*
G03*
X119433636Y-45940864I-199996J10002D01*
G01*
X134960000Y-29950000D02*
G75*
G03*
X119740950Y-24339263I-10899999J-6119998D01*
G01*
X115490000Y-23940000D02*
G75*
G03*
X119751919Y-24336158I2550000J4310003D01*
G01*
X121191697Y-46590798D02*
G75*
G03*
X121000000Y-46800000I18304J-209202D01*
G01*
X123119999Y-47110000D02*
G75*
G03*
X122961582Y-46914371I-200001J-1D01*
G01*
X123120000Y-48370000D02*
G75*
G03*
X123320000Y-48570000I200001J1D01*
G01*
X123800000Y-48570000D02*
G75*
G03*
X124000000Y-48370000I-1J200001D01*
G01*
X127119999Y-46800000D02*
G75*
G03*
X126920991Y-46590289I-209999J0D01*
G01*
X133960000Y-48570000D02*
G75*
G03*
X136011619Y-44372858I0J2600000D01*
G01*
X134960000Y-41310000D02*
G75*
G03*
X136012470Y-44375283I4990000J0D01*
G01*
X115360000Y-26170000D02*
G75*
G03*
X115360000Y-26170000I-1200000J0D01*
G01*
X131960000Y-36070000D02*
G75*
G03*
X131960000Y-36070000I-7900000J0D01*
G01*
X133660000Y-36070000D02*
G75*
G03*
X133660000Y-36070000I-9600000J0D01*
G01*
X134960000Y-36070000D02*
G75*
G03*
X134960000Y-36070000I-10900000J0D01*
G01*
X135160000Y-45970000D02*
G75*
G03*
X135160000Y-45970000I-1200000J0D01*
G01*
%TO.C,J3*%
X27297500Y-30880000D02*
X27297500Y-36120000D01*
X31647500Y-47650000D02*
X31647500Y-46370000D01*
X31647500Y-47650000D02*
X32147500Y-47720000D01*
X32147500Y-47720000D02*
X32327500Y-47720000D01*
X33637500Y-47720000D02*
X33567500Y-47720000D01*
X33637500Y-47720000D02*
X33637500Y-50920000D01*
X33957500Y-46370000D02*
X31647500Y-46370000D01*
X33957500Y-46370000D02*
X33957500Y-46170000D01*
X35137500Y-47720000D02*
X35137500Y-50920000D01*
X35137500Y-47720000D02*
X41257500Y-47720000D01*
X35137500Y-50920000D02*
X33637500Y-50920000D01*
X38197500Y-24820000D02*
X33857500Y-24820000D01*
X41257500Y-47720000D02*
X41257500Y-50920000D01*
X41597500Y-25760000D02*
X41597500Y-25570000D01*
X42757500Y-47720000D02*
X42757500Y-50920000D01*
X42757500Y-47720000D02*
X42827500Y-47720000D01*
X42757500Y-50920000D02*
X41257500Y-50920000D01*
X44067500Y-47720000D02*
X46127500Y-47720000D01*
X49097500Y-41070000D02*
X49097500Y-36120000D01*
X30447499Y-24270001D02*
G75*
G03*
X26798535Y-28705578I-2149999J-1949999D01*
G01*
X27297499Y-30880000D02*
G75*
G03*
X26802884Y-28711705I-5000002J-1D01*
G01*
X32327500Y-47720000D02*
G75*
G03*
X33566979Y-47720769I620000J420000D01*
G01*
X30453049Y-24274695D02*
G75*
G03*
X33857500Y-24820000I3404456J10354724D01*
G01*
X40022709Y-44216586D02*
G75*
G03*
X36387500Y-44220000I-1825209J8096586D01*
G01*
X41387958Y-25279752D02*
G75*
G03*
X38197500Y-24820000I-3190458J-10840248D01*
G01*
X41597500Y-25570000D02*
G75*
G03*
X41391732Y-25282323I-290000J10000D01*
G01*
X42827500Y-47720000D02*
G75*
G03*
X44066979Y-47720769I620000J420000D01*
G01*
X49097501Y-41070000D02*
G75*
G03*
X50202777Y-44492002I5849999J0D01*
G01*
X46127500Y-47720000D02*
G75*
G03*
X50202843Y-44490807I1970000J1700000D01*
G01*
X29497500Y-26220000D02*
G75*
G03*
X29497500Y-26220000I-1200000J0D01*
G01*
X49097500Y-36120000D02*
G75*
G03*
X49097500Y-36120000I-10900000J0D01*
G01*
X49297500Y-46020000D02*
G75*
G03*
X49297500Y-46020000I-1200000J0D01*
G01*
%TD*%
M02*
