%TF.GenerationSoftware,KiCad,Pcbnew,(7.0.0)*%
%TF.CreationDate,2023-11-09T23:31:29+01:00*%
%TF.ProjectId,xlr-inteface,786c722d-696e-4746-9566-6163652e6b69,rev?*%
%TF.SameCoordinates,Original*%
%TF.FileFunction,Drillmap*%
%TF.FilePolarity,Positive*%
%FSLAX45Y45*%
G04 Gerber Fmt 4.5, Leading zero omitted, Abs format (unit mm)*
G04 Created by KiCad (PCBNEW (7.0.0)) date 2023-11-09 23:31:29*
%MOMM*%
%LPD*%
G01*
G04 APERTURE LIST*
%ADD10C,0.100000*%
%ADD11C,0.200000*%
%ADD12C,0.040000*%
%ADD13C,0.060000*%
%ADD14C,0.120000*%
%ADD15C,0.160000*%
G04 APERTURE END LIST*
D10*
X2485000Y-3341000D02*
X13725000Y-3341000D01*
X13725000Y-3341000D02*
X13725000Y-5616000D01*
X13725000Y-5616000D02*
X2485000Y-5616000D01*
X2485000Y-5616000D02*
X2485000Y-3341000D01*
D11*
D12*
X2633000Y-5406000D02*
X2673000Y-5446000D01*
X2673000Y-5406000D02*
X2633000Y-5446000D01*
X3086000Y-4366000D02*
X3126000Y-4406000D01*
X3126000Y-4366000D02*
X3086000Y-4406000D01*
X4204000Y-4556000D02*
X4244000Y-4596000D01*
X4244000Y-4556000D02*
X4204000Y-4596000D01*
X4345000Y-3880000D02*
X4385000Y-3920000D01*
X4385000Y-3880000D02*
X4345000Y-3920000D01*
X4888000Y-3569000D02*
X4928000Y-3609000D01*
X4928000Y-3569000D02*
X4888000Y-3609000D01*
X5137000Y-5285000D02*
X5177000Y-5325000D01*
X5177000Y-5285000D02*
X5137000Y-5325000D01*
X5159000Y-4248000D02*
X5199000Y-4288000D01*
X5199000Y-4248000D02*
X5159000Y-4288000D01*
X5251000Y-3420000D02*
X5291000Y-3460000D01*
X5291000Y-3420000D02*
X5251000Y-3460000D01*
X5965000Y-5471000D02*
X6005000Y-5511000D01*
X6005000Y-5471000D02*
X5965000Y-5511000D01*
X5973000Y-5127000D02*
X6013000Y-5167000D01*
X6013000Y-5127000D02*
X5973000Y-5167000D01*
X6018182Y-3951950D02*
X6058182Y-3991950D01*
X6058182Y-3951950D02*
X6018182Y-3991950D01*
D13*
X8210000Y-3690000D02*
G75*
G03*
X8210000Y-3690000I-30000J0D01*
G01*
X8320000Y-5210000D02*
G75*
G03*
X8320000Y-5210000I-30000J0D01*
G01*
X8500000Y-4610000D02*
G75*
G03*
X8500000Y-4610000I-30000J0D01*
G01*
X9640000Y-5240000D02*
G75*
G03*
X9640000Y-5240000I-30000J0D01*
G01*
X9661000Y-4550000D02*
G75*
G03*
X9661000Y-4550000I-30000J0D01*
G01*
X10480000Y-5190000D02*
G75*
G03*
X10480000Y-5190000I-30000J0D01*
G01*
X11080000Y-3790000D02*
G75*
G03*
X11080000Y-3790000I-30000J0D01*
G01*
X12060000Y-5060000D02*
G75*
G03*
X12060000Y-5060000I-30000J0D01*
G01*
X12528000Y-4545000D02*
G75*
G03*
X12528000Y-4545000I-30000J0D01*
G01*
X13580000Y-3720000D02*
G75*
G03*
X13580000Y-3720000I-30000J0D01*
G01*
D10*
X2934000Y-5214000D02*
X2934000Y-5314000D01*
X2884000Y-5264000D02*
X2984000Y-5264000D01*
X3188000Y-5214000D02*
X3188000Y-5314000D01*
X3138000Y-5264000D02*
X3238000Y-5264000D01*
X3894000Y-5232000D02*
X3894000Y-5332000D01*
X3844000Y-5282000D02*
X3944000Y-5282000D01*
X4148000Y-5232000D02*
X4148000Y-5332000D01*
X4098000Y-5282000D02*
X4198000Y-5282000D01*
X8143000Y-4263000D02*
X8143000Y-4363000D01*
X8093000Y-4313000D02*
X8193000Y-4313000D01*
X8143000Y-4517000D02*
X8143000Y-4617000D01*
X8093000Y-4567000D02*
X8193000Y-4567000D01*
X8143000Y-4771000D02*
X8143000Y-4871000D01*
X8093000Y-4821000D02*
X8193000Y-4821000D01*
X10921500Y-5250000D02*
X10921500Y-5350000D01*
X10871500Y-5300000D02*
X10971500Y-5300000D01*
X11175500Y-5250000D02*
X11175500Y-5350000D01*
X11125500Y-5300000D02*
X11225500Y-5300000D01*
X12894500Y-5253000D02*
X12894500Y-5353000D01*
X12844500Y-5303000D02*
X12944500Y-5303000D01*
X13148500Y-5253000D02*
X13148500Y-5353000D01*
X13098500Y-5303000D02*
X13198500Y-5303000D01*
D14*
X3862177Y-4479927D02*
X3862177Y-4395073D01*
X3777323Y-4395073D01*
X3777323Y-4479927D01*
X3862177Y-4479927D01*
X6597177Y-4479927D02*
X6597177Y-4395073D01*
X6512323Y-4395073D01*
X6512323Y-4479927D01*
X6597177Y-4479927D01*
X9743427Y-4094427D02*
X9743427Y-4009573D01*
X9658573Y-4009573D01*
X9658573Y-4094427D01*
X9743427Y-4094427D01*
X12448427Y-4094427D02*
X12448427Y-4009573D01*
X12363573Y-4009573D01*
X12363573Y-4094427D01*
X12448427Y-4094427D01*
D15*
X3438750Y-3692000D02*
X3518750Y-3612000D01*
X3438750Y-3532000D01*
X3358750Y-3612000D01*
X3438750Y-3692000D01*
X3819750Y-4073000D02*
X3899750Y-3993000D01*
X3819750Y-3913000D01*
X3739750Y-3993000D01*
X3819750Y-4073000D01*
X4200750Y-3692000D02*
X4280750Y-3612000D01*
X4200750Y-3532000D01*
X4120750Y-3612000D01*
X4200750Y-3692000D01*
X6173750Y-3692000D02*
X6253750Y-3612000D01*
X6173750Y-3532000D01*
X6093750Y-3612000D01*
X6173750Y-3692000D01*
X6554750Y-4073000D02*
X6634750Y-3993000D01*
X6554750Y-3913000D01*
X6474750Y-3993000D01*
X6554750Y-4073000D01*
X6935750Y-3692000D02*
X7015750Y-3612000D01*
X6935750Y-3532000D01*
X6855750Y-3612000D01*
X6935750Y-3692000D01*
X9320000Y-3687000D02*
X9400000Y-3607000D01*
X9320000Y-3527000D01*
X9240000Y-3607000D01*
X9320000Y-3687000D01*
X10082000Y-3687000D02*
X10162000Y-3607000D01*
X10082000Y-3527000D01*
X10002000Y-3607000D01*
X10082000Y-3687000D01*
X12025000Y-3687000D02*
X12105000Y-3607000D01*
X12025000Y-3527000D01*
X11945000Y-3607000D01*
X12025000Y-3687000D01*
X12787000Y-3687000D02*
X12867000Y-3607000D01*
X12787000Y-3527000D01*
X12707000Y-3607000D01*
X12787000Y-3687000D01*
D11*
X2727619Y-5914476D02*
X2727619Y-5714476D01*
X2727619Y-5714476D02*
X2775238Y-5714476D01*
X2775238Y-5714476D02*
X2803809Y-5724000D01*
X2803809Y-5724000D02*
X2822857Y-5743048D01*
X2822857Y-5743048D02*
X2832381Y-5762095D01*
X2832381Y-5762095D02*
X2841905Y-5800190D01*
X2841905Y-5800190D02*
X2841905Y-5828762D01*
X2841905Y-5828762D02*
X2832381Y-5866857D01*
X2832381Y-5866857D02*
X2822857Y-5885905D01*
X2822857Y-5885905D02*
X2803809Y-5904952D01*
X2803809Y-5904952D02*
X2775238Y-5914476D01*
X2775238Y-5914476D02*
X2727619Y-5914476D01*
X2927619Y-5914476D02*
X2927619Y-5781143D01*
X2927619Y-5819238D02*
X2937143Y-5800190D01*
X2937143Y-5800190D02*
X2946667Y-5790667D01*
X2946667Y-5790667D02*
X2965714Y-5781143D01*
X2965714Y-5781143D02*
X2984762Y-5781143D01*
X3051428Y-5914476D02*
X3051428Y-5781143D01*
X3051428Y-5714476D02*
X3041905Y-5724000D01*
X3041905Y-5724000D02*
X3051428Y-5733524D01*
X3051428Y-5733524D02*
X3060952Y-5724000D01*
X3060952Y-5724000D02*
X3051428Y-5714476D01*
X3051428Y-5714476D02*
X3051428Y-5733524D01*
X3175238Y-5914476D02*
X3156190Y-5904952D01*
X3156190Y-5904952D02*
X3146667Y-5885905D01*
X3146667Y-5885905D02*
X3146667Y-5714476D01*
X3280000Y-5914476D02*
X3260952Y-5904952D01*
X3260952Y-5904952D02*
X3251428Y-5885905D01*
X3251428Y-5885905D02*
X3251428Y-5714476D01*
X3476190Y-5914476D02*
X3476190Y-5714476D01*
X3476190Y-5714476D02*
X3542857Y-5857333D01*
X3542857Y-5857333D02*
X3609524Y-5714476D01*
X3609524Y-5714476D02*
X3609524Y-5914476D01*
X3790476Y-5914476D02*
X3790476Y-5809714D01*
X3790476Y-5809714D02*
X3780952Y-5790667D01*
X3780952Y-5790667D02*
X3761905Y-5781143D01*
X3761905Y-5781143D02*
X3723809Y-5781143D01*
X3723809Y-5781143D02*
X3704762Y-5790667D01*
X3790476Y-5904952D02*
X3771428Y-5914476D01*
X3771428Y-5914476D02*
X3723809Y-5914476D01*
X3723809Y-5914476D02*
X3704762Y-5904952D01*
X3704762Y-5904952D02*
X3695238Y-5885905D01*
X3695238Y-5885905D02*
X3695238Y-5866857D01*
X3695238Y-5866857D02*
X3704762Y-5847809D01*
X3704762Y-5847809D02*
X3723809Y-5838286D01*
X3723809Y-5838286D02*
X3771428Y-5838286D01*
X3771428Y-5838286D02*
X3790476Y-5828762D01*
X3885714Y-5781143D02*
X3885714Y-5981143D01*
X3885714Y-5790667D02*
X3904762Y-5781143D01*
X3904762Y-5781143D02*
X3942857Y-5781143D01*
X3942857Y-5781143D02*
X3961905Y-5790667D01*
X3961905Y-5790667D02*
X3971428Y-5800190D01*
X3971428Y-5800190D02*
X3980952Y-5819238D01*
X3980952Y-5819238D02*
X3980952Y-5876381D01*
X3980952Y-5876381D02*
X3971428Y-5895428D01*
X3971428Y-5895428D02*
X3961905Y-5904952D01*
X3961905Y-5904952D02*
X3942857Y-5914476D01*
X3942857Y-5914476D02*
X3904762Y-5914476D01*
X3904762Y-5914476D02*
X3885714Y-5904952D01*
X4066667Y-5895428D02*
X4076190Y-5904952D01*
X4076190Y-5904952D02*
X4066667Y-5914476D01*
X4066667Y-5914476D02*
X4057143Y-5904952D01*
X4057143Y-5904952D02*
X4066667Y-5895428D01*
X4066667Y-5895428D02*
X4066667Y-5914476D01*
X4066667Y-5790667D02*
X4076190Y-5800190D01*
X4076190Y-5800190D02*
X4066667Y-5809714D01*
X4066667Y-5809714D02*
X4057143Y-5800190D01*
X4057143Y-5800190D02*
X4066667Y-5790667D01*
X4066667Y-5790667D02*
X4066667Y-5809714D01*
D12*
X2440000Y-6241000D02*
X2480000Y-6281000D01*
X2480000Y-6241000D02*
X2440000Y-6281000D01*
D11*
X2765714Y-6134476D02*
X2784762Y-6134476D01*
X2784762Y-6134476D02*
X2803809Y-6144000D01*
X2803809Y-6144000D02*
X2813333Y-6153524D01*
X2813333Y-6153524D02*
X2822857Y-6172571D01*
X2822857Y-6172571D02*
X2832381Y-6210667D01*
X2832381Y-6210667D02*
X2832381Y-6258286D01*
X2832381Y-6258286D02*
X2822857Y-6296381D01*
X2822857Y-6296381D02*
X2813333Y-6315428D01*
X2813333Y-6315428D02*
X2803809Y-6324952D01*
X2803809Y-6324952D02*
X2784762Y-6334476D01*
X2784762Y-6334476D02*
X2765714Y-6334476D01*
X2765714Y-6334476D02*
X2746667Y-6324952D01*
X2746667Y-6324952D02*
X2737143Y-6315428D01*
X2737143Y-6315428D02*
X2727619Y-6296381D01*
X2727619Y-6296381D02*
X2718095Y-6258286D01*
X2718095Y-6258286D02*
X2718095Y-6210667D01*
X2718095Y-6210667D02*
X2727619Y-6172571D01*
X2727619Y-6172571D02*
X2737143Y-6153524D01*
X2737143Y-6153524D02*
X2746667Y-6144000D01*
X2746667Y-6144000D02*
X2765714Y-6134476D01*
X2918095Y-6315428D02*
X2927619Y-6324952D01*
X2927619Y-6324952D02*
X2918095Y-6334476D01*
X2918095Y-6334476D02*
X2908571Y-6324952D01*
X2908571Y-6324952D02*
X2918095Y-6315428D01*
X2918095Y-6315428D02*
X2918095Y-6334476D01*
X3099048Y-6201143D02*
X3099048Y-6334476D01*
X3051428Y-6124952D02*
X3003809Y-6267809D01*
X3003809Y-6267809D02*
X3127619Y-6267809D01*
X3241905Y-6134476D02*
X3260952Y-6134476D01*
X3260952Y-6134476D02*
X3280000Y-6144000D01*
X3280000Y-6144000D02*
X3289524Y-6153524D01*
X3289524Y-6153524D02*
X3299048Y-6172571D01*
X3299048Y-6172571D02*
X3308571Y-6210667D01*
X3308571Y-6210667D02*
X3308571Y-6258286D01*
X3308571Y-6258286D02*
X3299048Y-6296381D01*
X3299048Y-6296381D02*
X3289524Y-6315428D01*
X3289524Y-6315428D02*
X3280000Y-6324952D01*
X3280000Y-6324952D02*
X3260952Y-6334476D01*
X3260952Y-6334476D02*
X3241905Y-6334476D01*
X3241905Y-6334476D02*
X3222857Y-6324952D01*
X3222857Y-6324952D02*
X3213333Y-6315428D01*
X3213333Y-6315428D02*
X3203809Y-6296381D01*
X3203809Y-6296381D02*
X3194286Y-6258286D01*
X3194286Y-6258286D02*
X3194286Y-6210667D01*
X3194286Y-6210667D02*
X3203809Y-6172571D01*
X3203809Y-6172571D02*
X3213333Y-6153524D01*
X3213333Y-6153524D02*
X3222857Y-6144000D01*
X3222857Y-6144000D02*
X3241905Y-6134476D01*
X3432381Y-6134476D02*
X3451429Y-6134476D01*
X3451429Y-6134476D02*
X3470476Y-6144000D01*
X3470476Y-6144000D02*
X3480000Y-6153524D01*
X3480000Y-6153524D02*
X3489524Y-6172571D01*
X3489524Y-6172571D02*
X3499048Y-6210667D01*
X3499048Y-6210667D02*
X3499048Y-6258286D01*
X3499048Y-6258286D02*
X3489524Y-6296381D01*
X3489524Y-6296381D02*
X3480000Y-6315428D01*
X3480000Y-6315428D02*
X3470476Y-6324952D01*
X3470476Y-6324952D02*
X3451429Y-6334476D01*
X3451429Y-6334476D02*
X3432381Y-6334476D01*
X3432381Y-6334476D02*
X3413333Y-6324952D01*
X3413333Y-6324952D02*
X3403809Y-6315428D01*
X3403809Y-6315428D02*
X3394286Y-6296381D01*
X3394286Y-6296381D02*
X3384762Y-6258286D01*
X3384762Y-6258286D02*
X3384762Y-6210667D01*
X3384762Y-6210667D02*
X3394286Y-6172571D01*
X3394286Y-6172571D02*
X3403809Y-6153524D01*
X3403809Y-6153524D02*
X3413333Y-6144000D01*
X3413333Y-6144000D02*
X3432381Y-6134476D01*
X3584762Y-6334476D02*
X3584762Y-6201143D01*
X3584762Y-6220190D02*
X3594286Y-6210667D01*
X3594286Y-6210667D02*
X3613333Y-6201143D01*
X3613333Y-6201143D02*
X3641905Y-6201143D01*
X3641905Y-6201143D02*
X3660952Y-6210667D01*
X3660952Y-6210667D02*
X3670476Y-6229714D01*
X3670476Y-6229714D02*
X3670476Y-6334476D01*
X3670476Y-6229714D02*
X3680000Y-6210667D01*
X3680000Y-6210667D02*
X3699048Y-6201143D01*
X3699048Y-6201143D02*
X3727619Y-6201143D01*
X3727619Y-6201143D02*
X3746667Y-6210667D01*
X3746667Y-6210667D02*
X3756190Y-6229714D01*
X3756190Y-6229714D02*
X3756190Y-6334476D01*
X3851429Y-6334476D02*
X3851429Y-6201143D01*
X3851429Y-6220190D02*
X3860952Y-6210667D01*
X3860952Y-6210667D02*
X3880000Y-6201143D01*
X3880000Y-6201143D02*
X3908571Y-6201143D01*
X3908571Y-6201143D02*
X3927619Y-6210667D01*
X3927619Y-6210667D02*
X3937143Y-6229714D01*
X3937143Y-6229714D02*
X3937143Y-6334476D01*
X3937143Y-6229714D02*
X3946667Y-6210667D01*
X3946667Y-6210667D02*
X3965714Y-6201143D01*
X3965714Y-6201143D02*
X3994286Y-6201143D01*
X3994286Y-6201143D02*
X4013333Y-6210667D01*
X4013333Y-6210667D02*
X4022857Y-6229714D01*
X4022857Y-6229714D02*
X4022857Y-6334476D01*
X4380952Y-6124952D02*
X4209524Y-6382095D01*
X4605714Y-6134476D02*
X4624762Y-6134476D01*
X4624762Y-6134476D02*
X4643810Y-6144000D01*
X4643810Y-6144000D02*
X4653333Y-6153524D01*
X4653333Y-6153524D02*
X4662857Y-6172571D01*
X4662857Y-6172571D02*
X4672381Y-6210667D01*
X4672381Y-6210667D02*
X4672381Y-6258286D01*
X4672381Y-6258286D02*
X4662857Y-6296381D01*
X4662857Y-6296381D02*
X4653333Y-6315428D01*
X4653333Y-6315428D02*
X4643810Y-6324952D01*
X4643810Y-6324952D02*
X4624762Y-6334476D01*
X4624762Y-6334476D02*
X4605714Y-6334476D01*
X4605714Y-6334476D02*
X4586667Y-6324952D01*
X4586667Y-6324952D02*
X4577143Y-6315428D01*
X4577143Y-6315428D02*
X4567619Y-6296381D01*
X4567619Y-6296381D02*
X4558095Y-6258286D01*
X4558095Y-6258286D02*
X4558095Y-6210667D01*
X4558095Y-6210667D02*
X4567619Y-6172571D01*
X4567619Y-6172571D02*
X4577143Y-6153524D01*
X4577143Y-6153524D02*
X4586667Y-6144000D01*
X4586667Y-6144000D02*
X4605714Y-6134476D01*
X4758095Y-6315428D02*
X4767619Y-6324952D01*
X4767619Y-6324952D02*
X4758095Y-6334476D01*
X4758095Y-6334476D02*
X4748572Y-6324952D01*
X4748572Y-6324952D02*
X4758095Y-6315428D01*
X4758095Y-6315428D02*
X4758095Y-6334476D01*
X4891429Y-6134476D02*
X4910476Y-6134476D01*
X4910476Y-6134476D02*
X4929524Y-6144000D01*
X4929524Y-6144000D02*
X4939048Y-6153524D01*
X4939048Y-6153524D02*
X4948572Y-6172571D01*
X4948572Y-6172571D02*
X4958095Y-6210667D01*
X4958095Y-6210667D02*
X4958095Y-6258286D01*
X4958095Y-6258286D02*
X4948572Y-6296381D01*
X4948572Y-6296381D02*
X4939048Y-6315428D01*
X4939048Y-6315428D02*
X4929524Y-6324952D01*
X4929524Y-6324952D02*
X4910476Y-6334476D01*
X4910476Y-6334476D02*
X4891429Y-6334476D01*
X4891429Y-6334476D02*
X4872381Y-6324952D01*
X4872381Y-6324952D02*
X4862857Y-6315428D01*
X4862857Y-6315428D02*
X4853333Y-6296381D01*
X4853333Y-6296381D02*
X4843810Y-6258286D01*
X4843810Y-6258286D02*
X4843810Y-6210667D01*
X4843810Y-6210667D02*
X4853333Y-6172571D01*
X4853333Y-6172571D02*
X4862857Y-6153524D01*
X4862857Y-6153524D02*
X4872381Y-6144000D01*
X4872381Y-6144000D02*
X4891429Y-6134476D01*
X5148572Y-6334476D02*
X5034286Y-6334476D01*
X5091429Y-6334476D02*
X5091429Y-6134476D01*
X5091429Y-6134476D02*
X5072381Y-6163048D01*
X5072381Y-6163048D02*
X5053333Y-6182095D01*
X5053333Y-6182095D02*
X5034286Y-6191619D01*
X5329524Y-6134476D02*
X5234286Y-6134476D01*
X5234286Y-6134476D02*
X5224762Y-6229714D01*
X5224762Y-6229714D02*
X5234286Y-6220190D01*
X5234286Y-6220190D02*
X5253333Y-6210667D01*
X5253333Y-6210667D02*
X5300953Y-6210667D01*
X5300953Y-6210667D02*
X5320000Y-6220190D01*
X5320000Y-6220190D02*
X5329524Y-6229714D01*
X5329524Y-6229714D02*
X5339048Y-6248762D01*
X5339048Y-6248762D02*
X5339048Y-6296381D01*
X5339048Y-6296381D02*
X5329524Y-6315428D01*
X5329524Y-6315428D02*
X5320000Y-6324952D01*
X5320000Y-6324952D02*
X5300953Y-6334476D01*
X5300953Y-6334476D02*
X5253333Y-6334476D01*
X5253333Y-6334476D02*
X5234286Y-6324952D01*
X5234286Y-6324952D02*
X5224762Y-6315428D01*
X5405714Y-6134476D02*
X5539048Y-6134476D01*
X5539048Y-6134476D02*
X5453333Y-6334476D01*
X5605714Y-6134476D02*
X5605714Y-6172571D01*
X5681905Y-6134476D02*
X5681905Y-6172571D01*
X5944762Y-6410667D02*
X5935238Y-6401143D01*
X5935238Y-6401143D02*
X5916191Y-6372571D01*
X5916191Y-6372571D02*
X5906667Y-6353524D01*
X5906667Y-6353524D02*
X5897143Y-6324952D01*
X5897143Y-6324952D02*
X5887619Y-6277333D01*
X5887619Y-6277333D02*
X5887619Y-6239238D01*
X5887619Y-6239238D02*
X5897143Y-6191619D01*
X5897143Y-6191619D02*
X5906667Y-6163048D01*
X5906667Y-6163048D02*
X5916191Y-6144000D01*
X5916191Y-6144000D02*
X5935238Y-6115428D01*
X5935238Y-6115428D02*
X5944762Y-6105905D01*
X6125714Y-6334476D02*
X6011429Y-6334476D01*
X6068571Y-6334476D02*
X6068571Y-6134476D01*
X6068571Y-6134476D02*
X6049524Y-6163048D01*
X6049524Y-6163048D02*
X6030476Y-6182095D01*
X6030476Y-6182095D02*
X6011429Y-6191619D01*
X6316191Y-6334476D02*
X6201905Y-6334476D01*
X6259048Y-6334476D02*
X6259048Y-6134476D01*
X6259048Y-6134476D02*
X6240000Y-6163048D01*
X6240000Y-6163048D02*
X6220952Y-6182095D01*
X6220952Y-6182095D02*
X6201905Y-6191619D01*
X6521905Y-6334476D02*
X6521905Y-6134476D01*
X6607619Y-6334476D02*
X6607619Y-6229714D01*
X6607619Y-6229714D02*
X6598095Y-6210667D01*
X6598095Y-6210667D02*
X6579048Y-6201143D01*
X6579048Y-6201143D02*
X6550476Y-6201143D01*
X6550476Y-6201143D02*
X6531429Y-6210667D01*
X6531429Y-6210667D02*
X6521905Y-6220190D01*
X6731429Y-6334476D02*
X6712381Y-6324952D01*
X6712381Y-6324952D02*
X6702857Y-6315428D01*
X6702857Y-6315428D02*
X6693333Y-6296381D01*
X6693333Y-6296381D02*
X6693333Y-6239238D01*
X6693333Y-6239238D02*
X6702857Y-6220190D01*
X6702857Y-6220190D02*
X6712381Y-6210667D01*
X6712381Y-6210667D02*
X6731429Y-6201143D01*
X6731429Y-6201143D02*
X6760000Y-6201143D01*
X6760000Y-6201143D02*
X6779048Y-6210667D01*
X6779048Y-6210667D02*
X6788572Y-6220190D01*
X6788572Y-6220190D02*
X6798095Y-6239238D01*
X6798095Y-6239238D02*
X6798095Y-6296381D01*
X6798095Y-6296381D02*
X6788572Y-6315428D01*
X6788572Y-6315428D02*
X6779048Y-6324952D01*
X6779048Y-6324952D02*
X6760000Y-6334476D01*
X6760000Y-6334476D02*
X6731429Y-6334476D01*
X6912381Y-6334476D02*
X6893333Y-6324952D01*
X6893333Y-6324952D02*
X6883810Y-6305905D01*
X6883810Y-6305905D02*
X6883810Y-6134476D01*
X7064762Y-6324952D02*
X7045714Y-6334476D01*
X7045714Y-6334476D02*
X7007619Y-6334476D01*
X7007619Y-6334476D02*
X6988572Y-6324952D01*
X6988572Y-6324952D02*
X6979048Y-6305905D01*
X6979048Y-6305905D02*
X6979048Y-6229714D01*
X6979048Y-6229714D02*
X6988572Y-6210667D01*
X6988572Y-6210667D02*
X7007619Y-6201143D01*
X7007619Y-6201143D02*
X7045714Y-6201143D01*
X7045714Y-6201143D02*
X7064762Y-6210667D01*
X7064762Y-6210667D02*
X7074286Y-6229714D01*
X7074286Y-6229714D02*
X7074286Y-6248762D01*
X7074286Y-6248762D02*
X6979048Y-6267809D01*
X7150476Y-6324952D02*
X7169524Y-6334476D01*
X7169524Y-6334476D02*
X7207619Y-6334476D01*
X7207619Y-6334476D02*
X7226667Y-6324952D01*
X7226667Y-6324952D02*
X7236191Y-6305905D01*
X7236191Y-6305905D02*
X7236191Y-6296381D01*
X7236191Y-6296381D02*
X7226667Y-6277333D01*
X7226667Y-6277333D02*
X7207619Y-6267809D01*
X7207619Y-6267809D02*
X7179048Y-6267809D01*
X7179048Y-6267809D02*
X7160000Y-6258286D01*
X7160000Y-6258286D02*
X7150476Y-6239238D01*
X7150476Y-6239238D02*
X7150476Y-6229714D01*
X7150476Y-6229714D02*
X7160000Y-6210667D01*
X7160000Y-6210667D02*
X7179048Y-6201143D01*
X7179048Y-6201143D02*
X7207619Y-6201143D01*
X7207619Y-6201143D02*
X7226667Y-6210667D01*
X7302857Y-6410667D02*
X7312381Y-6401143D01*
X7312381Y-6401143D02*
X7331429Y-6372571D01*
X7331429Y-6372571D02*
X7340953Y-6353524D01*
X7340953Y-6353524D02*
X7350476Y-6324952D01*
X7350476Y-6324952D02*
X7360000Y-6277333D01*
X7360000Y-6277333D02*
X7360000Y-6239238D01*
X7360000Y-6239238D02*
X7350476Y-6191619D01*
X7350476Y-6191619D02*
X7340953Y-6163048D01*
X7340953Y-6163048D02*
X7331429Y-6144000D01*
X7331429Y-6144000D02*
X7312381Y-6115428D01*
X7312381Y-6115428D02*
X7302857Y-6105905D01*
D13*
X2480000Y-6525000D02*
G75*
G03*
X2480000Y-6525000I-30000J0D01*
G01*
D11*
X2765714Y-6398476D02*
X2784762Y-6398476D01*
X2784762Y-6398476D02*
X2803809Y-6408000D01*
X2803809Y-6408000D02*
X2813333Y-6417524D01*
X2813333Y-6417524D02*
X2822857Y-6436571D01*
X2822857Y-6436571D02*
X2832381Y-6474667D01*
X2832381Y-6474667D02*
X2832381Y-6522286D01*
X2832381Y-6522286D02*
X2822857Y-6560381D01*
X2822857Y-6560381D02*
X2813333Y-6579428D01*
X2813333Y-6579428D02*
X2803809Y-6588952D01*
X2803809Y-6588952D02*
X2784762Y-6598476D01*
X2784762Y-6598476D02*
X2765714Y-6598476D01*
X2765714Y-6598476D02*
X2746667Y-6588952D01*
X2746667Y-6588952D02*
X2737143Y-6579428D01*
X2737143Y-6579428D02*
X2727619Y-6560381D01*
X2727619Y-6560381D02*
X2718095Y-6522286D01*
X2718095Y-6522286D02*
X2718095Y-6474667D01*
X2718095Y-6474667D02*
X2727619Y-6436571D01*
X2727619Y-6436571D02*
X2737143Y-6417524D01*
X2737143Y-6417524D02*
X2746667Y-6408000D01*
X2746667Y-6408000D02*
X2765714Y-6398476D01*
X2918095Y-6579428D02*
X2927619Y-6588952D01*
X2927619Y-6588952D02*
X2918095Y-6598476D01*
X2918095Y-6598476D02*
X2908571Y-6588952D01*
X2908571Y-6588952D02*
X2918095Y-6579428D01*
X2918095Y-6579428D02*
X2918095Y-6598476D01*
X3099048Y-6398476D02*
X3060952Y-6398476D01*
X3060952Y-6398476D02*
X3041905Y-6408000D01*
X3041905Y-6408000D02*
X3032381Y-6417524D01*
X3032381Y-6417524D02*
X3013333Y-6446095D01*
X3013333Y-6446095D02*
X3003809Y-6484190D01*
X3003809Y-6484190D02*
X3003809Y-6560381D01*
X3003809Y-6560381D02*
X3013333Y-6579428D01*
X3013333Y-6579428D02*
X3022857Y-6588952D01*
X3022857Y-6588952D02*
X3041905Y-6598476D01*
X3041905Y-6598476D02*
X3080000Y-6598476D01*
X3080000Y-6598476D02*
X3099048Y-6588952D01*
X3099048Y-6588952D02*
X3108571Y-6579428D01*
X3108571Y-6579428D02*
X3118095Y-6560381D01*
X3118095Y-6560381D02*
X3118095Y-6512762D01*
X3118095Y-6512762D02*
X3108571Y-6493714D01*
X3108571Y-6493714D02*
X3099048Y-6484190D01*
X3099048Y-6484190D02*
X3080000Y-6474667D01*
X3080000Y-6474667D02*
X3041905Y-6474667D01*
X3041905Y-6474667D02*
X3022857Y-6484190D01*
X3022857Y-6484190D02*
X3013333Y-6493714D01*
X3013333Y-6493714D02*
X3003809Y-6512762D01*
X3241905Y-6398476D02*
X3260952Y-6398476D01*
X3260952Y-6398476D02*
X3280000Y-6408000D01*
X3280000Y-6408000D02*
X3289524Y-6417524D01*
X3289524Y-6417524D02*
X3299048Y-6436571D01*
X3299048Y-6436571D02*
X3308571Y-6474667D01*
X3308571Y-6474667D02*
X3308571Y-6522286D01*
X3308571Y-6522286D02*
X3299048Y-6560381D01*
X3299048Y-6560381D02*
X3289524Y-6579428D01*
X3289524Y-6579428D02*
X3280000Y-6588952D01*
X3280000Y-6588952D02*
X3260952Y-6598476D01*
X3260952Y-6598476D02*
X3241905Y-6598476D01*
X3241905Y-6598476D02*
X3222857Y-6588952D01*
X3222857Y-6588952D02*
X3213333Y-6579428D01*
X3213333Y-6579428D02*
X3203809Y-6560381D01*
X3203809Y-6560381D02*
X3194286Y-6522286D01*
X3194286Y-6522286D02*
X3194286Y-6474667D01*
X3194286Y-6474667D02*
X3203809Y-6436571D01*
X3203809Y-6436571D02*
X3213333Y-6417524D01*
X3213333Y-6417524D02*
X3222857Y-6408000D01*
X3222857Y-6408000D02*
X3241905Y-6398476D01*
X3432381Y-6398476D02*
X3451429Y-6398476D01*
X3451429Y-6398476D02*
X3470476Y-6408000D01*
X3470476Y-6408000D02*
X3480000Y-6417524D01*
X3480000Y-6417524D02*
X3489524Y-6436571D01*
X3489524Y-6436571D02*
X3499048Y-6474667D01*
X3499048Y-6474667D02*
X3499048Y-6522286D01*
X3499048Y-6522286D02*
X3489524Y-6560381D01*
X3489524Y-6560381D02*
X3480000Y-6579428D01*
X3480000Y-6579428D02*
X3470476Y-6588952D01*
X3470476Y-6588952D02*
X3451429Y-6598476D01*
X3451429Y-6598476D02*
X3432381Y-6598476D01*
X3432381Y-6598476D02*
X3413333Y-6588952D01*
X3413333Y-6588952D02*
X3403809Y-6579428D01*
X3403809Y-6579428D02*
X3394286Y-6560381D01*
X3394286Y-6560381D02*
X3384762Y-6522286D01*
X3384762Y-6522286D02*
X3384762Y-6474667D01*
X3384762Y-6474667D02*
X3394286Y-6436571D01*
X3394286Y-6436571D02*
X3403809Y-6417524D01*
X3403809Y-6417524D02*
X3413333Y-6408000D01*
X3413333Y-6408000D02*
X3432381Y-6398476D01*
X3584762Y-6598476D02*
X3584762Y-6465143D01*
X3584762Y-6484190D02*
X3594286Y-6474667D01*
X3594286Y-6474667D02*
X3613333Y-6465143D01*
X3613333Y-6465143D02*
X3641905Y-6465143D01*
X3641905Y-6465143D02*
X3660952Y-6474667D01*
X3660952Y-6474667D02*
X3670476Y-6493714D01*
X3670476Y-6493714D02*
X3670476Y-6598476D01*
X3670476Y-6493714D02*
X3680000Y-6474667D01*
X3680000Y-6474667D02*
X3699048Y-6465143D01*
X3699048Y-6465143D02*
X3727619Y-6465143D01*
X3727619Y-6465143D02*
X3746667Y-6474667D01*
X3746667Y-6474667D02*
X3756190Y-6493714D01*
X3756190Y-6493714D02*
X3756190Y-6598476D01*
X3851429Y-6598476D02*
X3851429Y-6465143D01*
X3851429Y-6484190D02*
X3860952Y-6474667D01*
X3860952Y-6474667D02*
X3880000Y-6465143D01*
X3880000Y-6465143D02*
X3908571Y-6465143D01*
X3908571Y-6465143D02*
X3927619Y-6474667D01*
X3927619Y-6474667D02*
X3937143Y-6493714D01*
X3937143Y-6493714D02*
X3937143Y-6598476D01*
X3937143Y-6493714D02*
X3946667Y-6474667D01*
X3946667Y-6474667D02*
X3965714Y-6465143D01*
X3965714Y-6465143D02*
X3994286Y-6465143D01*
X3994286Y-6465143D02*
X4013333Y-6474667D01*
X4013333Y-6474667D02*
X4022857Y-6493714D01*
X4022857Y-6493714D02*
X4022857Y-6598476D01*
X4380952Y-6388952D02*
X4209524Y-6646095D01*
X4605714Y-6398476D02*
X4624762Y-6398476D01*
X4624762Y-6398476D02*
X4643810Y-6408000D01*
X4643810Y-6408000D02*
X4653333Y-6417524D01*
X4653333Y-6417524D02*
X4662857Y-6436571D01*
X4662857Y-6436571D02*
X4672381Y-6474667D01*
X4672381Y-6474667D02*
X4672381Y-6522286D01*
X4672381Y-6522286D02*
X4662857Y-6560381D01*
X4662857Y-6560381D02*
X4653333Y-6579428D01*
X4653333Y-6579428D02*
X4643810Y-6588952D01*
X4643810Y-6588952D02*
X4624762Y-6598476D01*
X4624762Y-6598476D02*
X4605714Y-6598476D01*
X4605714Y-6598476D02*
X4586667Y-6588952D01*
X4586667Y-6588952D02*
X4577143Y-6579428D01*
X4577143Y-6579428D02*
X4567619Y-6560381D01*
X4567619Y-6560381D02*
X4558095Y-6522286D01*
X4558095Y-6522286D02*
X4558095Y-6474667D01*
X4558095Y-6474667D02*
X4567619Y-6436571D01*
X4567619Y-6436571D02*
X4577143Y-6417524D01*
X4577143Y-6417524D02*
X4586667Y-6408000D01*
X4586667Y-6408000D02*
X4605714Y-6398476D01*
X4758095Y-6579428D02*
X4767619Y-6588952D01*
X4767619Y-6588952D02*
X4758095Y-6598476D01*
X4758095Y-6598476D02*
X4748572Y-6588952D01*
X4748572Y-6588952D02*
X4758095Y-6579428D01*
X4758095Y-6579428D02*
X4758095Y-6598476D01*
X4891429Y-6398476D02*
X4910476Y-6398476D01*
X4910476Y-6398476D02*
X4929524Y-6408000D01*
X4929524Y-6408000D02*
X4939048Y-6417524D01*
X4939048Y-6417524D02*
X4948572Y-6436571D01*
X4948572Y-6436571D02*
X4958095Y-6474667D01*
X4958095Y-6474667D02*
X4958095Y-6522286D01*
X4958095Y-6522286D02*
X4948572Y-6560381D01*
X4948572Y-6560381D02*
X4939048Y-6579428D01*
X4939048Y-6579428D02*
X4929524Y-6588952D01*
X4929524Y-6588952D02*
X4910476Y-6598476D01*
X4910476Y-6598476D02*
X4891429Y-6598476D01*
X4891429Y-6598476D02*
X4872381Y-6588952D01*
X4872381Y-6588952D02*
X4862857Y-6579428D01*
X4862857Y-6579428D02*
X4853333Y-6560381D01*
X4853333Y-6560381D02*
X4843810Y-6522286D01*
X4843810Y-6522286D02*
X4843810Y-6474667D01*
X4843810Y-6474667D02*
X4853333Y-6436571D01*
X4853333Y-6436571D02*
X4862857Y-6417524D01*
X4862857Y-6417524D02*
X4872381Y-6408000D01*
X4872381Y-6408000D02*
X4891429Y-6398476D01*
X5034286Y-6417524D02*
X5043810Y-6408000D01*
X5043810Y-6408000D02*
X5062857Y-6398476D01*
X5062857Y-6398476D02*
X5110476Y-6398476D01*
X5110476Y-6398476D02*
X5129524Y-6408000D01*
X5129524Y-6408000D02*
X5139048Y-6417524D01*
X5139048Y-6417524D02*
X5148572Y-6436571D01*
X5148572Y-6436571D02*
X5148572Y-6455619D01*
X5148572Y-6455619D02*
X5139048Y-6484190D01*
X5139048Y-6484190D02*
X5024762Y-6598476D01*
X5024762Y-6598476D02*
X5148572Y-6598476D01*
X5215238Y-6398476D02*
X5339048Y-6398476D01*
X5339048Y-6398476D02*
X5272381Y-6474667D01*
X5272381Y-6474667D02*
X5300953Y-6474667D01*
X5300953Y-6474667D02*
X5320000Y-6484190D01*
X5320000Y-6484190D02*
X5329524Y-6493714D01*
X5329524Y-6493714D02*
X5339048Y-6512762D01*
X5339048Y-6512762D02*
X5339048Y-6560381D01*
X5339048Y-6560381D02*
X5329524Y-6579428D01*
X5329524Y-6579428D02*
X5320000Y-6588952D01*
X5320000Y-6588952D02*
X5300953Y-6598476D01*
X5300953Y-6598476D02*
X5243810Y-6598476D01*
X5243810Y-6598476D02*
X5224762Y-6588952D01*
X5224762Y-6588952D02*
X5215238Y-6579428D01*
X5510476Y-6398476D02*
X5472381Y-6398476D01*
X5472381Y-6398476D02*
X5453333Y-6408000D01*
X5453333Y-6408000D02*
X5443810Y-6417524D01*
X5443810Y-6417524D02*
X5424762Y-6446095D01*
X5424762Y-6446095D02*
X5415238Y-6484190D01*
X5415238Y-6484190D02*
X5415238Y-6560381D01*
X5415238Y-6560381D02*
X5424762Y-6579428D01*
X5424762Y-6579428D02*
X5434286Y-6588952D01*
X5434286Y-6588952D02*
X5453333Y-6598476D01*
X5453333Y-6598476D02*
X5491429Y-6598476D01*
X5491429Y-6598476D02*
X5510476Y-6588952D01*
X5510476Y-6588952D02*
X5520000Y-6579428D01*
X5520000Y-6579428D02*
X5529524Y-6560381D01*
X5529524Y-6560381D02*
X5529524Y-6512762D01*
X5529524Y-6512762D02*
X5520000Y-6493714D01*
X5520000Y-6493714D02*
X5510476Y-6484190D01*
X5510476Y-6484190D02*
X5491429Y-6474667D01*
X5491429Y-6474667D02*
X5453333Y-6474667D01*
X5453333Y-6474667D02*
X5434286Y-6484190D01*
X5434286Y-6484190D02*
X5424762Y-6493714D01*
X5424762Y-6493714D02*
X5415238Y-6512762D01*
X5605714Y-6398476D02*
X5605714Y-6436571D01*
X5681905Y-6398476D02*
X5681905Y-6436571D01*
X5944762Y-6674667D02*
X5935238Y-6665143D01*
X5935238Y-6665143D02*
X5916191Y-6636571D01*
X5916191Y-6636571D02*
X5906667Y-6617524D01*
X5906667Y-6617524D02*
X5897143Y-6588952D01*
X5897143Y-6588952D02*
X5887619Y-6541333D01*
X5887619Y-6541333D02*
X5887619Y-6503238D01*
X5887619Y-6503238D02*
X5897143Y-6455619D01*
X5897143Y-6455619D02*
X5906667Y-6427048D01*
X5906667Y-6427048D02*
X5916191Y-6408000D01*
X5916191Y-6408000D02*
X5935238Y-6379428D01*
X5935238Y-6379428D02*
X5944762Y-6369905D01*
X6125714Y-6598476D02*
X6011429Y-6598476D01*
X6068571Y-6598476D02*
X6068571Y-6398476D01*
X6068571Y-6398476D02*
X6049524Y-6427048D01*
X6049524Y-6427048D02*
X6030476Y-6446095D01*
X6030476Y-6446095D02*
X6011429Y-6455619D01*
X6249524Y-6398476D02*
X6268572Y-6398476D01*
X6268572Y-6398476D02*
X6287619Y-6408000D01*
X6287619Y-6408000D02*
X6297143Y-6417524D01*
X6297143Y-6417524D02*
X6306667Y-6436571D01*
X6306667Y-6436571D02*
X6316191Y-6474667D01*
X6316191Y-6474667D02*
X6316191Y-6522286D01*
X6316191Y-6522286D02*
X6306667Y-6560381D01*
X6306667Y-6560381D02*
X6297143Y-6579428D01*
X6297143Y-6579428D02*
X6287619Y-6588952D01*
X6287619Y-6588952D02*
X6268572Y-6598476D01*
X6268572Y-6598476D02*
X6249524Y-6598476D01*
X6249524Y-6598476D02*
X6230476Y-6588952D01*
X6230476Y-6588952D02*
X6220952Y-6579428D01*
X6220952Y-6579428D02*
X6211429Y-6560381D01*
X6211429Y-6560381D02*
X6201905Y-6522286D01*
X6201905Y-6522286D02*
X6201905Y-6474667D01*
X6201905Y-6474667D02*
X6211429Y-6436571D01*
X6211429Y-6436571D02*
X6220952Y-6417524D01*
X6220952Y-6417524D02*
X6230476Y-6408000D01*
X6230476Y-6408000D02*
X6249524Y-6398476D01*
X6521905Y-6598476D02*
X6521905Y-6398476D01*
X6607619Y-6598476D02*
X6607619Y-6493714D01*
X6607619Y-6493714D02*
X6598095Y-6474667D01*
X6598095Y-6474667D02*
X6579048Y-6465143D01*
X6579048Y-6465143D02*
X6550476Y-6465143D01*
X6550476Y-6465143D02*
X6531429Y-6474667D01*
X6531429Y-6474667D02*
X6521905Y-6484190D01*
X6731429Y-6598476D02*
X6712381Y-6588952D01*
X6712381Y-6588952D02*
X6702857Y-6579428D01*
X6702857Y-6579428D02*
X6693333Y-6560381D01*
X6693333Y-6560381D02*
X6693333Y-6503238D01*
X6693333Y-6503238D02*
X6702857Y-6484190D01*
X6702857Y-6484190D02*
X6712381Y-6474667D01*
X6712381Y-6474667D02*
X6731429Y-6465143D01*
X6731429Y-6465143D02*
X6760000Y-6465143D01*
X6760000Y-6465143D02*
X6779048Y-6474667D01*
X6779048Y-6474667D02*
X6788572Y-6484190D01*
X6788572Y-6484190D02*
X6798095Y-6503238D01*
X6798095Y-6503238D02*
X6798095Y-6560381D01*
X6798095Y-6560381D02*
X6788572Y-6579428D01*
X6788572Y-6579428D02*
X6779048Y-6588952D01*
X6779048Y-6588952D02*
X6760000Y-6598476D01*
X6760000Y-6598476D02*
X6731429Y-6598476D01*
X6912381Y-6598476D02*
X6893333Y-6588952D01*
X6893333Y-6588952D02*
X6883810Y-6569905D01*
X6883810Y-6569905D02*
X6883810Y-6398476D01*
X7064762Y-6588952D02*
X7045714Y-6598476D01*
X7045714Y-6598476D02*
X7007619Y-6598476D01*
X7007619Y-6598476D02*
X6988572Y-6588952D01*
X6988572Y-6588952D02*
X6979048Y-6569905D01*
X6979048Y-6569905D02*
X6979048Y-6493714D01*
X6979048Y-6493714D02*
X6988572Y-6474667D01*
X6988572Y-6474667D02*
X7007619Y-6465143D01*
X7007619Y-6465143D02*
X7045714Y-6465143D01*
X7045714Y-6465143D02*
X7064762Y-6474667D01*
X7064762Y-6474667D02*
X7074286Y-6493714D01*
X7074286Y-6493714D02*
X7074286Y-6512762D01*
X7074286Y-6512762D02*
X6979048Y-6531809D01*
X7150476Y-6588952D02*
X7169524Y-6598476D01*
X7169524Y-6598476D02*
X7207619Y-6598476D01*
X7207619Y-6598476D02*
X7226667Y-6588952D01*
X7226667Y-6588952D02*
X7236191Y-6569905D01*
X7236191Y-6569905D02*
X7236191Y-6560381D01*
X7236191Y-6560381D02*
X7226667Y-6541333D01*
X7226667Y-6541333D02*
X7207619Y-6531809D01*
X7207619Y-6531809D02*
X7179048Y-6531809D01*
X7179048Y-6531809D02*
X7160000Y-6522286D01*
X7160000Y-6522286D02*
X7150476Y-6503238D01*
X7150476Y-6503238D02*
X7150476Y-6493714D01*
X7150476Y-6493714D02*
X7160000Y-6474667D01*
X7160000Y-6474667D02*
X7179048Y-6465143D01*
X7179048Y-6465143D02*
X7207619Y-6465143D01*
X7207619Y-6465143D02*
X7226667Y-6474667D01*
X7302857Y-6674667D02*
X7312381Y-6665143D01*
X7312381Y-6665143D02*
X7331429Y-6636571D01*
X7331429Y-6636571D02*
X7340953Y-6617524D01*
X7340953Y-6617524D02*
X7350476Y-6588952D01*
X7350476Y-6588952D02*
X7360000Y-6541333D01*
X7360000Y-6541333D02*
X7360000Y-6503238D01*
X7360000Y-6503238D02*
X7350476Y-6455619D01*
X7350476Y-6455619D02*
X7340953Y-6427048D01*
X7340953Y-6427048D02*
X7331429Y-6408000D01*
X7331429Y-6408000D02*
X7312381Y-6379428D01*
X7312381Y-6379428D02*
X7302857Y-6369905D01*
D10*
X2430000Y-6739000D02*
X2430000Y-6839000D01*
X2380000Y-6789000D02*
X2480000Y-6789000D01*
D11*
X2832381Y-6862476D02*
X2718095Y-6862476D01*
X2775238Y-6862476D02*
X2775238Y-6662476D01*
X2775238Y-6662476D02*
X2756190Y-6691048D01*
X2756190Y-6691048D02*
X2737143Y-6710095D01*
X2737143Y-6710095D02*
X2718095Y-6719619D01*
X2918095Y-6843428D02*
X2927619Y-6852952D01*
X2927619Y-6852952D02*
X2918095Y-6862476D01*
X2918095Y-6862476D02*
X2908571Y-6852952D01*
X2908571Y-6852952D02*
X2918095Y-6843428D01*
X2918095Y-6843428D02*
X2918095Y-6862476D01*
X3051428Y-6662476D02*
X3070476Y-6662476D01*
X3070476Y-6662476D02*
X3089524Y-6672000D01*
X3089524Y-6672000D02*
X3099048Y-6681524D01*
X3099048Y-6681524D02*
X3108571Y-6700571D01*
X3108571Y-6700571D02*
X3118095Y-6738667D01*
X3118095Y-6738667D02*
X3118095Y-6786286D01*
X3118095Y-6786286D02*
X3108571Y-6824381D01*
X3108571Y-6824381D02*
X3099048Y-6843428D01*
X3099048Y-6843428D02*
X3089524Y-6852952D01*
X3089524Y-6852952D02*
X3070476Y-6862476D01*
X3070476Y-6862476D02*
X3051428Y-6862476D01*
X3051428Y-6862476D02*
X3032381Y-6852952D01*
X3032381Y-6852952D02*
X3022857Y-6843428D01*
X3022857Y-6843428D02*
X3013333Y-6824381D01*
X3013333Y-6824381D02*
X3003809Y-6786286D01*
X3003809Y-6786286D02*
X3003809Y-6738667D01*
X3003809Y-6738667D02*
X3013333Y-6700571D01*
X3013333Y-6700571D02*
X3022857Y-6681524D01*
X3022857Y-6681524D02*
X3032381Y-6672000D01*
X3032381Y-6672000D02*
X3051428Y-6662476D01*
X3241905Y-6662476D02*
X3260952Y-6662476D01*
X3260952Y-6662476D02*
X3280000Y-6672000D01*
X3280000Y-6672000D02*
X3289524Y-6681524D01*
X3289524Y-6681524D02*
X3299048Y-6700571D01*
X3299048Y-6700571D02*
X3308571Y-6738667D01*
X3308571Y-6738667D02*
X3308571Y-6786286D01*
X3308571Y-6786286D02*
X3299048Y-6824381D01*
X3299048Y-6824381D02*
X3289524Y-6843428D01*
X3289524Y-6843428D02*
X3280000Y-6852952D01*
X3280000Y-6852952D02*
X3260952Y-6862476D01*
X3260952Y-6862476D02*
X3241905Y-6862476D01*
X3241905Y-6862476D02*
X3222857Y-6852952D01*
X3222857Y-6852952D02*
X3213333Y-6843428D01*
X3213333Y-6843428D02*
X3203809Y-6824381D01*
X3203809Y-6824381D02*
X3194286Y-6786286D01*
X3194286Y-6786286D02*
X3194286Y-6738667D01*
X3194286Y-6738667D02*
X3203809Y-6700571D01*
X3203809Y-6700571D02*
X3213333Y-6681524D01*
X3213333Y-6681524D02*
X3222857Y-6672000D01*
X3222857Y-6672000D02*
X3241905Y-6662476D01*
X3432381Y-6662476D02*
X3451429Y-6662476D01*
X3451429Y-6662476D02*
X3470476Y-6672000D01*
X3470476Y-6672000D02*
X3480000Y-6681524D01*
X3480000Y-6681524D02*
X3489524Y-6700571D01*
X3489524Y-6700571D02*
X3499048Y-6738667D01*
X3499048Y-6738667D02*
X3499048Y-6786286D01*
X3499048Y-6786286D02*
X3489524Y-6824381D01*
X3489524Y-6824381D02*
X3480000Y-6843428D01*
X3480000Y-6843428D02*
X3470476Y-6852952D01*
X3470476Y-6852952D02*
X3451429Y-6862476D01*
X3451429Y-6862476D02*
X3432381Y-6862476D01*
X3432381Y-6862476D02*
X3413333Y-6852952D01*
X3413333Y-6852952D02*
X3403809Y-6843428D01*
X3403809Y-6843428D02*
X3394286Y-6824381D01*
X3394286Y-6824381D02*
X3384762Y-6786286D01*
X3384762Y-6786286D02*
X3384762Y-6738667D01*
X3384762Y-6738667D02*
X3394286Y-6700571D01*
X3394286Y-6700571D02*
X3403809Y-6681524D01*
X3403809Y-6681524D02*
X3413333Y-6672000D01*
X3413333Y-6672000D02*
X3432381Y-6662476D01*
X3584762Y-6862476D02*
X3584762Y-6729143D01*
X3584762Y-6748190D02*
X3594286Y-6738667D01*
X3594286Y-6738667D02*
X3613333Y-6729143D01*
X3613333Y-6729143D02*
X3641905Y-6729143D01*
X3641905Y-6729143D02*
X3660952Y-6738667D01*
X3660952Y-6738667D02*
X3670476Y-6757714D01*
X3670476Y-6757714D02*
X3670476Y-6862476D01*
X3670476Y-6757714D02*
X3680000Y-6738667D01*
X3680000Y-6738667D02*
X3699048Y-6729143D01*
X3699048Y-6729143D02*
X3727619Y-6729143D01*
X3727619Y-6729143D02*
X3746667Y-6738667D01*
X3746667Y-6738667D02*
X3756190Y-6757714D01*
X3756190Y-6757714D02*
X3756190Y-6862476D01*
X3851429Y-6862476D02*
X3851429Y-6729143D01*
X3851429Y-6748190D02*
X3860952Y-6738667D01*
X3860952Y-6738667D02*
X3880000Y-6729143D01*
X3880000Y-6729143D02*
X3908571Y-6729143D01*
X3908571Y-6729143D02*
X3927619Y-6738667D01*
X3927619Y-6738667D02*
X3937143Y-6757714D01*
X3937143Y-6757714D02*
X3937143Y-6862476D01*
X3937143Y-6757714D02*
X3946667Y-6738667D01*
X3946667Y-6738667D02*
X3965714Y-6729143D01*
X3965714Y-6729143D02*
X3994286Y-6729143D01*
X3994286Y-6729143D02*
X4013333Y-6738667D01*
X4013333Y-6738667D02*
X4022857Y-6757714D01*
X4022857Y-6757714D02*
X4022857Y-6862476D01*
X4380952Y-6652952D02*
X4209524Y-6910095D01*
X4605714Y-6662476D02*
X4624762Y-6662476D01*
X4624762Y-6662476D02*
X4643810Y-6672000D01*
X4643810Y-6672000D02*
X4653333Y-6681524D01*
X4653333Y-6681524D02*
X4662857Y-6700571D01*
X4662857Y-6700571D02*
X4672381Y-6738667D01*
X4672381Y-6738667D02*
X4672381Y-6786286D01*
X4672381Y-6786286D02*
X4662857Y-6824381D01*
X4662857Y-6824381D02*
X4653333Y-6843428D01*
X4653333Y-6843428D02*
X4643810Y-6852952D01*
X4643810Y-6852952D02*
X4624762Y-6862476D01*
X4624762Y-6862476D02*
X4605714Y-6862476D01*
X4605714Y-6862476D02*
X4586667Y-6852952D01*
X4586667Y-6852952D02*
X4577143Y-6843428D01*
X4577143Y-6843428D02*
X4567619Y-6824381D01*
X4567619Y-6824381D02*
X4558095Y-6786286D01*
X4558095Y-6786286D02*
X4558095Y-6738667D01*
X4558095Y-6738667D02*
X4567619Y-6700571D01*
X4567619Y-6700571D02*
X4577143Y-6681524D01*
X4577143Y-6681524D02*
X4586667Y-6672000D01*
X4586667Y-6672000D02*
X4605714Y-6662476D01*
X4758095Y-6843428D02*
X4767619Y-6852952D01*
X4767619Y-6852952D02*
X4758095Y-6862476D01*
X4758095Y-6862476D02*
X4748572Y-6852952D01*
X4748572Y-6852952D02*
X4758095Y-6843428D01*
X4758095Y-6843428D02*
X4758095Y-6862476D01*
X4891429Y-6662476D02*
X4910476Y-6662476D01*
X4910476Y-6662476D02*
X4929524Y-6672000D01*
X4929524Y-6672000D02*
X4939048Y-6681524D01*
X4939048Y-6681524D02*
X4948572Y-6700571D01*
X4948572Y-6700571D02*
X4958095Y-6738667D01*
X4958095Y-6738667D02*
X4958095Y-6786286D01*
X4958095Y-6786286D02*
X4948572Y-6824381D01*
X4948572Y-6824381D02*
X4939048Y-6843428D01*
X4939048Y-6843428D02*
X4929524Y-6852952D01*
X4929524Y-6852952D02*
X4910476Y-6862476D01*
X4910476Y-6862476D02*
X4891429Y-6862476D01*
X4891429Y-6862476D02*
X4872381Y-6852952D01*
X4872381Y-6852952D02*
X4862857Y-6843428D01*
X4862857Y-6843428D02*
X4853333Y-6824381D01*
X4853333Y-6824381D02*
X4843810Y-6786286D01*
X4843810Y-6786286D02*
X4843810Y-6738667D01*
X4843810Y-6738667D02*
X4853333Y-6700571D01*
X4853333Y-6700571D02*
X4862857Y-6681524D01*
X4862857Y-6681524D02*
X4872381Y-6672000D01*
X4872381Y-6672000D02*
X4891429Y-6662476D01*
X5024762Y-6662476D02*
X5148572Y-6662476D01*
X5148572Y-6662476D02*
X5081905Y-6738667D01*
X5081905Y-6738667D02*
X5110476Y-6738667D01*
X5110476Y-6738667D02*
X5129524Y-6748190D01*
X5129524Y-6748190D02*
X5139048Y-6757714D01*
X5139048Y-6757714D02*
X5148572Y-6776762D01*
X5148572Y-6776762D02*
X5148572Y-6824381D01*
X5148572Y-6824381D02*
X5139048Y-6843428D01*
X5139048Y-6843428D02*
X5129524Y-6852952D01*
X5129524Y-6852952D02*
X5110476Y-6862476D01*
X5110476Y-6862476D02*
X5053333Y-6862476D01*
X5053333Y-6862476D02*
X5034286Y-6852952D01*
X5034286Y-6852952D02*
X5024762Y-6843428D01*
X5243810Y-6862476D02*
X5281905Y-6862476D01*
X5281905Y-6862476D02*
X5300953Y-6852952D01*
X5300953Y-6852952D02*
X5310476Y-6843428D01*
X5310476Y-6843428D02*
X5329524Y-6814857D01*
X5329524Y-6814857D02*
X5339048Y-6776762D01*
X5339048Y-6776762D02*
X5339048Y-6700571D01*
X5339048Y-6700571D02*
X5329524Y-6681524D01*
X5329524Y-6681524D02*
X5320000Y-6672000D01*
X5320000Y-6672000D02*
X5300953Y-6662476D01*
X5300953Y-6662476D02*
X5262857Y-6662476D01*
X5262857Y-6662476D02*
X5243810Y-6672000D01*
X5243810Y-6672000D02*
X5234286Y-6681524D01*
X5234286Y-6681524D02*
X5224762Y-6700571D01*
X5224762Y-6700571D02*
X5224762Y-6748190D01*
X5224762Y-6748190D02*
X5234286Y-6767238D01*
X5234286Y-6767238D02*
X5243810Y-6776762D01*
X5243810Y-6776762D02*
X5262857Y-6786286D01*
X5262857Y-6786286D02*
X5300953Y-6786286D01*
X5300953Y-6786286D02*
X5320000Y-6776762D01*
X5320000Y-6776762D02*
X5329524Y-6767238D01*
X5329524Y-6767238D02*
X5339048Y-6748190D01*
X5510476Y-6729143D02*
X5510476Y-6862476D01*
X5462857Y-6652952D02*
X5415238Y-6795809D01*
X5415238Y-6795809D02*
X5539048Y-6795809D01*
X5605714Y-6662476D02*
X5605714Y-6700571D01*
X5681905Y-6662476D02*
X5681905Y-6700571D01*
X5944762Y-6938667D02*
X5935238Y-6929143D01*
X5935238Y-6929143D02*
X5916191Y-6900571D01*
X5916191Y-6900571D02*
X5906667Y-6881524D01*
X5906667Y-6881524D02*
X5897143Y-6852952D01*
X5897143Y-6852952D02*
X5887619Y-6805333D01*
X5887619Y-6805333D02*
X5887619Y-6767238D01*
X5887619Y-6767238D02*
X5897143Y-6719619D01*
X5897143Y-6719619D02*
X5906667Y-6691048D01*
X5906667Y-6691048D02*
X5916191Y-6672000D01*
X5916191Y-6672000D02*
X5935238Y-6643428D01*
X5935238Y-6643428D02*
X5944762Y-6633905D01*
X6125714Y-6862476D02*
X6011429Y-6862476D01*
X6068571Y-6862476D02*
X6068571Y-6662476D01*
X6068571Y-6662476D02*
X6049524Y-6691048D01*
X6049524Y-6691048D02*
X6030476Y-6710095D01*
X6030476Y-6710095D02*
X6011429Y-6719619D01*
X6316191Y-6862476D02*
X6201905Y-6862476D01*
X6259048Y-6862476D02*
X6259048Y-6662476D01*
X6259048Y-6662476D02*
X6240000Y-6691048D01*
X6240000Y-6691048D02*
X6220952Y-6710095D01*
X6220952Y-6710095D02*
X6201905Y-6719619D01*
X6521905Y-6862476D02*
X6521905Y-6662476D01*
X6607619Y-6862476D02*
X6607619Y-6757714D01*
X6607619Y-6757714D02*
X6598095Y-6738667D01*
X6598095Y-6738667D02*
X6579048Y-6729143D01*
X6579048Y-6729143D02*
X6550476Y-6729143D01*
X6550476Y-6729143D02*
X6531429Y-6738667D01*
X6531429Y-6738667D02*
X6521905Y-6748190D01*
X6731429Y-6862476D02*
X6712381Y-6852952D01*
X6712381Y-6852952D02*
X6702857Y-6843428D01*
X6702857Y-6843428D02*
X6693333Y-6824381D01*
X6693333Y-6824381D02*
X6693333Y-6767238D01*
X6693333Y-6767238D02*
X6702857Y-6748190D01*
X6702857Y-6748190D02*
X6712381Y-6738667D01*
X6712381Y-6738667D02*
X6731429Y-6729143D01*
X6731429Y-6729143D02*
X6760000Y-6729143D01*
X6760000Y-6729143D02*
X6779048Y-6738667D01*
X6779048Y-6738667D02*
X6788572Y-6748190D01*
X6788572Y-6748190D02*
X6798095Y-6767238D01*
X6798095Y-6767238D02*
X6798095Y-6824381D01*
X6798095Y-6824381D02*
X6788572Y-6843428D01*
X6788572Y-6843428D02*
X6779048Y-6852952D01*
X6779048Y-6852952D02*
X6760000Y-6862476D01*
X6760000Y-6862476D02*
X6731429Y-6862476D01*
X6912381Y-6862476D02*
X6893333Y-6852952D01*
X6893333Y-6852952D02*
X6883810Y-6833905D01*
X6883810Y-6833905D02*
X6883810Y-6662476D01*
X7064762Y-6852952D02*
X7045714Y-6862476D01*
X7045714Y-6862476D02*
X7007619Y-6862476D01*
X7007619Y-6862476D02*
X6988572Y-6852952D01*
X6988572Y-6852952D02*
X6979048Y-6833905D01*
X6979048Y-6833905D02*
X6979048Y-6757714D01*
X6979048Y-6757714D02*
X6988572Y-6738667D01*
X6988572Y-6738667D02*
X7007619Y-6729143D01*
X7007619Y-6729143D02*
X7045714Y-6729143D01*
X7045714Y-6729143D02*
X7064762Y-6738667D01*
X7064762Y-6738667D02*
X7074286Y-6757714D01*
X7074286Y-6757714D02*
X7074286Y-6776762D01*
X7074286Y-6776762D02*
X6979048Y-6795809D01*
X7150476Y-6852952D02*
X7169524Y-6862476D01*
X7169524Y-6862476D02*
X7207619Y-6862476D01*
X7207619Y-6862476D02*
X7226667Y-6852952D01*
X7226667Y-6852952D02*
X7236191Y-6833905D01*
X7236191Y-6833905D02*
X7236191Y-6824381D01*
X7236191Y-6824381D02*
X7226667Y-6805333D01*
X7226667Y-6805333D02*
X7207619Y-6795809D01*
X7207619Y-6795809D02*
X7179048Y-6795809D01*
X7179048Y-6795809D02*
X7160000Y-6786286D01*
X7160000Y-6786286D02*
X7150476Y-6767238D01*
X7150476Y-6767238D02*
X7150476Y-6757714D01*
X7150476Y-6757714D02*
X7160000Y-6738667D01*
X7160000Y-6738667D02*
X7179048Y-6729143D01*
X7179048Y-6729143D02*
X7207619Y-6729143D01*
X7207619Y-6729143D02*
X7226667Y-6738667D01*
X7302857Y-6938667D02*
X7312381Y-6929143D01*
X7312381Y-6929143D02*
X7331429Y-6900571D01*
X7331429Y-6900571D02*
X7340953Y-6881524D01*
X7340953Y-6881524D02*
X7350476Y-6852952D01*
X7350476Y-6852952D02*
X7360000Y-6805333D01*
X7360000Y-6805333D02*
X7360000Y-6767238D01*
X7360000Y-6767238D02*
X7350476Y-6719619D01*
X7350476Y-6719619D02*
X7340953Y-6691048D01*
X7340953Y-6691048D02*
X7331429Y-6672000D01*
X7331429Y-6672000D02*
X7312381Y-6643428D01*
X7312381Y-6643428D02*
X7302857Y-6633905D01*
D14*
X2462427Y-7095427D02*
X2462427Y-7010573D01*
X2377573Y-7010573D01*
X2377573Y-7095427D01*
X2462427Y-7095427D01*
D11*
X2832381Y-7126476D02*
X2718095Y-7126476D01*
X2775238Y-7126476D02*
X2775238Y-6926476D01*
X2775238Y-6926476D02*
X2756190Y-6955048D01*
X2756190Y-6955048D02*
X2737143Y-6974095D01*
X2737143Y-6974095D02*
X2718095Y-6983619D01*
X2918095Y-7107428D02*
X2927619Y-7116952D01*
X2927619Y-7116952D02*
X2918095Y-7126476D01*
X2918095Y-7126476D02*
X2908571Y-7116952D01*
X2908571Y-7116952D02*
X2918095Y-7107428D01*
X2918095Y-7107428D02*
X2918095Y-7126476D01*
X3003809Y-6945524D02*
X3013333Y-6936000D01*
X3013333Y-6936000D02*
X3032381Y-6926476D01*
X3032381Y-6926476D02*
X3080000Y-6926476D01*
X3080000Y-6926476D02*
X3099048Y-6936000D01*
X3099048Y-6936000D02*
X3108571Y-6945524D01*
X3108571Y-6945524D02*
X3118095Y-6964571D01*
X3118095Y-6964571D02*
X3118095Y-6983619D01*
X3118095Y-6983619D02*
X3108571Y-7012190D01*
X3108571Y-7012190D02*
X2994286Y-7126476D01*
X2994286Y-7126476D02*
X3118095Y-7126476D01*
X3241905Y-6926476D02*
X3260952Y-6926476D01*
X3260952Y-6926476D02*
X3280000Y-6936000D01*
X3280000Y-6936000D02*
X3289524Y-6945524D01*
X3289524Y-6945524D02*
X3299048Y-6964571D01*
X3299048Y-6964571D02*
X3308571Y-7002667D01*
X3308571Y-7002667D02*
X3308571Y-7050286D01*
X3308571Y-7050286D02*
X3299048Y-7088381D01*
X3299048Y-7088381D02*
X3289524Y-7107428D01*
X3289524Y-7107428D02*
X3280000Y-7116952D01*
X3280000Y-7116952D02*
X3260952Y-7126476D01*
X3260952Y-7126476D02*
X3241905Y-7126476D01*
X3241905Y-7126476D02*
X3222857Y-7116952D01*
X3222857Y-7116952D02*
X3213333Y-7107428D01*
X3213333Y-7107428D02*
X3203809Y-7088381D01*
X3203809Y-7088381D02*
X3194286Y-7050286D01*
X3194286Y-7050286D02*
X3194286Y-7002667D01*
X3194286Y-7002667D02*
X3203809Y-6964571D01*
X3203809Y-6964571D02*
X3213333Y-6945524D01*
X3213333Y-6945524D02*
X3222857Y-6936000D01*
X3222857Y-6936000D02*
X3241905Y-6926476D01*
X3432381Y-6926476D02*
X3451429Y-6926476D01*
X3451429Y-6926476D02*
X3470476Y-6936000D01*
X3470476Y-6936000D02*
X3480000Y-6945524D01*
X3480000Y-6945524D02*
X3489524Y-6964571D01*
X3489524Y-6964571D02*
X3499048Y-7002667D01*
X3499048Y-7002667D02*
X3499048Y-7050286D01*
X3499048Y-7050286D02*
X3489524Y-7088381D01*
X3489524Y-7088381D02*
X3480000Y-7107428D01*
X3480000Y-7107428D02*
X3470476Y-7116952D01*
X3470476Y-7116952D02*
X3451429Y-7126476D01*
X3451429Y-7126476D02*
X3432381Y-7126476D01*
X3432381Y-7126476D02*
X3413333Y-7116952D01*
X3413333Y-7116952D02*
X3403809Y-7107428D01*
X3403809Y-7107428D02*
X3394286Y-7088381D01*
X3394286Y-7088381D02*
X3384762Y-7050286D01*
X3384762Y-7050286D02*
X3384762Y-7002667D01*
X3384762Y-7002667D02*
X3394286Y-6964571D01*
X3394286Y-6964571D02*
X3403809Y-6945524D01*
X3403809Y-6945524D02*
X3413333Y-6936000D01*
X3413333Y-6936000D02*
X3432381Y-6926476D01*
X3584762Y-7126476D02*
X3584762Y-6993143D01*
X3584762Y-7012190D02*
X3594286Y-7002667D01*
X3594286Y-7002667D02*
X3613333Y-6993143D01*
X3613333Y-6993143D02*
X3641905Y-6993143D01*
X3641905Y-6993143D02*
X3660952Y-7002667D01*
X3660952Y-7002667D02*
X3670476Y-7021714D01*
X3670476Y-7021714D02*
X3670476Y-7126476D01*
X3670476Y-7021714D02*
X3680000Y-7002667D01*
X3680000Y-7002667D02*
X3699048Y-6993143D01*
X3699048Y-6993143D02*
X3727619Y-6993143D01*
X3727619Y-6993143D02*
X3746667Y-7002667D01*
X3746667Y-7002667D02*
X3756190Y-7021714D01*
X3756190Y-7021714D02*
X3756190Y-7126476D01*
X3851429Y-7126476D02*
X3851429Y-6993143D01*
X3851429Y-7012190D02*
X3860952Y-7002667D01*
X3860952Y-7002667D02*
X3880000Y-6993143D01*
X3880000Y-6993143D02*
X3908571Y-6993143D01*
X3908571Y-6993143D02*
X3927619Y-7002667D01*
X3927619Y-7002667D02*
X3937143Y-7021714D01*
X3937143Y-7021714D02*
X3937143Y-7126476D01*
X3937143Y-7021714D02*
X3946667Y-7002667D01*
X3946667Y-7002667D02*
X3965714Y-6993143D01*
X3965714Y-6993143D02*
X3994286Y-6993143D01*
X3994286Y-6993143D02*
X4013333Y-7002667D01*
X4013333Y-7002667D02*
X4022857Y-7021714D01*
X4022857Y-7021714D02*
X4022857Y-7126476D01*
X4380952Y-6916952D02*
X4209524Y-7174095D01*
X4605714Y-6926476D02*
X4624762Y-6926476D01*
X4624762Y-6926476D02*
X4643810Y-6936000D01*
X4643810Y-6936000D02*
X4653333Y-6945524D01*
X4653333Y-6945524D02*
X4662857Y-6964571D01*
X4662857Y-6964571D02*
X4672381Y-7002667D01*
X4672381Y-7002667D02*
X4672381Y-7050286D01*
X4672381Y-7050286D02*
X4662857Y-7088381D01*
X4662857Y-7088381D02*
X4653333Y-7107428D01*
X4653333Y-7107428D02*
X4643810Y-7116952D01*
X4643810Y-7116952D02*
X4624762Y-7126476D01*
X4624762Y-7126476D02*
X4605714Y-7126476D01*
X4605714Y-7126476D02*
X4586667Y-7116952D01*
X4586667Y-7116952D02*
X4577143Y-7107428D01*
X4577143Y-7107428D02*
X4567619Y-7088381D01*
X4567619Y-7088381D02*
X4558095Y-7050286D01*
X4558095Y-7050286D02*
X4558095Y-7002667D01*
X4558095Y-7002667D02*
X4567619Y-6964571D01*
X4567619Y-6964571D02*
X4577143Y-6945524D01*
X4577143Y-6945524D02*
X4586667Y-6936000D01*
X4586667Y-6936000D02*
X4605714Y-6926476D01*
X4758095Y-7107428D02*
X4767619Y-7116952D01*
X4767619Y-7116952D02*
X4758095Y-7126476D01*
X4758095Y-7126476D02*
X4748572Y-7116952D01*
X4748572Y-7116952D02*
X4758095Y-7107428D01*
X4758095Y-7107428D02*
X4758095Y-7126476D01*
X4891429Y-6926476D02*
X4910476Y-6926476D01*
X4910476Y-6926476D02*
X4929524Y-6936000D01*
X4929524Y-6936000D02*
X4939048Y-6945524D01*
X4939048Y-6945524D02*
X4948572Y-6964571D01*
X4948572Y-6964571D02*
X4958095Y-7002667D01*
X4958095Y-7002667D02*
X4958095Y-7050286D01*
X4958095Y-7050286D02*
X4948572Y-7088381D01*
X4948572Y-7088381D02*
X4939048Y-7107428D01*
X4939048Y-7107428D02*
X4929524Y-7116952D01*
X4929524Y-7116952D02*
X4910476Y-7126476D01*
X4910476Y-7126476D02*
X4891429Y-7126476D01*
X4891429Y-7126476D02*
X4872381Y-7116952D01*
X4872381Y-7116952D02*
X4862857Y-7107428D01*
X4862857Y-7107428D02*
X4853333Y-7088381D01*
X4853333Y-7088381D02*
X4843810Y-7050286D01*
X4843810Y-7050286D02*
X4843810Y-7002667D01*
X4843810Y-7002667D02*
X4853333Y-6964571D01*
X4853333Y-6964571D02*
X4862857Y-6945524D01*
X4862857Y-6945524D02*
X4872381Y-6936000D01*
X4872381Y-6936000D02*
X4891429Y-6926476D01*
X5129524Y-6993143D02*
X5129524Y-7126476D01*
X5081905Y-6916952D02*
X5034286Y-7059809D01*
X5034286Y-7059809D02*
X5158095Y-7059809D01*
X5215238Y-6926476D02*
X5348572Y-6926476D01*
X5348572Y-6926476D02*
X5262857Y-7126476D01*
X5415238Y-6945524D02*
X5424762Y-6936000D01*
X5424762Y-6936000D02*
X5443810Y-6926476D01*
X5443810Y-6926476D02*
X5491429Y-6926476D01*
X5491429Y-6926476D02*
X5510476Y-6936000D01*
X5510476Y-6936000D02*
X5520000Y-6945524D01*
X5520000Y-6945524D02*
X5529524Y-6964571D01*
X5529524Y-6964571D02*
X5529524Y-6983619D01*
X5529524Y-6983619D02*
X5520000Y-7012190D01*
X5520000Y-7012190D02*
X5405714Y-7126476D01*
X5405714Y-7126476D02*
X5529524Y-7126476D01*
X5605714Y-6926476D02*
X5605714Y-6964571D01*
X5681905Y-6926476D02*
X5681905Y-6964571D01*
X5944762Y-7202667D02*
X5935238Y-7193143D01*
X5935238Y-7193143D02*
X5916191Y-7164571D01*
X5916191Y-7164571D02*
X5906667Y-7145524D01*
X5906667Y-7145524D02*
X5897143Y-7116952D01*
X5897143Y-7116952D02*
X5887619Y-7069333D01*
X5887619Y-7069333D02*
X5887619Y-7031238D01*
X5887619Y-7031238D02*
X5897143Y-6983619D01*
X5897143Y-6983619D02*
X5906667Y-6955048D01*
X5906667Y-6955048D02*
X5916191Y-6936000D01*
X5916191Y-6936000D02*
X5935238Y-6907428D01*
X5935238Y-6907428D02*
X5944762Y-6897905D01*
X6106667Y-6993143D02*
X6106667Y-7126476D01*
X6059048Y-6916952D02*
X6011429Y-7059809D01*
X6011429Y-7059809D02*
X6135238Y-7059809D01*
X6331429Y-7126476D02*
X6331429Y-6926476D01*
X6417143Y-7126476D02*
X6417143Y-7021714D01*
X6417143Y-7021714D02*
X6407619Y-7002667D01*
X6407619Y-7002667D02*
X6388572Y-6993143D01*
X6388572Y-6993143D02*
X6360000Y-6993143D01*
X6360000Y-6993143D02*
X6340952Y-7002667D01*
X6340952Y-7002667D02*
X6331429Y-7012190D01*
X6540952Y-7126476D02*
X6521905Y-7116952D01*
X6521905Y-7116952D02*
X6512381Y-7107428D01*
X6512381Y-7107428D02*
X6502857Y-7088381D01*
X6502857Y-7088381D02*
X6502857Y-7031238D01*
X6502857Y-7031238D02*
X6512381Y-7012190D01*
X6512381Y-7012190D02*
X6521905Y-7002667D01*
X6521905Y-7002667D02*
X6540952Y-6993143D01*
X6540952Y-6993143D02*
X6569524Y-6993143D01*
X6569524Y-6993143D02*
X6588572Y-7002667D01*
X6588572Y-7002667D02*
X6598095Y-7012190D01*
X6598095Y-7012190D02*
X6607619Y-7031238D01*
X6607619Y-7031238D02*
X6607619Y-7088381D01*
X6607619Y-7088381D02*
X6598095Y-7107428D01*
X6598095Y-7107428D02*
X6588572Y-7116952D01*
X6588572Y-7116952D02*
X6569524Y-7126476D01*
X6569524Y-7126476D02*
X6540952Y-7126476D01*
X6721905Y-7126476D02*
X6702857Y-7116952D01*
X6702857Y-7116952D02*
X6693333Y-7097905D01*
X6693333Y-7097905D02*
X6693333Y-6926476D01*
X6874286Y-7116952D02*
X6855238Y-7126476D01*
X6855238Y-7126476D02*
X6817143Y-7126476D01*
X6817143Y-7126476D02*
X6798095Y-7116952D01*
X6798095Y-7116952D02*
X6788572Y-7097905D01*
X6788572Y-7097905D02*
X6788572Y-7021714D01*
X6788572Y-7021714D02*
X6798095Y-7002667D01*
X6798095Y-7002667D02*
X6817143Y-6993143D01*
X6817143Y-6993143D02*
X6855238Y-6993143D01*
X6855238Y-6993143D02*
X6874286Y-7002667D01*
X6874286Y-7002667D02*
X6883810Y-7021714D01*
X6883810Y-7021714D02*
X6883810Y-7040762D01*
X6883810Y-7040762D02*
X6788572Y-7059809D01*
X6960000Y-7116952D02*
X6979048Y-7126476D01*
X6979048Y-7126476D02*
X7017143Y-7126476D01*
X7017143Y-7126476D02*
X7036191Y-7116952D01*
X7036191Y-7116952D02*
X7045714Y-7097905D01*
X7045714Y-7097905D02*
X7045714Y-7088381D01*
X7045714Y-7088381D02*
X7036191Y-7069333D01*
X7036191Y-7069333D02*
X7017143Y-7059809D01*
X7017143Y-7059809D02*
X6988572Y-7059809D01*
X6988572Y-7059809D02*
X6969524Y-7050286D01*
X6969524Y-7050286D02*
X6960000Y-7031238D01*
X6960000Y-7031238D02*
X6960000Y-7021714D01*
X6960000Y-7021714D02*
X6969524Y-7002667D01*
X6969524Y-7002667D02*
X6988572Y-6993143D01*
X6988572Y-6993143D02*
X7017143Y-6993143D01*
X7017143Y-6993143D02*
X7036191Y-7002667D01*
X7112381Y-7202667D02*
X7121905Y-7193143D01*
X7121905Y-7193143D02*
X7140953Y-7164571D01*
X7140953Y-7164571D02*
X7150476Y-7145524D01*
X7150476Y-7145524D02*
X7160000Y-7116952D01*
X7160000Y-7116952D02*
X7169524Y-7069333D01*
X7169524Y-7069333D02*
X7169524Y-7031238D01*
X7169524Y-7031238D02*
X7160000Y-6983619D01*
X7160000Y-6983619D02*
X7150476Y-6955048D01*
X7150476Y-6955048D02*
X7140953Y-6936000D01*
X7140953Y-6936000D02*
X7121905Y-6907428D01*
X7121905Y-6907428D02*
X7112381Y-6897905D01*
D15*
X2400000Y-7397000D02*
X2480000Y-7317000D01*
X2400000Y-7237000D01*
X2320000Y-7317000D01*
X2400000Y-7397000D01*
D11*
X2832381Y-7390476D02*
X2718095Y-7390476D01*
X2775238Y-7390476D02*
X2775238Y-7190476D01*
X2775238Y-7190476D02*
X2756190Y-7219048D01*
X2756190Y-7219048D02*
X2737143Y-7238095D01*
X2737143Y-7238095D02*
X2718095Y-7247619D01*
X2918095Y-7371428D02*
X2927619Y-7380952D01*
X2927619Y-7380952D02*
X2918095Y-7390476D01*
X2918095Y-7390476D02*
X2908571Y-7380952D01*
X2908571Y-7380952D02*
X2918095Y-7371428D01*
X2918095Y-7371428D02*
X2918095Y-7390476D01*
X3099048Y-7190476D02*
X3060952Y-7190476D01*
X3060952Y-7190476D02*
X3041905Y-7200000D01*
X3041905Y-7200000D02*
X3032381Y-7209524D01*
X3032381Y-7209524D02*
X3013333Y-7238095D01*
X3013333Y-7238095D02*
X3003809Y-7276190D01*
X3003809Y-7276190D02*
X3003809Y-7352381D01*
X3003809Y-7352381D02*
X3013333Y-7371428D01*
X3013333Y-7371428D02*
X3022857Y-7380952D01*
X3022857Y-7380952D02*
X3041905Y-7390476D01*
X3041905Y-7390476D02*
X3080000Y-7390476D01*
X3080000Y-7390476D02*
X3099048Y-7380952D01*
X3099048Y-7380952D02*
X3108571Y-7371428D01*
X3108571Y-7371428D02*
X3118095Y-7352381D01*
X3118095Y-7352381D02*
X3118095Y-7304762D01*
X3118095Y-7304762D02*
X3108571Y-7285714D01*
X3108571Y-7285714D02*
X3099048Y-7276190D01*
X3099048Y-7276190D02*
X3080000Y-7266667D01*
X3080000Y-7266667D02*
X3041905Y-7266667D01*
X3041905Y-7266667D02*
X3022857Y-7276190D01*
X3022857Y-7276190D02*
X3013333Y-7285714D01*
X3013333Y-7285714D02*
X3003809Y-7304762D01*
X3241905Y-7190476D02*
X3260952Y-7190476D01*
X3260952Y-7190476D02*
X3280000Y-7200000D01*
X3280000Y-7200000D02*
X3289524Y-7209524D01*
X3289524Y-7209524D02*
X3299048Y-7228571D01*
X3299048Y-7228571D02*
X3308571Y-7266667D01*
X3308571Y-7266667D02*
X3308571Y-7314286D01*
X3308571Y-7314286D02*
X3299048Y-7352381D01*
X3299048Y-7352381D02*
X3289524Y-7371428D01*
X3289524Y-7371428D02*
X3280000Y-7380952D01*
X3280000Y-7380952D02*
X3260952Y-7390476D01*
X3260952Y-7390476D02*
X3241905Y-7390476D01*
X3241905Y-7390476D02*
X3222857Y-7380952D01*
X3222857Y-7380952D02*
X3213333Y-7371428D01*
X3213333Y-7371428D02*
X3203809Y-7352381D01*
X3203809Y-7352381D02*
X3194286Y-7314286D01*
X3194286Y-7314286D02*
X3194286Y-7266667D01*
X3194286Y-7266667D02*
X3203809Y-7228571D01*
X3203809Y-7228571D02*
X3213333Y-7209524D01*
X3213333Y-7209524D02*
X3222857Y-7200000D01*
X3222857Y-7200000D02*
X3241905Y-7190476D01*
X3432381Y-7190476D02*
X3451429Y-7190476D01*
X3451429Y-7190476D02*
X3470476Y-7200000D01*
X3470476Y-7200000D02*
X3480000Y-7209524D01*
X3480000Y-7209524D02*
X3489524Y-7228571D01*
X3489524Y-7228571D02*
X3499048Y-7266667D01*
X3499048Y-7266667D02*
X3499048Y-7314286D01*
X3499048Y-7314286D02*
X3489524Y-7352381D01*
X3489524Y-7352381D02*
X3480000Y-7371428D01*
X3480000Y-7371428D02*
X3470476Y-7380952D01*
X3470476Y-7380952D02*
X3451429Y-7390476D01*
X3451429Y-7390476D02*
X3432381Y-7390476D01*
X3432381Y-7390476D02*
X3413333Y-7380952D01*
X3413333Y-7380952D02*
X3403809Y-7371428D01*
X3403809Y-7371428D02*
X3394286Y-7352381D01*
X3394286Y-7352381D02*
X3384762Y-7314286D01*
X3384762Y-7314286D02*
X3384762Y-7266667D01*
X3384762Y-7266667D02*
X3394286Y-7228571D01*
X3394286Y-7228571D02*
X3403809Y-7209524D01*
X3403809Y-7209524D02*
X3413333Y-7200000D01*
X3413333Y-7200000D02*
X3432381Y-7190476D01*
X3584762Y-7390476D02*
X3584762Y-7257143D01*
X3584762Y-7276190D02*
X3594286Y-7266667D01*
X3594286Y-7266667D02*
X3613333Y-7257143D01*
X3613333Y-7257143D02*
X3641905Y-7257143D01*
X3641905Y-7257143D02*
X3660952Y-7266667D01*
X3660952Y-7266667D02*
X3670476Y-7285714D01*
X3670476Y-7285714D02*
X3670476Y-7390476D01*
X3670476Y-7285714D02*
X3680000Y-7266667D01*
X3680000Y-7266667D02*
X3699048Y-7257143D01*
X3699048Y-7257143D02*
X3727619Y-7257143D01*
X3727619Y-7257143D02*
X3746667Y-7266667D01*
X3746667Y-7266667D02*
X3756190Y-7285714D01*
X3756190Y-7285714D02*
X3756190Y-7390476D01*
X3851429Y-7390476D02*
X3851429Y-7257143D01*
X3851429Y-7276190D02*
X3860952Y-7266667D01*
X3860952Y-7266667D02*
X3880000Y-7257143D01*
X3880000Y-7257143D02*
X3908571Y-7257143D01*
X3908571Y-7257143D02*
X3927619Y-7266667D01*
X3927619Y-7266667D02*
X3937143Y-7285714D01*
X3937143Y-7285714D02*
X3937143Y-7390476D01*
X3937143Y-7285714D02*
X3946667Y-7266667D01*
X3946667Y-7266667D02*
X3965714Y-7257143D01*
X3965714Y-7257143D02*
X3994286Y-7257143D01*
X3994286Y-7257143D02*
X4013333Y-7266667D01*
X4013333Y-7266667D02*
X4022857Y-7285714D01*
X4022857Y-7285714D02*
X4022857Y-7390476D01*
X4380952Y-7180952D02*
X4209524Y-7438095D01*
X4605714Y-7190476D02*
X4624762Y-7190476D01*
X4624762Y-7190476D02*
X4643810Y-7200000D01*
X4643810Y-7200000D02*
X4653333Y-7209524D01*
X4653333Y-7209524D02*
X4662857Y-7228571D01*
X4662857Y-7228571D02*
X4672381Y-7266667D01*
X4672381Y-7266667D02*
X4672381Y-7314286D01*
X4672381Y-7314286D02*
X4662857Y-7352381D01*
X4662857Y-7352381D02*
X4653333Y-7371428D01*
X4653333Y-7371428D02*
X4643810Y-7380952D01*
X4643810Y-7380952D02*
X4624762Y-7390476D01*
X4624762Y-7390476D02*
X4605714Y-7390476D01*
X4605714Y-7390476D02*
X4586667Y-7380952D01*
X4586667Y-7380952D02*
X4577143Y-7371428D01*
X4577143Y-7371428D02*
X4567619Y-7352381D01*
X4567619Y-7352381D02*
X4558095Y-7314286D01*
X4558095Y-7314286D02*
X4558095Y-7266667D01*
X4558095Y-7266667D02*
X4567619Y-7228571D01*
X4567619Y-7228571D02*
X4577143Y-7209524D01*
X4577143Y-7209524D02*
X4586667Y-7200000D01*
X4586667Y-7200000D02*
X4605714Y-7190476D01*
X4758095Y-7371428D02*
X4767619Y-7380952D01*
X4767619Y-7380952D02*
X4758095Y-7390476D01*
X4758095Y-7390476D02*
X4748572Y-7380952D01*
X4748572Y-7380952D02*
X4758095Y-7371428D01*
X4758095Y-7371428D02*
X4758095Y-7390476D01*
X4891429Y-7190476D02*
X4910476Y-7190476D01*
X4910476Y-7190476D02*
X4929524Y-7200000D01*
X4929524Y-7200000D02*
X4939048Y-7209524D01*
X4939048Y-7209524D02*
X4948572Y-7228571D01*
X4948572Y-7228571D02*
X4958095Y-7266667D01*
X4958095Y-7266667D02*
X4958095Y-7314286D01*
X4958095Y-7314286D02*
X4948572Y-7352381D01*
X4948572Y-7352381D02*
X4939048Y-7371428D01*
X4939048Y-7371428D02*
X4929524Y-7380952D01*
X4929524Y-7380952D02*
X4910476Y-7390476D01*
X4910476Y-7390476D02*
X4891429Y-7390476D01*
X4891429Y-7390476D02*
X4872381Y-7380952D01*
X4872381Y-7380952D02*
X4862857Y-7371428D01*
X4862857Y-7371428D02*
X4853333Y-7352381D01*
X4853333Y-7352381D02*
X4843810Y-7314286D01*
X4843810Y-7314286D02*
X4843810Y-7266667D01*
X4843810Y-7266667D02*
X4853333Y-7228571D01*
X4853333Y-7228571D02*
X4862857Y-7209524D01*
X4862857Y-7209524D02*
X4872381Y-7200000D01*
X4872381Y-7200000D02*
X4891429Y-7190476D01*
X5129524Y-7190476D02*
X5091429Y-7190476D01*
X5091429Y-7190476D02*
X5072381Y-7200000D01*
X5072381Y-7200000D02*
X5062857Y-7209524D01*
X5062857Y-7209524D02*
X5043810Y-7238095D01*
X5043810Y-7238095D02*
X5034286Y-7276190D01*
X5034286Y-7276190D02*
X5034286Y-7352381D01*
X5034286Y-7352381D02*
X5043810Y-7371428D01*
X5043810Y-7371428D02*
X5053333Y-7380952D01*
X5053333Y-7380952D02*
X5072381Y-7390476D01*
X5072381Y-7390476D02*
X5110476Y-7390476D01*
X5110476Y-7390476D02*
X5129524Y-7380952D01*
X5129524Y-7380952D02*
X5139048Y-7371428D01*
X5139048Y-7371428D02*
X5148572Y-7352381D01*
X5148572Y-7352381D02*
X5148572Y-7304762D01*
X5148572Y-7304762D02*
X5139048Y-7285714D01*
X5139048Y-7285714D02*
X5129524Y-7276190D01*
X5129524Y-7276190D02*
X5110476Y-7266667D01*
X5110476Y-7266667D02*
X5072381Y-7266667D01*
X5072381Y-7266667D02*
X5053333Y-7276190D01*
X5053333Y-7276190D02*
X5043810Y-7285714D01*
X5043810Y-7285714D02*
X5034286Y-7304762D01*
X5215238Y-7190476D02*
X5339048Y-7190476D01*
X5339048Y-7190476D02*
X5272381Y-7266667D01*
X5272381Y-7266667D02*
X5300953Y-7266667D01*
X5300953Y-7266667D02*
X5320000Y-7276190D01*
X5320000Y-7276190D02*
X5329524Y-7285714D01*
X5329524Y-7285714D02*
X5339048Y-7304762D01*
X5339048Y-7304762D02*
X5339048Y-7352381D01*
X5339048Y-7352381D02*
X5329524Y-7371428D01*
X5329524Y-7371428D02*
X5320000Y-7380952D01*
X5320000Y-7380952D02*
X5300953Y-7390476D01*
X5300953Y-7390476D02*
X5243810Y-7390476D01*
X5243810Y-7390476D02*
X5224762Y-7380952D01*
X5224762Y-7380952D02*
X5215238Y-7371428D01*
X5462857Y-7190476D02*
X5481905Y-7190476D01*
X5481905Y-7190476D02*
X5500953Y-7200000D01*
X5500953Y-7200000D02*
X5510476Y-7209524D01*
X5510476Y-7209524D02*
X5520000Y-7228571D01*
X5520000Y-7228571D02*
X5529524Y-7266667D01*
X5529524Y-7266667D02*
X5529524Y-7314286D01*
X5529524Y-7314286D02*
X5520000Y-7352381D01*
X5520000Y-7352381D02*
X5510476Y-7371428D01*
X5510476Y-7371428D02*
X5500953Y-7380952D01*
X5500953Y-7380952D02*
X5481905Y-7390476D01*
X5481905Y-7390476D02*
X5462857Y-7390476D01*
X5462857Y-7390476D02*
X5443810Y-7380952D01*
X5443810Y-7380952D02*
X5434286Y-7371428D01*
X5434286Y-7371428D02*
X5424762Y-7352381D01*
X5424762Y-7352381D02*
X5415238Y-7314286D01*
X5415238Y-7314286D02*
X5415238Y-7266667D01*
X5415238Y-7266667D02*
X5424762Y-7228571D01*
X5424762Y-7228571D02*
X5434286Y-7209524D01*
X5434286Y-7209524D02*
X5443810Y-7200000D01*
X5443810Y-7200000D02*
X5462857Y-7190476D01*
X5605714Y-7190476D02*
X5605714Y-7228571D01*
X5681905Y-7190476D02*
X5681905Y-7228571D01*
X5944762Y-7466667D02*
X5935238Y-7457143D01*
X5935238Y-7457143D02*
X5916191Y-7428571D01*
X5916191Y-7428571D02*
X5906667Y-7409524D01*
X5906667Y-7409524D02*
X5897143Y-7380952D01*
X5897143Y-7380952D02*
X5887619Y-7333333D01*
X5887619Y-7333333D02*
X5887619Y-7295238D01*
X5887619Y-7295238D02*
X5897143Y-7247619D01*
X5897143Y-7247619D02*
X5906667Y-7219048D01*
X5906667Y-7219048D02*
X5916191Y-7200000D01*
X5916191Y-7200000D02*
X5935238Y-7171428D01*
X5935238Y-7171428D02*
X5944762Y-7161905D01*
X6125714Y-7390476D02*
X6011429Y-7390476D01*
X6068571Y-7390476D02*
X6068571Y-7190476D01*
X6068571Y-7190476D02*
X6049524Y-7219048D01*
X6049524Y-7219048D02*
X6030476Y-7238095D01*
X6030476Y-7238095D02*
X6011429Y-7247619D01*
X6249524Y-7190476D02*
X6268572Y-7190476D01*
X6268572Y-7190476D02*
X6287619Y-7200000D01*
X6287619Y-7200000D02*
X6297143Y-7209524D01*
X6297143Y-7209524D02*
X6306667Y-7228571D01*
X6306667Y-7228571D02*
X6316191Y-7266667D01*
X6316191Y-7266667D02*
X6316191Y-7314286D01*
X6316191Y-7314286D02*
X6306667Y-7352381D01*
X6306667Y-7352381D02*
X6297143Y-7371428D01*
X6297143Y-7371428D02*
X6287619Y-7380952D01*
X6287619Y-7380952D02*
X6268572Y-7390476D01*
X6268572Y-7390476D02*
X6249524Y-7390476D01*
X6249524Y-7390476D02*
X6230476Y-7380952D01*
X6230476Y-7380952D02*
X6220952Y-7371428D01*
X6220952Y-7371428D02*
X6211429Y-7352381D01*
X6211429Y-7352381D02*
X6201905Y-7314286D01*
X6201905Y-7314286D02*
X6201905Y-7266667D01*
X6201905Y-7266667D02*
X6211429Y-7228571D01*
X6211429Y-7228571D02*
X6220952Y-7209524D01*
X6220952Y-7209524D02*
X6230476Y-7200000D01*
X6230476Y-7200000D02*
X6249524Y-7190476D01*
X6521905Y-7390476D02*
X6521905Y-7190476D01*
X6607619Y-7390476D02*
X6607619Y-7285714D01*
X6607619Y-7285714D02*
X6598095Y-7266667D01*
X6598095Y-7266667D02*
X6579048Y-7257143D01*
X6579048Y-7257143D02*
X6550476Y-7257143D01*
X6550476Y-7257143D02*
X6531429Y-7266667D01*
X6531429Y-7266667D02*
X6521905Y-7276190D01*
X6731429Y-7390476D02*
X6712381Y-7380952D01*
X6712381Y-7380952D02*
X6702857Y-7371428D01*
X6702857Y-7371428D02*
X6693333Y-7352381D01*
X6693333Y-7352381D02*
X6693333Y-7295238D01*
X6693333Y-7295238D02*
X6702857Y-7276190D01*
X6702857Y-7276190D02*
X6712381Y-7266667D01*
X6712381Y-7266667D02*
X6731429Y-7257143D01*
X6731429Y-7257143D02*
X6760000Y-7257143D01*
X6760000Y-7257143D02*
X6779048Y-7266667D01*
X6779048Y-7266667D02*
X6788572Y-7276190D01*
X6788572Y-7276190D02*
X6798095Y-7295238D01*
X6798095Y-7295238D02*
X6798095Y-7352381D01*
X6798095Y-7352381D02*
X6788572Y-7371428D01*
X6788572Y-7371428D02*
X6779048Y-7380952D01*
X6779048Y-7380952D02*
X6760000Y-7390476D01*
X6760000Y-7390476D02*
X6731429Y-7390476D01*
X6912381Y-7390476D02*
X6893333Y-7380952D01*
X6893333Y-7380952D02*
X6883810Y-7361905D01*
X6883810Y-7361905D02*
X6883810Y-7190476D01*
X7064762Y-7380952D02*
X7045714Y-7390476D01*
X7045714Y-7390476D02*
X7007619Y-7390476D01*
X7007619Y-7390476D02*
X6988572Y-7380952D01*
X6988572Y-7380952D02*
X6979048Y-7361905D01*
X6979048Y-7361905D02*
X6979048Y-7285714D01*
X6979048Y-7285714D02*
X6988572Y-7266667D01*
X6988572Y-7266667D02*
X7007619Y-7257143D01*
X7007619Y-7257143D02*
X7045714Y-7257143D01*
X7045714Y-7257143D02*
X7064762Y-7266667D01*
X7064762Y-7266667D02*
X7074286Y-7285714D01*
X7074286Y-7285714D02*
X7074286Y-7304762D01*
X7074286Y-7304762D02*
X6979048Y-7323809D01*
X7150476Y-7380952D02*
X7169524Y-7390476D01*
X7169524Y-7390476D02*
X7207619Y-7390476D01*
X7207619Y-7390476D02*
X7226667Y-7380952D01*
X7226667Y-7380952D02*
X7236191Y-7361905D01*
X7236191Y-7361905D02*
X7236191Y-7352381D01*
X7236191Y-7352381D02*
X7226667Y-7333333D01*
X7226667Y-7333333D02*
X7207619Y-7323809D01*
X7207619Y-7323809D02*
X7179048Y-7323809D01*
X7179048Y-7323809D02*
X7160000Y-7314286D01*
X7160000Y-7314286D02*
X7150476Y-7295238D01*
X7150476Y-7295238D02*
X7150476Y-7285714D01*
X7150476Y-7285714D02*
X7160000Y-7266667D01*
X7160000Y-7266667D02*
X7179048Y-7257143D01*
X7179048Y-7257143D02*
X7207619Y-7257143D01*
X7207619Y-7257143D02*
X7226667Y-7266667D01*
X7302857Y-7466667D02*
X7312381Y-7457143D01*
X7312381Y-7457143D02*
X7331429Y-7428571D01*
X7331429Y-7428571D02*
X7340953Y-7409524D01*
X7340953Y-7409524D02*
X7350476Y-7380952D01*
X7350476Y-7380952D02*
X7360000Y-7333333D01*
X7360000Y-7333333D02*
X7360000Y-7295238D01*
X7360000Y-7295238D02*
X7350476Y-7247619D01*
X7350476Y-7247619D02*
X7340953Y-7219048D01*
X7340953Y-7219048D02*
X7331429Y-7200000D01*
X7331429Y-7200000D02*
X7312381Y-7171428D01*
X7312381Y-7171428D02*
X7302857Y-7161905D01*
M02*
